<?xml version="1.0" encoding="UTF-8"?>
<!-- Generator: Adobe Illustrator 19.0.0, SVG Export Plug-In . SVG Version: 6.00 Build 0)  -->
<svg version="1.1" xmlns="http://www.w3.org/2000/svg" xmlns:xlink="http://www.w3.org/1999/xlink" x="0px" y="0px" viewBox="0 0 800 736.5" style="enable-background:new 0 0 800 736.5;" xml:space="preserve">
<style type="text/css">
	.st0{fill:none;}
	.st1{fill:#FFFFFF;}
	.st2{fill:#231F20;}
	.st3{fill:url(#New_Pattern_Swatch_2);}
	.st4{fill:#F1C85F;fill-opacity:0.98;}
</style>
<pattern x="0" width="243.7" height="243.7" patternUnits="userSpaceOnUse" id="New_Pattern_Swatch_2" viewBox="1.9 -243.7 243.7 243.7" style="overflow:visible;">
	<g>
		<polygon class="st0" points="1.9,0 245.6,0 245.6,-243.7 1.9,-243.7   "/>
		<path class="st1" d="M72.6-239.8c-0.7,1.2-1.7,1.9-2.9,2.1c-0.6,0.1-1.2,0.1-1.9-0.1c0.3,0.5,0.8,0.9,1.4,1.3c1.3,0.8,2.6,1,4,0.4    c1.3-0.5,2.4-1.4,3.2-2.8c0.6-1,1.2-2.4,1.8-4c0.1-0.3,0.2-0.6,0.3-0.9h-5.3c0,0.1,0.1,0.3,0.1,0.4    C73.5-242.1,73.3-240.9,72.6-239.8z"/>
		<polygon class="st1" points="3.7,-21.6 1.9,-20 1.9,-15.2 5.5,-18.5   "/>
		<path class="st1" d="M181.4-56.2c0.9,0.4,1.7,0.6,2.5,0.5c1.4-0.2,2.6-0.7,3-0.2c0.4,0.5-0.2,2-1.8,2.8c-1,0.5-2,0.8-3,0.9    c-2,0.2-3.9-0.2-5.7-1.2c-1.7-1-3.1-2.5-4-4.5c-0.8-1.7-1.1-3.5-1-5.3l-4.7-1.6c1.7,7.7,4.8,12.8,9.2,15.3    c2.3,1.3,4.9,1.5,7.7,0.4c2.7-1,4.8-2.7,6.2-5.1c0.5-0.9,0.9-1.8,1.1-2.7l-12.2-4.1C178.6-59,179.6-57.1,181.4-56.2z"/>
		<path class="st1" d="M185.8-65.2c-2.2-1.1-4.8-0.4-6.2,1.5l11,3.6C190.5-61.8,187.7-64.3,185.8-65.2z"/>
		<polygon class="st1" points="1.9,-11.1 1.9,0 16,0 7,-15.8   "/>
		<path class="st1" d="M245.6-212.8v-30.8h-12l-3.6,3.4C235.3-230.8,244.3-215.1,245.6-212.8z"/>
		<path class="st1" d="M229.1-243.7H228c0.1,0.2,0.2,0.4,0.4,0.7L229.1-243.7z"/>
		<path class="st1" d="M224.3-2.9L226,0h-47.7l-29.6-30.5l-0.5,0.7l0,0c0,0-0.1,0.1-0.2,0.3l-3.5,5.4v0    c-4.9,7.5-12.9,19.9-13.2,20.4c-0.6,1-0.7,2.3-0.2,3.8H81.4l0.7-2.1c2,0.3,3.9,0,5.7-0.8c2-0.9,3.5-2.3,4.7-4.3    c1.5-2.4,2-4.9,1.7-7.6c-0.3-2.9-1.7-5.1-4.1-6.6c-0.3-0.2-0.6-0.3-0.9-0.5l2-5.6c2.8-0.6,5.4-1.9,7.9-3.7    c2.4-1.8,4.5-4.1,6.1-6.8c1-1.6,1.8-3.7,2.5-6.3c0.9-3.6,0.7-5.7-0.7-6.6c-0.5-0.3-1.2-0.3-2.2-0.1c-2.5,0.6-4.6,1.8-6.4,3.5    c-1.4,1.3-2.9,3.2-4.4,5.7c-0.8,1.3-1.7,3.6-2.9,7.1c-4.5,1.1-7.9,2.2-10,3.1c-3.9,1.7-6.7,4-8.5,6.9c-2,3.2-2.7,6.9-2.1,10.9    c0.6,4.2,2.5,7.4,5.7,9.3c1.1,0.7,2.1,1.2,3.2,1.5c-0.3,0.9-0.6,1.8-0.9,2.8h-5.3c-0.3-1.1-0.9-2-1.9-2.6c-1.2-0.7-2.5-0.8-4-0.3    c-1.3,0.5-2.3,1.3-3,2.5c-0.1,0.1-0.1,0.3-0.2,0.4h-46c-3.3-5.8-7.3-12.9-10.2-17.9l-1-1.8l0,0c-0.9-1.5-1.6-2.7-2-3.6l-1.3-2.3    l-1.5,1.4V-94l21,0.6l-5.9,22.8C15.8-72,13.4-73,10.6-73c-4,0-7.3,2.1-7.2,4.7c0,2.5,3.3,4.6,7.3,4.5c3.6,0,6.6-1.7,7.1-3.9    c0.2-0.6,4.2-16.2,6.6-25.7l0,0l0.3-1.1c0.9-3.6,1.6-6,1.6-6l0,0l0.2-0.9l-24.6-0.7V-152c1.6,2,2.6,4,0.6,7.8    c-0.3,0.6,0.3,1.1,0.8,0.5c6.9-9-3.2-10.4,0.9-20.6c0.8,7.1,8.6,7.9,4.6,15.3c-0.3,0.6,0.3,1.1,0.8,0.5c7-9.1-3.5-10.4,1-21    c0.8-1.8,0-2.5,0-2.5l0,0l-4.4,3.5l-1.9,1.5c0,0,0,0,0,0l-2.2,1.7v-41.7c0.8-2,0.9-4,0.2-5.3c0,0-0.1-0.1-0.2-0.3v-30.8H16    l4.9,8.6c-2.2-0.2-5.1,1-7.5,3.3c-3.4,3.4-4.4,7.8-2.3,10c2.1,2.1,6.6,1.1,10-2.2c3.1-3,4.2-6.9,2.9-9.3    c-0.2-0.3-2.7-4.8-5.9-10.4h46c-0.9,1.6-0.9,3.4-0.2,5.2c0.7,1.7,1.9,3.2,3.6,4.2c1,0.6,2,1,3,1.2c0.9,0.1,1.8,0.2,2.7,0    c2.2-0.3,3.9-1.4,4.9-3.1c0.8-1.3,1.6-3,2.4-5l0.8-2.4h49.7c0.4,1.2,1,2.4,2,3.5c2.5,2.7,5.9,3.7,7.6,2.1c1.3-1.2,1.3-3.4,0.1-5.6    h15c-4.1,6.3-8.2,12.7-8.4,13c-1.1,1.7-0.4,4.8,1.8,7.3c2.5,2.7,5.9,3.7,7.6,2.1c1.7-1.6,1.1-5-1.4-7.8c-1.7-1.9-3.9-2.9-5.6-2.9    l7.6-11.8h10.4l8.7,9c-4.8,7.5-13.1,20.2-13.4,20.7c-1.1,1.7-0.4,4.8,1.8,7.3c2.5,2.7,5.9,3.7,7.6,2.1c1.7-1.6,1.1-5-1.4-7.8    c-1.7-1.9-3.9-2.9-5.6-2.9l11.9-18.4l0,0l4.1-6.4l-3.5-3.6H226l2.4,4.1l0.3,0.5l0,0l14.1,24.7c-2.2-0.2-5.1,1-7.5,3.3    c-3.4,3.4-4.4,7.8-2.3,10c2.1,2.1,6.6,1.1,10-2.2c1.2-1.2,2.1-2.6,2.7-3.9v41.7l-23.9,18.9c-0.2-2.5-2-5.4-4.9-7.6    c-4.3-3.2-9.4-3.6-11.3-0.9c-2,2.7-0.2,7.4,4.1,10.6c3.8,2.9,8.3,3.4,10.7,1.6c0.6-0.5,12.6-9.9,21.3-16.9    c0.3,3.7,2.5,5.7,4.1,7.8v49.9l-2.2-0.1l-2.1,8l0,0l-6,23.1c-1.2-1.4-3.7-2.4-6.4-2.4c-4,0-7.3,2.1-7.2,4.7c0,2.5,3.3,4.6,7.3,4.5    c3.6,0,6.6-1.7,7.2-3.9c0.2-0.6,4.3-16.6,6.7-26l2.7,0.1v69.8L223.7-4L224.3-2.9z M45.1-188.7c0,4.3,5.5,7.8,12.3,7.8    c6.8,0,12.3-3.5,12.3-7.8c0-4.3-5.5-7.8-12.3-7.8C50.7-196.5,45.1-193,45.1-188.7z M52.6-48.7c-1.8-6.6-6.6-11-10.8-9.8    c-4.1,1.1-6,7.4-4.2,14c1.8,6.6,6.6,11,10.8,9.8C52.6-35.9,54.5-42.2,52.6-48.7z M115.1-124.5l-7.4-5.3l-23.1-16.7    c2.1-0.7,4.2-3,5.3-6c1.7-4.4,0.8-8.8-2-9.9c-2.8-1.1-6.4,1.7-8,6.1c-1.5,4-0.9,7.9,1.2,9.5c0.6,0.4,16.2,11.7,25.5,18.4    l-10.7,25.3l-22.4-16.2c2.1-0.7,4.2-3,5.3-6c1.7-4.4,0.8-8.8-2-9.9c-2.8-1.1-6.4,1.7-8,6.1c-1.5,4-0.9,7.9,1.2,9.5    c0.6,0.4,16,11.6,25.3,18.2L84.5-75.9L62.1-92c2.1-0.7,4.2-3,5.3-6c1.7-4.4,0.8-8.8-2-9.9c-2.8-1.1-6.4,1.7-8,6.1    c-1.5,4-0.9,7.9,1.2,9.5c0.8,0.6,32.1,23.2,32.1,23.2l0,0l0.9,0.6L115.1-124.5z M131.8-197c-0.6-0.2-15.4-6.5-24.4-10.3l0,0    l-1.9-0.8c-2.9-1.2-4.8-2-4.8-2v0l-0.9-0.4l-4.7,26.4l7.6,3.2l0,0l22,9.3c-1.6,1-2.9,3.3-3.3,6c-0.6,4,1,7.5,3.5,7.8    c2.5,0.3,5-2.6,5.5-6.6c0.5-3.6-0.7-6.8-2.8-7.6c-0.6-0.2-15.8-6.7-24.7-10.5l4.1-23.4l21.7,9.2c-1.6,1-2.9,3.3-3.3,6    c-0.6,4,1,7.5,3.5,7.9c2.5,0.3,5-2.6,5.5-6.6C135.1-193,133.8-196.2,131.8-197z M194-191c1.4,5.1,5.1,8.5,8.3,7.6    c3.2-0.9,4.7-5.7,3.3-10.8c-1.4-5.1-5.1-8.5-8.3-7.6C194.1-200.9,192.6-196,194-191z M143.5-126.8c0.4,0.5,11.5,13.4,18.3,21.2    l0,0l1.8,2.1v0c0.8,1,1.6,1.8,2.1,2.4l0,0l1.8,2.1l16.8-22.8l-1.8-2.1v0l-2.1-2.4l0,0l-0.5-0.6l-17.7-20.6c2-0.2,4.3-1.7,5.9-4.2    c2.4-3.5,2.5-7.6,0.3-9.1c-2.2-1.5-5.9,0.1-8.3,3.6c-2.2,3.2-2.5,6.8-0.9,8.6c0.4,0.5,11.8,13.7,18.5,21.5l-14.9,20.2l-16.2-18.8    c2-0.2,4.3-1.7,5.9-4.2c2.4-3.5,2.5-7.6,0.3-9.1c-2.2-1.5-5.9,0.1-8.3,3.6C142.3-132.2,142-128.6,143.5-126.8z M208.8-49.5    c-0.4-2.4-1.7-4.3-3.7-5.4c-1.5-0.9-3.4-1.7-5.7-2.5l-5.2-1.6c0.3-2.2-0.1-4.3-1.1-6.4c-1.1-2.1-2.7-3.9-4.9-5.1    c-2.7-1.5-5.6-2.1-8.5-1.7c-3.2,0.5-5.6,2.1-7.2,4.8c-0.2,0.3-0.3,0.7-0.5,1l-6.3-2.1c-0.8-3.1-2.3-6-4.4-8.6    c-2.1-2.6-4.7-4.8-7.7-6.5c-1.8-1-4.2-1.9-7.1-2.5c-4-0.9-6.4-0.6-7.3,1c-0.3,0.6-0.3,1.3,0,2.5c0.8,2.7,2.2,5.1,4.2,7    c1.5,1.5,3.7,3.1,6.6,4.7c1.4,0.8,4,1.8,8,3c1.4,5,2.7,8.7,3.8,11c2,4.3,4.7,7.4,8,9.2c3.6,2.1,7.7,2.7,12.2,1.9    c4.7-0.8,8.1-3.1,10.2-6.7c0.7-1.2,1.2-2.4,1.6-3.6c1.4,0.4,2.7,0.8,4.1,1.2c1.8,0.6,3.3,1.2,4.5,1.8c1.6,0.9,2.7,2.1,3.3,3.5    c0.6,1.5,0.5,3-0.3,4.5c-0.4,0.7-0.8,1.2-1.4,1.6c0.2-0.7,0.2-1.4,0-2.1c-0.3-1.3-1.1-2.4-2.4-3.1c-1.3-0.7-2.6-0.9-3.9-0.7    c-1.4,0.3-2.5,1.1-3.3,2.4c-0.8,1.3-0.8,2.8-0.1,4.4c0.6,1.4,1.6,2.5,2.9,3.2c2,1.1,4.1,1.2,6.3,0.2c1.9-0.9,3.4-2.3,4.5-4.2    c0.6-1.1,1-2.2,1.2-3.4C209-47.5,209-48.5,208.8-49.5z"/>
		<path class="st1" d="M103.8-41c1.1-1.9,0.6-2.6-0.1-3c-0.2-0.1-0.3-0.2-0.5-0.2c-0.7-0.1-1.9,0.1-4,2c-1.7,1.5-3.1,3.1-4.1,4.7    c-0.5,0.9-0.9,1.7-1.1,2.5c1.7-0.3,3.4-0.9,5.1-1.9C101.2-38.1,102.8-39.5,103.8-41z"/>
		<path class="st1" d="M245.6-20l-19,17.5c0.4,0.6,0.8,1.5,1.4,2.5h1.1l16.5-15.2V-20z"/>
		<path class="st1" d="M181.5-122.6c-0.5-0.6-1.2-1.4-2.1-2.4l-14.9,20.2l2.1,2.4L181.5-122.6z"/>
		<polygon class="st1" points="245.6,0 245.6,-11.1 233.6,0   "/>
		<path class="st1" d="M197.1-187.9c1.6,0.9,4-0.5,5.5-3.1c1.5-2.6,1.4-5.4-0.2-6.3c-1.6-0.9-4,0.5-5.5,3.1    C195.5-191.6,195.5-188.8,197.1-187.9z"/>
		<path class="st1" d="M150.2-81.6c-2.1-1.2-2.9-0.5-3.3,0.3c-0.1,0.2-0.2,0.4-0.2,0.6c-0.1,0.7,0.2,2.1,2.4,4.4    c1.8,1.8,3.6,3.3,5.4,4.3c1,0.6,1.9,0.9,2.8,1.1c-0.4-1.9-1.2-3.8-2.3-5.7C153.6-78.9,152-80.6,150.2-81.6z"/>
		<path class="st1" d="M48.6-52.8c-2-1.2-5.2,0.6-7.2,4c-1.9,3.4-1.8,7,0.2,8.2c2,1.2,5.2-0.6,7.2-4C50.7-47.9,50.6-51.6,48.6-52.8z    "/>
		<path class="st1" d="M62.4-183.8c1.7-1.7,0.8-5.2-1.9-8c-2.7-2.7-6.3-3.6-8-1.9c-1.7,1.7-0.8,5.2,1.9,8    C57.2-183,60.8-182.1,62.4-183.8z"/>
		<path class="st1" d="M80.1-13.7c-0.4,0.8-0.6,1.5-0.5,2.2c0.1,1.3,0.5,2.4,0.1,2.7c-0.4,0.3-1.8-0.3-2.5-1.7    c-0.4-0.9-0.7-1.8-0.7-2.8c-0.1-1.8,0.3-3.5,1.3-5.1c0.9-1.5,2.3-2.7,4.2-3.5c1.6-0.7,3.2-0.9,4.8-0.8l1.6-4.2    c-6.9,1.3-11.7,3.9-14,7.8c-1.3,2.1-1.5,4.3-0.6,6.9c0.8,2.5,2.3,4.4,4.4,5.7c0.8,0.5,1.6,0.9,2.4,1.1l4-10.8    C82.6-16.2,80.9-15.4,80.1-13.7z"/>
		<path class="st1" d="M86.9-15.1l-3.6,9.8c1.5-0.1,3.9-2.5,4.8-4.2C89.1-11.5,88.5-13.8,86.9-15.1z"/>
		<path class="st1" d="M145.5-23.1L133.8-5c1.7-0.1,3.9,1,5.6,2.9c0.6,0.7,1.1,1.4,1.5,2.1h15c1.7-2.6,3.4-5.3,4.8-7.5L145.5-23.1z"/>
		<polygon class="st1" points="157.5,0 167.9,0 161.7,-6.5   "/>
		<path class="st2" d="M131.8-197c-0.6-0.2-15.4-6.5-24.4-10.3l0,0l-1.9-0.8c-2.9-1.2-4.8-2-4.8-2v0l-0.9-0.4l-4.7,26.4l7.6,3.2l0,0    l22,9.3c-1.6,1-2.9,3.3-3.3,6c-0.6,4,1,7.5,3.5,7.8c2.5,0.3,5-2.6,5.5-6.6c0.5-3.6-0.7-6.8-2.8-7.6c-0.6-0.2-15.8-6.7-24.7-10.5    l4.1-23.4l21.7,9.2c-1.6,1-2.9,3.3-3.3,6c-0.6,4,1,7.5,3.5,7.9c2.5,0.3,5-2.6,5.5-6.6C135.1-193,133.8-196.2,131.8-197z"/>
		<path class="st2" d="M17.1-70.6C15.8-72,13.4-73,10.6-73c-4,0-7.3,2.1-7.2,4.7c0,2.5,3.3,4.6,7.3,4.5c3.6,0,6.6-1.7,7.1-3.9    c0.2-0.6,4.2-16.2,6.6-25.7l0,0l0.3-1.1c0.9-3.6,1.6-6,1.6-6l0,0l0.2-0.9l-24.6-0.7v8.1l21,0.6L17.1-70.6z"/>
		<path class="st2" d="M241.4-94.1L241.4-94.1l-6,23.1c-1.2-1.4-3.7-2.4-6.4-2.4c-4,0-7.3,2.1-7.2,4.7c0,2.5,3.3,4.6,7.3,4.5    c3.6,0,6.6-1.7,7.2-3.9c0.2-0.6,4.3-16.6,6.7-26l2.7,0.1v-8.1l-2.2-0.1L241.4-94.1z"/>
		<path class="st2" d="M149.2-223.4c2.5,2.7,5.9,3.7,7.6,2.1c1.7-1.6,1.1-5-1.4-7.8c-1.7-1.9-3.9-2.9-5.6-2.9l7.6-11.8h-1.6    c-4.1,6.3-8.2,12.7-8.4,13C146.3-228.9,147-225.9,149.2-223.4z"/>
		<path class="st2" d="M163.3-214c-1.1,1.7-0.4,4.8,1.8,7.3c2.5,2.7,5.9,3.7,7.6,2.1c1.7-1.6,1.1-5-1.4-7.8    c-1.7-1.9-3.9-2.9-5.6-2.9l11.9-18.4l0,0l4.1-6.4l-3.5-3.6h-10.3l8.7,9C171.8-227.2,163.6-214.5,163.3-214z"/>
		<path class="st2" d="M140.7-238.1c1.3-1.2,1.3-3.4,0.1-5.6h-9.8c0.4,1.2,1,2.4,2,3.5C135.6-237.4,139-236.5,140.7-238.1z"/>
		<path class="st2" d="M148.2-29.8L148.2-29.8c0,0-0.1,0.1-0.2,0.3l-3.5,5.4v0c-4.9,7.5-12.9,19.9-13.2,20.4c-0.6,1-0.7,2.3-0.2,3.8    h9.8c-0.4-0.7-0.9-1.5-1.5-2.1c-1.7-1.9-3.9-2.9-5.6-2.9l11.7-18.1l15.2,15.7c-1.4,2.2-3.1,4.8-4.8,7.5h1.6l4.2-6.5l6.3,6.5h10.3    l-29.6-30.5L148.2-29.8z"/>
		<path class="st2" d="M84.6-146.5c2.1-0.7,4.2-3,5.3-6c1.7-4.4,0.8-8.8-2-9.9c-2.8-1.1-6.4,1.7-8,6.1c-1.5,4-0.9,7.9,1.2,9.5    c0.6,0.4,16.2,11.7,25.5,18.4l-10.7,25.3l-22.4-16.2c2.1-0.7,4.2-3,5.3-6c1.7-4.4,0.8-8.8-2-9.9c-2.8-1.1-6.4,1.7-8,6.1    c-1.5,4-0.9,7.9,1.2,9.5c0.6,0.4,16,11.6,25.3,18.2L84.5-75.9L62.1-92c2.1-0.7,4.2-3,5.3-6c1.7-4.4,0.8-8.8-2-9.9    c-2.8-1.1-6.4,1.7-8,6.1c-1.5,4-0.9,7.9,1.2,9.5c0.8,0.6,32.1,23.2,32.1,23.2l0,0l0.9,0.6l23.5-55.9l-7.4-5.3L84.6-146.5z"/>
		<path class="st2" d="M13.5-231.8c-3.4,3.4-4.4,7.8-2.3,10c2.1,2.1,6.6,1.1,10-2.2c3.1-3,4.2-6.9,2.9-9.3    c-0.2-0.3-2.7-4.8-5.9-10.4h-2l4.9,8.6C18.7-235.3,15.8-234.1,13.5-231.8z"/>
		<path class="st2" d="M2.1-212.6c0,0-0.1-0.1-0.2-0.3v5.6C2.8-209.2,2.9-211.2,2.1-212.6z"/>
		<path class="st2" d="M6.8-19.7L6.8-19.7c-0.9-1.5-1.6-2.7-2-3.6l-1.3-2.3l-1.5,1.4v4.1l1.8-1.6l1.8,3.1l-3.5,3.3v4.1L7-15.8L16,0    h2c-3.3-5.8-7.3-12.9-10.2-17.9L6.8-19.7z"/>
		<path class="st2" d="M228.6-239.1L228.6-239.1l14.1,24.7c-2.2-0.2-5.1,1-7.5,3.3c-3.4,3.4-4.4,7.8-2.3,10c2.1,2.1,6.6,1.1,10-2.2    c1.2-1.2,2.1-2.6,2.7-3.9v-5.6c-1.3-2.2-10.3-18-15.7-27.5l3.6-3.4h-4.5l-0.7,0.7c-0.1-0.2-0.3-0.4-0.4-0.7H226l2.4,4.1    L228.6-239.1z"/>
		<path class="st2" d="M245.6-20v-4.1L223.7-4l0.6,1L226,0h2.1c-0.6-1-1.1-1.9-1.4-2.5L245.6-20z"/>
		<polygon class="st2" points="229.1,0 233.6,0 245.6,-11.1 245.6,-15.2   "/>
		<path class="st2" d="M2.5-144.2c-0.3,0.6,0.3,1.1,0.8,0.5c6.9-9-3.2-10.4,0.9-20.6c0.8,7.1,8.6,7.9,4.6,15.3    c-0.3,0.6,0.3,1.1,0.8,0.5c7-9.1-3.5-10.4,1-21c0.8-1.8,0-2.5,0-2.5l0,0l-4.4,3.5l-1.9,1.5c0,0,0,0,0,0l-2.2,1.7v13.5    C3.5-150,4.5-148,2.5-144.2z"/>
		<path class="st2" d="M216.8-154.2c-4.3-3.2-9.4-3.6-11.3-0.9c-2,2.7-0.2,7.4,4.1,10.6c3.8,2.9,8.3,3.4,10.7,1.6    c0.6-0.5,12.6-9.9,21.3-16.9c0.3,3.7,2.5,5.7,4.1,7.8v-13.5l-23.9,18.9C221.6-149.1,219.8-152,216.8-154.2z"/>
		<path class="st2" d="M194-191c-1.4-5.1,0.1-9.9,3.3-10.8c3.2-0.9,6.9,2.5,8.3,7.6c1.4,5.1-0.1,9.9-3.3,10.8    C199.1-182.5,195.4-185.9,194-191z M197.1-187.9c1.6,0.9,4-0.5,5.5-3.1c1.5-2.6,1.4-5.4-0.2-6.3c-1.6-0.9-4,0.5-5.5,3.1    C195.5-191.6,195.5-188.8,197.1-187.9z"/>
		<path class="st2" d="M52.6-48.7c1.8,6.6-0.1,12.8-4.2,14c-4.1,1.1-9-3.3-10.8-9.8c-1.8-6.6,0.1-12.8,4.2-14    C46-59.7,50.8-55.3,52.6-48.7z M48.6-52.8c-2-1.2-5.2,0.6-7.2,4c-1.9,3.4-1.8,7,0.2,8.2c2,1.2,5.2-0.6,7.2-4    C50.7-47.9,50.6-51.6,48.6-52.8z"/>
		<path class="st2" d="M45.1-188.7c0-4.3,5.5-7.8,12.3-7.8c6.8,0,12.3,3.5,12.3,7.8c0,4.3-5.5,7.8-12.3,7.8    C50.7-180.9,45.1-184.4,45.1-188.7z M54.5-185.7c2.7,2.7,6.3,3.6,8,1.9c1.7-1.7,0.8-5.2-1.9-8c-2.7-2.7-6.3-3.6-8-1.9    C50.9-192,51.7-188.4,54.5-185.7z"/>
		<path class="st2" d="M208.8-49.5c0.2,1,0.2,2,0.1,3c-0.2,1.2-0.6,2.3-1.2,3.4c-1.1,1.9-2.6,3.3-4.5,4.2c-2.2,1-4.3,0.9-6.3-0.2    c-1.3-0.7-2.3-1.8-2.9-3.2c-0.7-1.6-0.6-3.1,0.1-4.4c0.7-1.3,1.8-2.1,3.3-2.4c1.3-0.3,2.6-0.1,3.9,0.7c1.3,0.8,2.2,1.8,2.4,3.1    c0.1,0.7,0.1,1.4,0,2.1c0.6-0.4,1-0.9,1.4-1.6c0.9-1.5,1-3,0.3-4.5c-0.6-1.4-1.7-2.6-3.3-3.5c-1.2-0.7-2.7-1.3-4.5-1.8    c-1.3-0.4-2.7-0.8-4.1-1.2c-0.4,1.2-0.9,2.4-1.6,3.6c-2.1,3.6-5.5,5.9-10.2,6.7c-4.4,0.8-8.5,0.1-12.2-1.9c-3.2-1.8-5.9-4.9-8-9.2    c-1.1-2.3-2.4-6-3.8-11c-4-1.2-6.6-2.2-8-3c-2.9-1.6-5.1-3.2-6.6-4.7c-2-2-3.4-4.3-4.2-7c-0.3-1.1-0.3-1.9,0-2.5    c0.9-1.6,3.3-1.9,7.3-1c3,0.7,5.3,1.5,7.1,2.5c3,1.7,5.6,3.9,7.7,6.5c2.1,2.6,3.6,5.5,4.4,8.6l6.3,2.1c0.2-0.4,0.3-0.7,0.5-1    c1.5-2.7,3.9-4.3,7.2-4.8c2.9-0.4,5.8,0.1,8.5,1.7c2.2,1.2,3.9,3,4.9,5.1c1,2,1.4,4.2,1.1,6.4l5.2,1.6c2.3,0.8,4.2,1.6,5.7,2.5    C207.1-53.8,208.3-52,208.8-49.5z M157.2-70.9c-0.4-1.9-1.2-3.8-2.3-5.7c-1.4-2.3-3-4-4.8-5c-2.1-1.2-2.9-0.5-3.3,0.3    c-0.1,0.2-0.2,0.4-0.2,0.6c-0.1,0.7,0.2,2.1,2.4,4.4c1.8,1.8,3.6,3.3,5.4,4.3C155.4-71.5,156.4-71.1,157.2-70.9z M179.6-63.7    l11,3.6c-0.1-1.7-2.9-4.2-4.9-5.2C183.6-66.3,181-65.6,179.6-63.7z M190.8-56.8l-12.2-4.1c-0.1,1.9,1,3.8,2.8,4.7    c0.9,0.4,1.7,0.6,2.5,0.5c1.4-0.2,2.6-0.7,3-0.2c0.4,0.5-0.2,2-1.8,2.8c-1,0.5-2,0.8-3,0.9c-2,0.2-3.9-0.2-5.7-1.2    c-1.7-1-3.1-2.5-4-4.5c-0.8-1.7-1.1-3.5-1-5.3l-4.7-1.6c1.7,7.7,4.8,12.8,9.2,15.3c2.3,1.3,4.9,1.5,7.7,0.4c2.7-1,4.8-2.7,6.2-5.1    C190.3-55.1,190.6-56,190.8-56.8z"/>
		<path class="st2" d="M63.9-238.5c0.7,1.7,1.9,3.2,3.6,4.2c1,0.6,2,1,3,1.2c0.9,0.1,1.8,0.2,2.7,0c2.2-0.3,3.9-1.4,4.9-3.1    c0.8-1.3,1.6-3,2.4-5l0.8-2.4h-2.9c-0.1,0.3-0.2,0.6-0.3,0.9c-0.6,1.6-1.2,2.9-1.8,4c-0.9,1.4-2,2.4-3.2,2.8    c-1.4,0.5-2.7,0.4-4-0.4c-0.6-0.4-1-0.8-1.4-1.3c0.6,0.2,1.2,0.2,1.9,0.1c1.2-0.2,2.2-0.9,2.9-2.1c0.7-1.1,0.9-2.3,0.7-3.5    c0-0.1-0.1-0.3-0.1-0.4h-9.1C63.2-242.1,63.1-240.3,63.9-238.5z"/>
		<path class="st2" d="M71.2-2.6c-1.2-0.7-2.5-0.8-4-0.3c-1.3,0.5-2.3,1.3-3,2.5c-0.1,0.1-0.1,0.3-0.2,0.4h9.1    C72.9-1.1,72.2-2,71.2-2.6z"/>
		<path class="st2" d="M82.1-2.1L81.4,0h-2.9c0.3-0.9,0.6-1.8,0.9-2.8c-1-0.4-2.1-0.9-3.2-1.5c-3.2-1.9-5.1-5.1-5.7-9.3    c-0.6-4,0.1-7.7,2.1-10.9c1.7-2.8,4.6-5.2,8.5-6.9c2.1-0.9,5.5-2,10-3.1c1.2-3.5,2.1-5.8,2.9-7.1c1.5-2.5,3-4.4,4.4-5.7    c1.8-1.7,4-2.9,6.4-3.5c1-0.2,1.7-0.2,2.2,0.1c1.4,0.9,1.6,3,0.7,6.6c-0.7,2.6-1.5,4.8-2.5,6.3c-1.6,2.7-3.7,4.9-6.1,6.8    c-2.4,1.8-5.1,3.1-7.9,3.7l-2,5.6c0.3,0.1,0.6,0.3,0.9,0.5c2.4,1.5,3.8,3.7,4.1,6.6c0.3,2.6-0.3,5.2-1.7,7.6    c-1.2,1.9-2.8,3.4-4.7,4.3C86-2.1,84.1-1.8,82.1-2.1z M94-35c1.7-0.3,3.4-0.9,5.1-1.9c2.1-1.2,3.7-2.6,4.6-4.1    c1.1-1.9,0.6-2.6-0.1-3c-0.2-0.1-0.3-0.2-0.5-0.2c-0.7-0.1-1.9,0.1-4,2c-1.7,1.5-3.1,3.1-4.1,4.7C94.5-36.6,94.2-35.8,94-35z     M86.9-15.1l-3.6,9.8c1.5-0.1,3.9-2.5,4.8-4.2C89.1-11.5,88.5-13.8,86.9-15.1z M80.3-5.3l4-10.8c-1.7-0.1-3.4,0.8-4.3,2.4    c-0.4,0.8-0.6,1.5-0.5,2.2c0.1,1.3,0.5,2.4,0.1,2.7c-0.4,0.3-1.8-0.3-2.5-1.7c-0.4-0.9-0.7-1.8-0.7-2.8c-0.1-1.8,0.3-3.5,1.3-5.1    c0.9-1.5,2.3-2.7,4.2-3.5c1.6-0.7,3.2-0.9,4.8-0.8l1.6-4.2c-6.9,1.3-11.7,3.9-14,7.8c-1.3,2.1-1.5,4.3-0.6,6.9    c0.8,2.5,2.3,4.4,4.4,5.7C78.8-5.9,79.6-5.5,80.3-5.3z"/>
		<path class="st2" d="M143.5-126.8c-1.6-1.8-1.2-5.4,0.9-8.6c2.4-3.5,6.1-5.1,8.3-3.6c2.2,1.5,2.1,5.6-0.3,9.1    c-1.7,2.4-3.9,3.9-5.9,4.2l16.2,18.8l14.9-20.2c-6.7-7.8-18.1-21-18.5-21.5c-1.6-1.8-1.2-5.4,0.9-8.6c2.4-3.5,6.1-5.1,8.3-3.6    c2.2,1.5,2.1,5.6-0.3,9.1c-1.6,2.4-3.9,3.9-5.9,4.2l17.7,20.6l0.5,0.6l0,0l2.1,2.4v0l1.8,2.1L167.5-99l-1.8-2.1l0,0    c-0.5-0.6-1.3-1.5-2.1-2.4v0l-1.8-2.1l0,0C155.1-113.4,143.9-126.3,143.5-126.8z M164.5-104.8l2.1,2.4l14.9-20.2    c-0.5-0.6-1.2-1.4-2.1-2.4L164.5-104.8z"/>
	</g>
</pattern>
<g id="background">
</g>
<g id="objects">
	<rect class="st3" width="800" height="736.5"/>
	<rect x="-5" y="-6" class="st4" width="812" height="749"/>
</g>
</svg>