<?xml version="1.0" encoding="utf-8"?>
<!-- Generator: Adobe Illustrator 23.0.2, SVG Export Plug-In . SVG Version: 6.00 Build 0)  -->
<svg version="1.1" id="Calque_1" xmlns="http://www.w3.org/2000/svg" xmlns:xlink="http://www.w3.org/1999/xlink" x="0px" y="0px"
	 viewBox="0 0 799.9 799.9" style="enable-background:new 0 0 799.9 799.9;" xml:space="preserve">
<style type="text/css">
	.st0{fill-rule:evenodd;clip-rule:evenodd;fill:#CCCCCC;}
	.st1{fill-rule:evenodd;clip-rule:evenodd;fill:#E4DDD7;}
	.st2{fill-rule:evenodd;clip-rule:evenodd;fill:#FFFFFF;}
	.st3{fill:#FFFFFF;}
	.st4{fill-rule:evenodd;clip-rule:evenodd;fill:#C3E691;}
	.st5{fill-rule:evenodd;clip-rule:evenodd;fill:#D4CBBA;}
	.st6{fill-rule:evenodd;clip-rule:evenodd;fill:#BCB6B1;}
	.st7{fill-rule:evenodd;clip-rule:evenodd;fill:#D2D2D2;}
	.st8{fill-rule:evenodd;clip-rule:evenodd;fill:#F1C85F;}
	.st9{fill:#9BD4D1;}
	.st10{fill:#A31F2F;}
</style>
<rect y="0" class="st0" width="799.9" height="799.9"/>
<rect y="0" class="st1" width="799.9" height="799.9"/>
<polygon class="st2" points="683,0 534.7,372 560.5,382.9 713.1,0 "/>
<path class="st3" d="M585.9,353.8c8,41.2,23.8,115.4,73.4,194.8c31.2,49.9,75.9,102,140.7,149.5v36.8
	c-77.8-53.3-130.2-113.1-166-170.3c-52.6-84-69.1-161.9-77.5-205.1L585.9,353.8z"/>
<polygon class="st2" points="799.9,138.5 0,783.5 0,799.9 24.2,799.9 799.9,174.4 "/>
<rect x="534.6" y="0" class="st2" width="28" height="799.9"/>
<rect y="345.1" class="st2" width="799.9" height="28"/>
<ellipse class="st2" cx="548.5" cy="359.1" rx="82.4" ry="82.7"/>
<ellipse class="st4" cx="548.5" cy="359.1" rx="55.5" ry="55.7"/>
<polygon class="st2" points="376.7,515.7 392.4,492.5 69.6,349.9 53.9,373.2 "/>
<polygon class="st2" points="88.6,752.7 104.3,729.5 0,663.3 0,696.5 "/>
<polygon class="st2" points="548.4,228.9 549.2,200.9 0,91.1 0,119.3 "/>
<polygon class="st2" points="0,319.1 155.2,146.2 144.6,120.2 0,281.4 "/>
<polygon class="st2" points="49.9,254.6 69.8,229.7 0,215.2 0,244.2 "/>
<polygon class="st2" points="0,6.1 4.5,0 0,0 "/>
<polygon class="st2" points="0,304.4 5.9,297 0,295.7 "/>
<polygon class="st2" points="230,149.7 253.4,162.9 399.5,0 364.4,0 "/>
<polygon class="st2" points="216.5,353.9 240.8,367.9 258.2,156.7 233.9,142.8 "/>
<polygon class="st2" points="254.4,250 252,218.7 54,218.7 24.4,250 "/>
<polygon class="st2" points="554.5,258.4 557.9,226.7 236.5,218.3 233,250 "/>
<polygon class="st2" points="305,364.9 335.8,359.3 334.7,241.8 303.9,250.8 "/>
<polygon class="st2" points="404.1,361.7 434.8,356.1 433.8,238.6 403,247.6 "/>
<polygon class="st2" points="308.7,87.9 328.7,63 0,7.6 0,35.8 "/>
<polygon class="st2" points="190,47.9 219.4,58.5 252.4,0 217,0 "/>
<polygon class="st2" points="554.9,645.9 553.7,617.9 271.5,577.5 272.7,605.5 "/>
<polygon class="st2" points="558.1,748.5 556.9,720.5 159.6,667.2 160.8,695.3 "/>
<polygon class="st2" points="234.3,695.9 269.6,706.3 380,606.5 344.7,596.1 "/>
<polygon class="st2" points="646.6,569.8 675.5,583.1 799.9,372.1 799.9,365.9 773.9,353.9 "/>
<polygon class="st2" points="684.5,799.9 667.1,562 636.3,564.9 653.7,799.9 "/>
<polygon class="st2" points="670,748.5 668.8,720.5 549.5,724.9 550.7,753 "/>
<polygon class="st2" points="660.4,589.3 659.2,550.3 543.1,606.4 544.3,645.4 "/>
<polygon class="st2" points="246.6,799.9 274.5,703.6 246.7,691.5 215.3,799.9 "/>
<polygon class="st2" points="553.6,517.5 561,486.7 364,486.6 360,517.6 "/>
<polygon class="st2" points="663.6,82.1 665.2,113.4 799.9,123.7 799.9,95.2 "/>
<polygon class="st2" points="726.5,96.5 761.8,106.9 799.9,28.6 799.9,0 773.5,0 "/>
<polygon class="st2" points="612.4,194.3 614,225.6 730.3,220.2 754.2,194.8 "/>
<polygon class="st4" points="272.4,599.8 325.9,613.1 252.3,679.6 184.6,670.6 "/>
<polygon class="st4" points="62.1,250 0,319.1 0,345.1 217.3,345.1 225.2,248.4 "/>
<polygon class="st5" points="334.8,252.7 335.6,345.1 403.9,345.1 403,254.5 "/>
<polygon class="st5" points="713.1,0 679.8,83.6 730.3,88.5 773.5,0 "/>
<polygon class="st5" points="123.4,143.9 87.6,183.8 0,165.7 0,162.2 27.6,124.8 "/>
<polygon class="st2" points="799.9,480 733.5,441.1 720,465.6 799.9,512.4 "/>
<polygon class="st2" points="740.2,679.6 763.5,695 799.9,625.9 799.9,566.1 "/>
<polygon class="st2" points="799.9,596.5 793.4,606.6 799.9,611.1 "/>
<path class="st4" d="M799.9,625.9l-27,51.3c0,0,10.9,9.1,20.4,16.1c2.1,1.6,4.4,3.2,6.6,4.9V625.9z"/>
<polygon class="st5" points="269.4,144.9 332.4,74.8 446.2,96.6 403.5,171.7 "/>
<polygon class="st5" points="534.2,226.1 253.1,218.7 257,170.7 "/>
<path class="st6" d="M501.2,531.6c-57.8,0-117.5,17.9-133.3,40c-13.7,19.1,9.7,35,53.5,39.1c5.6,0.5,4,2.2,3,4.6L400,672.8
	l57.2-56.7c2.3-2.3,4-4.9,10-5.4c49.7-4,96.2-20,109.9-39.1C593,549.5,559,531.6,501.2,531.6z"/>
<path class="st7" d="M562.5,584.4v-43.1c-7.4-3.2-16.8-5.7-28-7.4v63.3C545.4,593.5,555,589.1,562.5,584.4z"/>
<path class="st7" d="M487.5,608.4l-120.4-17.2c7.3,9.8,26.8,17,54.2,19.5c5.6,0.5,4,2.2,3,4.6l-4.8,11.3l23.6,3.4l14-13.8
	c2.3-2.3,4-4.9,10-5.4C474,610.2,480.9,609.4,487.5,608.4z"/>
<path class="st8" d="M400,173.1c-78.2,0-141.7,63.4-141.7,141.7c0,67.5,47.2,124,110.4,138.2c8.1,1.8,7.5,7.8,8.5,16.2L400,672.8
	l22.5-200.6c0.9-8.2,0.6-17.3,8.3-19c63.5-14,110.9-70.6,110.9-138.3C541.6,236.6,478.2,173.1,400,173.1z"/>
<path class="st2" d="M400,439.3c68.6,0,124.5-55.9,124.5-124.5S468.6,190.3,400,190.3s-124.5,55.9-124.5,124.5
	C275.4,383.4,331.4,439.3,400,439.3z"/>
<polygon class="st2" points="0,630.6 0,663.7 289.4,467.7 278.9,441.8 "/>
<path class="st2" d="M242.8,643.6c15.2,29.1,32.2,57.4,45.5,87.2c10.2,22.8,19.2,45.9,27.2,69.2h-160c2-6.8,3.8-13.5,5.3-20.2
	c7.1-30.8,12.2-75.2-0.7-109.1C119.3,604.2,67.7,545.1,6.6,495.5L0,386.9c91.1,61.6,167.6,139.7,226.7,230.6l3.9-0.9l12,26.5
	C242.7,643.3,242.7,643.4,242.8,643.6z"/>
<path class="st9" d="M216.2,650.7c0.2,0.4,0.4,0.8,0.5,1.2c17,28.2,32,57.1,45,86.3c9.1,20.5,17.3,41.1,24.5,61.8h-34.7
	c-5.9-16.6-12.4-33.2-19.6-49.6c-1,16.6-3.3,33.3-6.8,49.6h-38c0.8-3.1,1.6-6.1,2.3-9.2c10.4-45,11.7-92.3-3.4-128.8
	C140.9,587.8,80.9,518.6,4.4,460.4l-2.4-40c91.5,65.1,162.1,144.7,214,230.3H216.2z"/>
<g>
	<path class="st10" d="M394.5,231.5c20,0,35.2,4.1,45.6,12.4c10.4,8.3,15.6,19.3,15.6,33.2c0,8.3-2.2,15.4-6.6,21.2
		c-4.4,5.8-9.7,10.2-15.8,13.2c3.7,1.4,7,3.1,10.2,5.2s5.9,4.7,8.3,7.8c2.4,3.1,4.3,6.8,5.7,11c1.4,4.2,2.1,9,2.1,14.6
		c0,7.5-1.6,14.2-4.8,20.1c-3.2,5.9-7.7,11-13.4,15.1c-5.7,4.2-12.6,7.3-20.5,9.5c-7.9,2.2-16.6,3.3-25.9,3.3
		c-18.1,0-31.7-2.5-40.9-7.6c-9.2-5-13.8-11.5-13.8-19.3c0-4.7,1.1-8.7,3.4-12.1c2.3-3.4,5-6,8.3-8c3.5,2.4,8.1,5,13.9,7.7
		c5.8,2.7,13.4,4,22.8,4c8.9,0,15.4-1.6,19.7-4.7c4.3-3.1,6.4-7.2,6.4-12.3c0-5-1.7-8.9-5.1-11.5c-3.4-2.6-9.3-3.9-17.6-3.9h-24.5
		c-1.2-1.9-2.3-4.3-3.1-7c-0.9-2.8-1.3-6.1-1.3-9.9c0-4,0.4-7.4,1.2-10.3s1.9-5.3,3.3-7.2h24.5c12.5,0,18.8-4.8,18.8-14.3
		c0-4.5-2-8.2-6-11c-4-2.8-10-4.2-18-4.2c-7.1,0-13.4,0.8-18.8,2.5c-5.4,1.7-9.8,3.7-13.3,6.1c-3-2.1-5.4-4.6-7.3-7.7
		c-1.9-3-2.9-6.6-2.9-10.8c0-8.7,4.5-15.1,13.6-19.2C367.3,233.5,379.4,231.5,394.5,231.5z"/>
</g>
</svg>
