<svg version="1.1" xmlns="http://www.w3.org/2000/svg" xmlns:xlink="http://www.w3.org/1999/xlink" x="0px" y="0px" viewBox="0 0 1200 1200" xml:space="preserve"><style type="text/css">
	.st0{fill:#F1C85F;}
	.st1{fill:#3994BC;}
	.st2{opacity:0.8;fill:#23728E;}
	.st3{fill:#F0B93B;}
	.st4{opacity:0.5;fill:#C18D25;}
	.st5{fill:#020202;}
	.st6{fill:#F5F9F8;}
	.st7{fill:#FCB645;}
	.st8{fill:#FFFFFF;}
	.st9{fill:#3A2B16;}
	.st10{fill:#9B9792;}
	.st11{fill:#68645F;}
	.st12{fill:#63615E;}
	.st13{fill:#C1C0BF;}
	.st14{fill:#81D3D9;}
	.st15{fill:#F9F7F4;}
	.st16{fill:#CECBC6;}
	.st17{fill:#B5B2AE;}
	.st18{fill:#59A8AA;}
	.st19{fill:#F8EDD6;}
	.st20{fill:#BCB5A7;}
	.st21{opacity:0.5;fill:#C1B49D;}
	.st22{fill:#E5D5B7;}
	.st23{fill:#AF5E1D;}
	.st24{fill:#DB5D2F;}
	.st25{fill:#A53F20;}
	.st26{opacity:0.7;fill:#A53F20;}
	.st27{fill:#DDDCDB;}
	.st28{fill:#BCB9B7;}
	.st29{opacity:0.5;fill:#A09E9D;}
	.st30{fill:#C9C8C7;}
	.st31{fill:#A0938A;}
	.st32{fill:#BCB3AD;}
	.st33{fill:#7A7978;}
	.st34{fill:#277D9B;}
	.st35{fill:#C1850E;}
	.st36{fill:#8DCEE0;}
	.st37{fill:#3C6670;}
	.st38{opacity:0.6;fill:#66B3B5;}
</style><rect class="st0" width="1200" height="1200"/><path class="st1" d="M419.2 516.1c0 0-12.7 10-23.1-1.3 -10.5-11.3-24.2-38.2-21.6-53.4 2.5-15.2-6.1-47.9-27-17.2 -20.9 30.7-21.5 82.2-0.9 117.1 20.6 34.9 10.3 46.6 1.6 63.1C339.4 641 268 757.8 379.8 783c0 0 64.9 12.9 122.8-2.3 0 0 90.4-25.5 31.6-134.1 0 0-13.4-10-1.8-54.7 13.5-52.3-5.6-91.9-18.9-86.1 -16.6 7.3 4.5 26.7-26.4 35.6 -26.3 7.6-30.3-7.4-28.5-20.1l0.9-16.3h-40.3L419.2 516.1z"/><path class="st2" d="M534.2 646.7c0 0-3.8-2.9-5.6-12.4 -26.3 57.6-83 128-201.4 116.7 9 14.3 25.4 25.9 52.7 32.1 0 0 64.9 12.9 122.8-2.3C502.6 780.8 593 755.3 534.2 646.7z"/><path class="st3" d="M268.4 661.6c0 0-14.5-33.1-15.9-36.2 -1.4-3.1-0.5-1-0.5-1s-11.4-21.9-1.7-46.2c0 0 33.8-66.2 1.7-85.4 0 0-15-6.7-18.4 18.8 0 0-13.7 41.9-52.5 17.9l-1.4-1.2v14h-40.6v-49.8l-0.2-0.1c0 0-2.6 10.5-14.3 10.5 -11.7 0-30.8 1.2-35-22.6 -2.9-16.6 2.9-37.4-9.5-36.2 -12.4 1.2-31.6 19.2-20.6 82.6 3.7 21.2 24.4 39.2 10 85.7L52 654.5c0 0-72.4 138.8 109.5 139.7C161.5 794.2 334.8 814.4 268.4 661.6z"/><path class="st4" d="M268.4 661.6c0 0-14.5-33.1-15.9-36.2 -1.4-3.1-0.5-1-0.5-1s-0.6-1.2-1.5-3.4c-12.1 63.7-50.1 159.3-169.3 158.6 18.6 8.8 44.5 14.3 80.3 14.5C161.5 794.2 334.8 814.4 268.4 661.6z"/><path class="st5" d="M160.7 38.3c-1.6-1.3-2.7-0.8-3.4 0.4l-3.7 6.5c-0.7 1.3-0.6 2.4 1.3 3.2l6 2.2c1.2 0.5 2.5 0.1 3-0.8l2.6-4.5c0.5-0.9 0.2-2.2-0.8-3L160.7 38.3z"/><path class="st5" d="M162.4 44.5c-0.7-0.4-1.5-0.2-1.9 0.5l0 0c-0.4 0.7-0.2 1.5 0.5 1.9l7.3 4.2c0.7 0.4 1.5 0.2 1.9-0.5l0 0c0.4-0.7 0.2-1.5-0.5-1.9L162.4 44.5z"/><path class="st5" d="M154.3 54.5c-1.6-1.3-2.7-0.8-3.4 0.4l-3.7 6.5c-0.7 1.3-0.6 2.4 1.3 3.2l6 2.2c1.2 0.5 2.5 0.1 3-0.8l2.6-4.5c0.5-0.9 0.2-2.2-0.8-3L154.3 54.5z"/><path class="st5" d="M156 60.7c-0.7-0.4-1.5-0.2-1.9 0.5l0 0c-0.4 0.7-0.2 1.5 0.5 1.9l7.3 4.2c0.7 0.4 1.5 0.2 1.9-0.5l0 0c0.4-0.7 0.2-1.5-0.5-1.9L156 60.7z"/><path class="st5" d="M147.5 73.1c-1.6-1.3-2.7-0.8-3.4 0.4l-3.7 6.5c-0.7 1.3-0.6 2.4 1.3 3.2l6 2.2c1.2 0.5 2.5 0.1 3-0.8l2.6-4.5c0.5-0.9 0.2-2.2-0.8-3L147.5 73.1z"/><path class="st5" d="M149.3 79.2c-0.7-0.4-1.5-0.2-1.9 0.5l0 0c-0.4 0.7-0.2 1.5 0.5 1.9l7.3 4.2c0.7 0.4 1.5 0.2 1.9-0.5l0 0c0.4-0.7 0.2-1.5-0.5-1.9L149.3 79.2z"/><path class="st5" d="M140.3 89.7c-1.6-1.3-2.7-0.8-3.4 0.4l-3.7 6.5c-0.7 1.3-0.6 2.4 1.3 3.2l6 2.2c1.2 0.5 2.5 0.1 3-0.8l2.6-4.5c0.5-0.9 0.2-2.2-0.8-3L140.3 89.7z"/><path class="st5" d="M142 95.8c-0.7-0.4-1.5-0.2-1.9 0.5l0 0c-0.4 0.7-0.2 1.5 0.5 1.9l7.3 4.2c0.7 0.4 1.5 0.2 1.9-0.5l0 0c0.4-0.7 0.2-1.5-0.5-1.9L142 95.8z"/><path class="st5" d="M133.4 106.5c-1.6-1.3-2.7-0.8-3.4 0.4l-3.7 6.5c-0.7 1.3-0.6 2.4 1.3 3.2l6 2.2c1.2 0.5 2.5 0.1 3-0.8l2.6-4.5c0.5-0.9 0.2-2.2-0.8-3L133.4 106.5z"/><path class="st5" d="M135.1 112.6c-0.7-0.4-1.5-0.2-1.9 0.5l0 0c-0.4 0.7-0.2 1.5 0.5 1.9l7.3 4.2c0.7 0.4 1.5 0.2 1.9-0.5l0 0c0.4-0.7 0.2-1.5-0.5-1.9L135.1 112.6z"/><path class="st5" d="M127.5 124.3c-1.6-1.3-2.7-0.8-3.4 0.4l-3.7 6.5c-0.7 1.3-0.6 2.4 1.3 3.2l6 2.2c1.2 0.5 2.5 0.1 3-0.8l2.6-4.5c0.5-0.9 0.2-2.2-0.8-3L127.5 124.3z"/><path class="st5" d="M129.2 130.4c-0.7-0.4-1.5-0.2-1.9 0.5l0 0c-0.4 0.7-0.2 1.5 0.5 1.9l7.3 4.2c0.7 0.4 1.5 0.2 1.9-0.5l0 0c0.4-0.7 0.2-1.5-0.5-1.9L129.2 130.4z"/><rect x="139.1" y="180.6" class="st5" width="40.6" height="361.8"/><path class="st6" d="M235.2 633.3L235.2 633.3c0 0 0 0.1 0.1 0.1 1 2.2 7.9 23.7 15.8 35.9 53.8 83.1-64.8 131.2-29.9 80.3 35-51.1-70-37.8-103.4-39.5 -28.3-1.4-44-16.9-25.6-46.7 18.9-30.6 24.5-71.2 7.2-115.1 -18-45.8 39.7-26.5 39.7-26.5v20.5h40.6c0 0 26.3 14.3 43.1 0.5 13.9-11.4 20-21.8 19.2-29.2 -1.1-9.6 10.9-22.4 14.2-2.9 5.6 33.1-6.9 43.4-20 75.1C225.8 611 233.4 625.4 235.2 633.3z"/><path class="st7" d="M195.9 67.2c7.6-11.4-1.4-25.2-12.2-26.7 -10.8-1.5-15.8 7.5-15.8 7.5l-39.7 105.9c-5.3 10.3-1.7 15.3 3.6 18.2 3.6 2 6.2 6.2 7.5 8.7h40.5c-0.1-4.8 2.4-22.8 3.1-27.7 0.7-5.7 6.1-22.5 10.8-36.4 4.1-11.8-2.6-25.1-6.2-29.9 -3.6-4.8 0.5-9 0.5-9L195.9 67.2z"/><rect x="139" y="180.6" class="st8" width="40.6" height="4.1"/><path class="st5" d="M115.2 701.9v12.2c0 1.6 2.1 2.9 4.6 2.9h83.9c2.6 0 4.6-1.3 4.6-2.9v-12.2H115.2z"/><circle class="st5" cx="243.6" cy="727.5" r="6.8"/><circle class="st7" cx="243.6" cy="727.5" r="3.5"/><circle class="st5" cx="236.2" cy="747.5" r="6.8"/><circle class="st7" cx="236.2" cy="747.5" r="3.5"/><circle class="st5" cx="239.9" cy="706.2" r="6.8"/><circle class="st7" cx="239.9" cy="706.2" r="3.5"/><rect x="125.6" y="560.1" class="st5" width="67.8" height="27.4"/><rect x="125.6" y="619.7" class="st5" width="67.8" height="27.4"/><path class="st8" d="M187.6 573.8c0-4.9-3.6-8.9-8.1-8.9h-39.1c-4.5 0-8.1 4-8.1 8.9l0 0c0 4.9 3.6 8.9 8.1 8.9h39.1C184 582.7 187.6 578.7 187.6 573.8L187.6 573.8z"/><ellipse class="st9" cx="141.9" cy="578.8" rx="1.6" ry="1.7"/><ellipse class="st9" cx="148.9" cy="578.8" rx="1.6" ry="1.7"/><ellipse class="st9" cx="155.8" cy="578.8" rx="1.6" ry="1.7"/><ellipse class="st9" cx="162.8" cy="578.8" rx="1.6" ry="1.7"/><ellipse class="st9" cx="169.8" cy="578.8" rx="1.6" ry="1.7"/><ellipse class="st9" cx="176.8" cy="578.8" rx="1.6" ry="1.7"/><ellipse class="st9" cx="141.9" cy="569.8" rx="1.6" ry="1.7"/><ellipse class="st9" cx="148.9" cy="569.8" rx="1.6" ry="1.7"/><ellipse class="st9" cx="155.8" cy="569.8" rx="1.6" ry="1.7"/><ellipse class="st9" cx="162.8" cy="569.8" rx="1.6" ry="1.7"/><ellipse class="st9" cx="169.8" cy="569.8" rx="1.6" ry="1.7"/><ellipse class="st9" cx="176.8" cy="569.8" rx="1.6" ry="1.7"/><path class="st8" d="M187.6 633c0-4.9-3.6-8.9-8.1-8.9h-39.1c-4.5 0-8.1 4-8.1 8.9l0 0c0 4.9 3.6 8.9 8.1 8.9h39.1C184 641.9 187.6 637.9 187.6 633L187.6 633z"/><ellipse class="st5" cx="141.9" cy="637.9" rx="1.6" ry="1.7"/><ellipse class="st5" cx="148.9" cy="637.9" rx="1.6" ry="1.7"/><ellipse class="st5" cx="155.8" cy="637.9" rx="1.6" ry="1.7"/><ellipse class="st5" cx="162.8" cy="637.9" rx="1.6" ry="1.7"/><ellipse class="st5" cx="169.8" cy="637.9" rx="1.6" ry="1.7"/><ellipse class="st5" cx="176.8" cy="637.9" rx="1.6" ry="1.7"/><ellipse class="st5" cx="141.9" cy="628.9" rx="1.6" ry="1.7"/><ellipse class="st5" cx="148.9" cy="628.9" rx="1.6" ry="1.7"/><ellipse class="st5" cx="155.8" cy="628.9" rx="1.6" ry="1.7"/><ellipse class="st5" cx="162.8" cy="628.9" rx="1.6" ry="1.7"/><ellipse class="st5" cx="169.8" cy="628.9" rx="1.6" ry="1.7"/><ellipse class="st5" cx="176.8" cy="628.9" rx="1.6" ry="1.7"/><circle class="st8" cx="159.5" cy="265.9" r="2.3"/><circle class="st8" cx="159.5" cy="318.3" r="2.3"/><circle class="st8" cx="159.5" cy="365.6" r="2.3"/><circle class="st8" cx="159.5" cy="407.6" r="2.3"/><circle class="st8" cx="159.5" cy="509.5" r="2.3"/><circle class="st8" cx="149.3" cy="462.5" r="2.3"/><circle class="st8" cx="169.6" cy="462.5" r="2.3"/><rect x="139.1" y="222.8" class="st8" width="40.6" height="2.7"/><rect x="139.1" y="251.5" class="st8" width="40.6" height="2.7"/><rect x="139.1" y="279.6" class="st8" width="40.6" height="2.7"/><rect x="139.1" y="305.4" class="st8" width="40.6" height="2.7"/><rect x="139.1" y="329.8" class="st8" width="40.6" height="2.7"/><rect x="139.1" y="354" class="st8" width="40.6" height="2.7"/><rect x="139.1" y="376.1" class="st8" width="40.6" height="2.7"/><rect x="139.1" y="396.9" class="st8" width="40.6" height="2.7"/><rect x="139.1" y="416.5" class="st8" width="40.6" height="2.7"/><rect x="139.1" y="435.6" class="st8" width="40.6" height="2.7"/><rect x="139.1" y="453.6" class="st8" width="40.6" height="2.7"/><rect x="139.1" y="470.3" class="st8" width="40.6" height="2.7"/><rect x="139.1" y="486.4" class="st8" width="40.6" height="2.7"/><rect x="139.1" y="501" class="st8" width="40.6" height="2.7"/><rect x="139.1" y="516.1" class="st8" width="40.6" height="2.7"/><rect x="139.1" y="530.2" class="st8" width="40.6" height="2.7"/><rect x="141.2" y="135.5" class="st5" width="1.4" height="582.8"/><rect x="148.1" y="120.2" class="st5" width="1.4" height="598.1"/><rect x="155.1" y="103.4" class="st5" width="1.4" height="614.9"/><rect x="162" y="87.2" class="st5" width="1.4" height="631.1"/><rect x="168.9" y="68.8" class="st5" width="1.4" height="649.4"/><rect x="175.9" y="57.8" class="st5" width="1.4" height="660.5"/><rect x="129.1" y="706.8" class="st6" width="65.4" height="4.9"/><rect x="139.6" y="717" class="st5" width="5.3" height="2"/><rect x="146.3" y="717" class="st5" width="5.3" height="2"/><rect x="153.4" y="717" class="st5" width="5.3" height="2"/><rect x="160.2" y="717" class="st5" width="5.3" height="2"/><rect x="167.2" y="717" class="st5" width="5.3" height="2"/><rect x="174" y="717" class="st5" width="5.3" height="2"/><circle class="st6" cx="121.4" cy="709" r="2.6"/><circle class="st6" cx="201.3" cy="709" r="2.6"/><circle class="st6" cx="121.4" cy="709" r="2.6"/><circle class="st5" cx="121.4" cy="709" r="1.5"/><circle class="st6" cx="201.3" cy="709" r="2.6"/><circle class="st5" cx="201.3" cy="709" r="1.5"/><path class="st8" d="M176.6 49.2c-2.8 0-5.1 2.3-5.1 5.1 0 2.8 2.3 5.1 5.1 5.1 2.8 0 5.1-2.3 5.1-5.1C181.7 51.5 179.4 49.2 176.6 49.2z"/><path class="st8" d="M169.3 64c-2.8 0-5.1 2.3-5.1 5.1 0 2.8 2.3 5.1 5.1 5.1 2.8 0 5.1-2.3 5.1-5.1C174.4 66.3 172.1 64 169.3 64z"/><path class="st8" d="M162.4 82.6c-2.8 0-5.1 2.3-5.1 5.1 0 2.8 2.3 5.1 5.1 5.1 2.8 0 5.1-2.3 5.1-5.1C167.4 84.9 165.2 82.6 162.4 82.6z"/><path class="st8" d="M155.3 98.8c-2.8 0-5.1 2.3-5.1 5.1 0 2.8 2.3 5.1 5.1 5.1 2.8 0 5.1-2.3 5.1-5.1C160.4 101 158.1 98.8 155.3 98.8z"/><path class="st8" d="M148.8 115.9c-2.8 0-5.1 2.3-5.1 5.1 0 2.8 2.3 5.1 5.1 5.1 2.8 0 5.1-2.3 5.1-5.1C153.9 118.2 151.6 115.9 148.8 115.9z"/><path class="st8" d="M141.8 133.1c-2.8 0-5.1 2.3-5.1 5.1 0 2.8 2.3 5.1 5.1 5.1 2.8 0 5.1-2.3 5.1-5.1C146.9 135.4 144.6 133.1 141.8 133.1z"/><path class="st8" d="M176.6 49.2c-2.8 0-5.1 2.3-5.1 5.1 0 2.8 2.3 5.1 5.1 5.1 2.8 0 5.1-2.3 5.1-5.1C181.7 51.5 179.4 49.2 176.6 49.2z"/><circle class="st5" cx="176.6" cy="54.3" r="1.9"/><path class="st8" d="M169.3 64c-2.8 0-5.1 2.3-5.1 5.1 0 2.8 2.3 5.1 5.1 5.1 2.8 0 5.1-2.3 5.1-5.1C174.4 66.3 172.1 64 169.3 64z"/><circle class="st5" cx="169.3" cy="69.1" r="1.9"/><path class="st8" d="M162.4 82.6c-2.8 0-5.1 2.3-5.1 5.1 0 2.8 2.3 5.1 5.1 5.1 2.8 0 5.1-2.3 5.1-5.1C167.4 84.9 165.2 82.6 162.4 82.6z"/><circle class="st5" cx="162.4" cy="87.7" r="1.9"/><path class="st8" d="M155.3 98.8c-2.8 0-5.1 2.3-5.1 5.1 0 2.8 2.3 5.1 5.1 5.1 2.8 0 5.1-2.3 5.1-5.1C160.4 101 158.1 98.8 155.3 98.8z"/><circle class="st5" cx="155.3" cy="103.8" r="1.9"/><path class="st8" d="M148.8 115.9c-2.8 0-5.1 2.3-5.1 5.1 0 2.8 2.3 5.1 5.1 5.1 2.8 0 5.1-2.3 5.1-5.1C153.9 118.2 151.6 115.9 148.8 115.9z"/><circle class="st5" cx="148.8" cy="121" r="1.9"/><path class="st8" d="M141.8 133.1c-2.8 0-5.1 2.3-5.1 5.1 0 2.8 2.3 5.1 5.1 5.1 2.8 0 5.1-2.3 5.1-5.1C146.9 135.4 144.6 133.1 141.8 133.1z"/><circle class="st5" cx="141.8" cy="138.2" r="1.9"/><path class="st5" d="M434.7 53.3c-2.8 0.4-2.1 2.8-3.2 3.7 -1.1 0.8-2.6 0.3-3.7 3.1l0 0c0 0 0 0 0 0.1 0 0 0 0 0 0.1l0 0c-1.1 2.8 0.3 3.4 0.6 4.8 0.2 1.4-2 2.7-0.2 4.8 1.8 2.2 4.5 3.5 7.3 0.4 2.4-2.7 5.6-2.4 6.3-2.3l7.2 2.9 1.6-3.9 -7.1-2.8c-0.3-0.2-3.2-2.1-3.1-6.1C440.3 53.8 437.5 53 434.7 53.3z"/><path class="st5" d="M423 82.7c-2.8 0.4-2.1 2.8-3.2 3.7 -1.1 0.8-2.6 0.3-3.7 3.1l0 0c0 0 0 0 0 0.1 0 0 0 0 0 0.1l0 0c-1.1 2.9 0.3 3.4 0.6 4.8 0.2 1.4-2 2.7-0.2 4.8 1.8 2.2 4.5 3.5 7.3 0.4 2.4-2.7 5.6-2.4 6.3-2.3l7.2 2.9 1.6-3.9 -7.1-2.8c-0.3-0.2-3.2-2.1-3.1-6.1C428.7 83.2 425.8 82.4 423 82.7z"/><path class="st5" d="M412.1 110.7c-2.8 0.4-2.1 2.8-3.2 3.7 -1.1 0.8-2.6 0.3-3.7 3.1l0 0c0 0 0 0 0 0.1 0 0 0 0 0 0.1l0 0c-1.1 2.8 0.3 3.4 0.6 4.8 0.2 1.4-2 2.7-0.2 4.8 1.8 2.2 4.5 3.5 7.3 0.4 2.4-2.7 5.6-2.4 6.3-2.3l7.2 2.9 1.6-3.9 -7.1-2.8c-0.3-0.2-3.2-2.1-3.1-6.1C417.7 111.2 414.9 110.4 412.1 110.7z"/><path class="st5" d="M401.6 139.6c-2.8 0.4-2.1 2.8-3.2 3.7 -1.1 0.8-2.6 0.3-3.7 3.1l0 0c0 0 0 0 0 0.1 0 0 0 0 0 0.1l0 0c-1.1 2.8 0.3 3.4 0.6 4.8 0.2 1.4-2 2.7-0.2 4.8 1.8 2.2 4.5 3.5 7.3 0.4 2.4-2.7 5.6-2.4 6.3-2.3l7.2 2.9 1.6-3.9 -7.1-2.8c-0.3-0.2-3.2-2.1-3.1-6.1C407.3 140.1 404.5 139.3 401.6 139.6z"/><path class="st6" d="M421.4 534.6c0 0-15.6-4.5-27.9 5.9 -15.2 12.8-20.9 22.5 4.8 62.2 16.2 25-1.9 38.8-14.4 75.1 -22.8 66.6 146.1-13.5 116.1 66.5 -1.3 3.5-5.6 8.3-2.7 10.6 2.3 1.8 4.3 0 11.5-4.3 18.7-11.1 48.4-35.8 11.9-97.9 0 0-12.7-20.9 0.7-58.9 10.2-28.9 7.9-58.9-1.1-63.5 -5.5-2.9-7.2 10.8-23.7 17.8 -22.8 9.7-29.7 9.6-48.3-7.4C434 527.5 421.4 534.6 421.4 534.6z"/><rect x="419.1" y="186.7" class="st5" width="40.3" height="373.3"/><rect x="419.1" y="227.4" class="st8" width="40.3" height="3"/><rect x="419.1" y="186.7" class="st8" width="40.3" height="3"/><rect x="419.1" y="253.9" class="st8" width="40.3" height="3"/><rect x="419.1" y="281.4" class="st8" width="40.3" height="3"/><rect x="419.1" y="305.4" class="st8" width="40.3" height="3"/><rect x="419.1" y="329.9" class="st8" width="40.3" height="3"/><rect x="419.1" y="352.5" class="st8" width="40.3" height="3"/><rect x="419.1" y="373.1" class="st8" width="40.3" height="3"/><rect x="419.1" y="392.8" class="st8" width="40.3" height="3"/><rect x="419.1" y="411.8" class="st8" width="40.3" height="3"/><rect x="419.1" y="428.7" class="st8" width="40.3" height="3"/><rect x="419.1" y="445.9" class="st8" width="40.3" height="3"/><rect x="419.1" y="462.6" class="st8" width="40.3" height="3"/><rect x="419.1" y="477" class="st8" width="40.3" height="3"/><rect x="419.1" y="490.6" class="st8" width="40.3" height="3"/><rect x="419.1" y="504.9" class="st8" width="40.3" height="3"/><rect x="419.1" y="516.5" class="st8" width="40.3" height="3"/><rect x="419.1" y="528.9" class="st8" width="40.3" height="3"/><rect x="419.1" y="539.1" class="st8" width="40.3" height="3"/><rect x="419.1" y="550.1" class="st8" width="40.3" height="3"/><circle class="st8" cx="439.2" cy="268.6" r="2.6"/><circle class="st8" cx="439.2" cy="319.3" r="2.6"/><circle class="st8" cx="439.2" cy="363.5" r="2.6"/><circle class="st8" cx="439.2" cy="403.5" r="2.6"/><circle class="st8" cx="439.2" cy="498.9" r="2.6"/><circle class="st8" cx="439.2" cy="524.5" r="2.6"/><circle class="st8" cx="439.2" cy="546.3" r="2.6"/><circle class="st8" cx="430.7" cy="455.6" r="2.6"/><circle class="st8" cx="447.8" cy="455.6" r="2.6"/><circle class="st5" cx="509.5" cy="688.7" r="6.8"/><circle class="st1" cx="509.5" cy="688.7" r="3.5"/><circle class="st5" cx="516.2" cy="709.1" r="6.8"/><circle class="st1" cx="516.2" cy="709.1" r="3.5"/><circle class="st5" cx="513.9" cy="731.2" r="6.8"/><circle class="st1" cx="513.9" cy="731.2" r="3.5"/><path class="st1" d="M474.1 86.6c10.2-4.6 10.2-27.7-1.2-34.2 -13.1-6.4-21.1 2-29 22 -5.7 14.2-36.4 92.8-36.4 92.8s-0.9 3.8-0.9 5.2c0 1.6 2.6 4.2 2.6 4.2l10.6 13.3h39.6c0 0 0.5-11.6 2.6-14.3 7.5-9.7 20.9-21.3 14.3-44.6 -2.7-9.5-6.3-18.4-8.6-25.8l0.4 0.3C466.2 102.9 463.9 91.2 474.1 86.6z"/><path class="st5" d="M444.8 94c-3.2 0-5.8 2.6-5.8 5.8 0 3.2 2.6 5.8 5.8 5.8 3.2 0 5.8-2.6 5.8-5.8C450.6 96.6 448 94 444.8 94z"/><path class="st5" d="M456.7 65.1c-3.2 0-5.8 2.6-5.8 5.8 0 3.2 2.6 5.8 5.8 5.8 3.2 0 5.8-2.6 5.8-5.8C462.5 67.7 459.9 65.1 456.7 65.1z"/><circle class="st8" cx="456.7" cy="70.9" r="2.6"/><path class="st5" d="M397.5 744.8v-13.5c0-2.7 2.8-11.4 13.3-11.4h60.7c11.6 0 11.1 8.7 11.1 11.4v13.5H397.5z"/><rect x="392.4" y="744.5" class="st5" width="95.5" height="6.1"/><rect x="405.3" y="730.6" class="st6" width="69.6" height="7.7"/><path class="st5" d="M469.7 606.7c0-4.8-3.9-8.6-8.6-8.6h-42.3c-4.8 0-8.6 3.9-8.6 8.6v9.3c0 4.8 3.9 8.6 8.6 8.6h42.3c4.8 0 8.6-3.9 8.6-8.6V606.7z"/><circle class="st8" cx="423.2" cy="604.8" r="1.9"/><circle class="st8" cx="434.3" cy="604.8" r="1.9"/><circle class="st8" cx="445.4" cy="604.8" r="1.9"/><circle class="st8" cx="456.6" cy="604.8" r="1.9"/><circle class="st8" cx="423.2" cy="617.9" r="1.9"/><circle class="st8" cx="434.3" cy="617.9" r="1.9"/><circle class="st8" cx="445.4" cy="617.9" r="1.9"/><circle class="st8" cx="456.6" cy="617.9" r="1.9"/><path class="st5" d="M469.7 650.8c0-4.8-3.9-8.6-8.6-8.6h-42.3c-4.8 0-8.6 3.9-8.6 8.6v9.3c0 4.8 3.9 8.6 8.6 8.6h42.3c4.8 0 8.6-3.9 8.6-8.6V650.8z"/><circle class="st8" cx="423.2" cy="648.9" r="1.9"/><circle class="st8" cx="434.3" cy="648.9" r="1.9"/><circle class="st8" cx="445.4" cy="648.9" r="1.9"/><circle class="st8" cx="456.6" cy="648.9" r="1.9"/><circle class="st8" cx="423.2" cy="662" r="1.9"/><circle class="st8" cx="434.3" cy="662" r="1.9"/><circle class="st8" cx="445.4" cy="662" r="1.9"/><circle class="st8" cx="456.6" cy="662" r="1.9"/><rect x="422.4" y="158.4" class="st5" width="1.4" height="593.5"/><rect x="433.5" y="132" class="st5" width="1.4" height="619.9"/><rect x="444.7" y="103.5" class="st5" width="1.4" height="648.4"/><rect x="455.8" y="74.6" class="st5" width="1.4" height="677.3"/><path class="st5" d="M423 152.9c-3.2 0-5.8 2.6-5.8 5.8 0 3.2 2.6 5.8 5.8 5.8 3.2 0 5.8-2.6 5.8-5.8C428.8 155.5 426.2 152.9 423 152.9z"/><circle class="st8" cx="423" cy="158.7" r="2.6"/><path class="st5" d="M434.2 121.7c-3.2 0-5.8 2.6-5.8 5.8 0 3.2 2.6 5.8 5.8 5.8 3.2 0 5.8-2.6 5.8-5.8C440.1 124.3 437.4 121.7 434.2 121.7z"/><circle class="st8" cx="434.2" cy="127.5" r="2.6"/><path class="st5" d="M445.3 93.9c-3.2 0-5.8 2.6-5.8 5.8 0 3.2 2.6 5.8 5.8 5.8 3.2 0 5.8-2.6 5.8-5.8C451.1 96.5 448.5 93.9 445.3 93.9z"/><circle class="st8" cx="445.3" cy="99.7" r="2.6"/><path class="st5" d="M427.4 750.4c0-1.4-1.1-2.5-2.5-2.5h-3.5c-1.4 0-2.5 1.1-2.5 2.5l0 0c0 1.4 1.1 2.5 2.5 2.5h3.5C426.3 752.9 427.4 751.8 427.4 750.4L427.4 750.4z"/><path class="st5" d="M438.4 750.4c0-1.4-1.1-2.5-2.5-2.5h-3.5c-1.4 0-2.5 1.1-2.5 2.5l0 0c0 1.4 1.1 2.5 2.5 2.5h3.5C437.3 752.9 438.4 751.8 438.4 750.4L438.4 750.4z"/><path class="st5" d="M449.6 750.4c0-1.4-1.1-2.5-2.5-2.5h-3.5c-1.4 0-2.5 1.1-2.5 2.5l0 0c0 1.4 1.1 2.5 2.5 2.5h3.5C448.4 752.9 449.6 751.8 449.6 750.4L449.6 750.4z"/><path class="st5" d="M460.7 750.4c0-1.4-1.1-2.5-2.5-2.5h-3.5c-1.4 0-2.5 1.1-2.5 2.5l0 0c0 1.4 1.1 2.5 2.5 2.5h3.5C459.6 752.9 460.7 751.8 460.7 750.4L460.7 750.4z"/><path class="st10" d="M178.6 892.5c0-23.6-19.1-42.6-42.6-42.6 -23.6 0-42.6 19.1-42.6 42.6v36.3h85.3V892.5z"/><path class="st10" d="M178.6 892.5c0-23.6-19.1-42.6-42.6-42.6 -23.6 0-42.6 19.1-42.6 42.6v36.3h85.3V892.5z"/><path class="st11" d="M178.6 924.4c-1.5 2.6-3.4 3.5-5.7 2.8 -1.8-0.6-2.9-2.1-3-4 0-2 1.1-3.7 2.8-4.3 1.8-0.7 3.8-0.1 5 1.3 0.3 0.4 0.6 0.9 0.9 1.3C178.6 922.5 178.6 923.4 178.6 924.4z"/><path class="st11" d="M178.6 895c-1.5 2.6-3.4 3.5-5.7 2.8 -1.8-0.6-2.9-2.1-3-4 0-2 1.1-3.7 2.8-4.3 1.8-0.7 3.8-0.1 5 1.3 0.3 0.4 0.6 0.9 0.9 1.3C178.6 893 178.6 894 178.6 895z"/><path class="st11" d="M178.6 909.7c-1.5 2.6-3.4 3.5-5.7 2.8 -1.9-0.6-3-2.2-3-4.2 0-1.9 1.1-3.6 2.8-4.2 1.8-0.7 3.8-0.1 5.1 1.4 0.3 0.4 0.5 0.8 0.8 1.2C178.6 907.7 178.6 908.7 178.6 909.7z"/><path class="st11" d="M93.3 911.2c3.1 0.4 4.8 2.3 4.4 5.1 -0.3 2.2-2.1 3.7-4.4 3.7C93.3 917.1 93.3 914.1 93.3 911.2z"/><path class="st11" d="M93.3 896.5c3.1 0.4 4.8 2.3 4.4 5.1 -0.3 2.2-2.1 3.7-4.4 3.7C93.3 902.4 93.3 899.4 93.3 896.5z"/><path class="st11" d="M93.3 889.4c0.3-1.9 0.6-3.8 1-5.8 0.1-0.5 0.2-1 0.4-1.5 2.2 0.7 3.4 2.6 3.1 4.9 -0.3 2.1-2.1 3.6-4.4 3.6C93.3 890.2 93.3 889.8 93.3 889.4z"/><path class="st11" d="M134.5 850.1c-0.4 2.1-1.9 3.5-3.7 3.7 -2.1 0.2-3.8-0.7-4.6-2.6 2.1-0.4 4.2-0.7 6.3-1.1C133.2 850.1 133.8 850.1 134.5 850.1z"/><path class="st11" d="M93.3 925.9c2.4 0.3 3.8 1.3 4.1 3.2 -1.4 0-2.7 0-4.1 0C93.3 928 93.3 926.9 93.3 925.9z"/><path class="st11" d="M178.6 918.8c-1.8-1.9-1.8-4.6 0-6.1C178.6 914.7 178.6 916.7 178.6 918.8z"/><path class="st11" d="M178.6 904.1c-1.8-1.9-1.8-4.6 0-6.1C178.6 900 178.6 902 178.6 904.1z"/><path class="st11" d="M152.2 905.3c-2.5 0-4.4-1.9-4.4-4.4 0-2.4 2-4.4 4.5-4.4 2.4 0 4.5 2.1 4.5 4.5C156.7 903.4 154.7 905.3 152.2 905.3z"/><path class="st11" d="M152.2 890.6c-2.5 0-4.4-1.9-4.5-4.4 0-2.5 2-4.4 4.4-4.5 2.4 0 4.5 2 4.5 4.4C156.7 888.7 154.8 890.6 152.2 890.6z"/><path class="st11" d="M152.2 920c-2.5 0-4.4-1.9-4.5-4.4 0-2.5 2-4.4 4.4-4.5 2.4 0 4.5 2 4.5 4.4C156.7 918.1 154.8 920 152.2 920z"/><path class="st11" d="M152.2 875.9c-2.5 0-4.4-1.9-4.4-4.4 0-2.4 2.1-4.4 4.5-4.4 2.4 0 4.5 2.1 4.4 4.5C156.7 874 154.7 875.9 152.2 875.9z"/><path class="st11" d="M100.7 912.7c-2.5 0-4.3-1.9-4.3-4.4 0-2.5 2-4.5 4.4-4.5 2.4 0 4.4 2 4.4 4.5C105.1 910.8 103.2 912.7 100.7 912.7z"/><path class="st11" d="M137.5 905.3c-2.5 0-4.4-1.9-4.4-4.4 0-2.4 2-4.5 4.4-4.5 2.4 0 4.4 2 4.4 4.4C141.9 903.4 140 905.3 137.5 905.3z"/><path class="st11" d="M122.8 905.3c-2.5 0-4.4-1.9-4.4-4.4 0-2.4 2-4.4 4.3-4.4 2.4 0 4.4 1.9 4.5 4.4C127.2 903.4 125.3 905.3 122.8 905.3z"/><path class="st11" d="M108 905.3c-2.5 0-4.4-1.9-4.4-4.4 0-2.4 2.1-4.4 4.5-4.4 2.4 0 4.4 2 4.4 4.5C112.5 903.5 110.6 905.3 108 905.3z"/><path class="st11" d="M115.4 912.7c-2.5 0-4.4-1.9-4.4-4.4 0-2.4 2-4.4 4.4-4.4 2.4 0 4.4 2 4.4 4.4C119.9 910.8 117.9 912.7 115.4 912.7z"/><path class="st11" d="M130.1 912.7c-2.5 0-4.4-1.9-4.4-4.4 0-2.4 1.9-4.4 4.3-4.4 2.4 0 4.5 2 4.5 4.4C134.6 910.8 132.7 912.7 130.1 912.7z"/><path class="st11" d="M144.9 912.7c-2.5 0-4.4-1.9-4.4-4.4 0-2.4 2-4.4 4.4-4.5 2.4 0 4.4 2 4.4 4.4C149.3 910.8 147.4 912.7 144.9 912.7z"/><path class="st11" d="M144.9 898c-2.5 0-4.4-1.9-4.4-4.4 0-2.4 2-4.5 4.4-4.5 2.4 0 4.4 2 4.4 4.4C149.3 896.1 147.4 898 144.9 898z"/><path class="st11" d="M130.1 898c-2.5 0-4.4-2-4.4-4.5 0-2.4 2-4.4 4.4-4.4 2.4 0 4.4 2 4.4 4.5C134.5 896.1 132.6 898 130.1 898z"/><path class="st11" d="M115.4 898c-2.5 0-4.4-1.9-4.4-4.4 0-2.4 2-4.4 4.4-4.4 2.4 0 4.4 2 4.4 4.5C119.8 896.1 117.9 898 115.4 898z"/><path class="st11" d="M100.7 898c-2.5 0-4.4-1.9-4.4-4.4 0-2.5 2-4.5 4.5-4.4 2.4 0 4.3 2 4.4 4.4C105.2 896.1 103.3 898 100.7 898z"/><path class="st11" d="M108 920c-2.5 0-4.4-2-4.3-4.5 0-2.4 2-4.3 4.4-4.3 2.5 0 4.5 2 4.4 4.5C112.4 918.2 110.5 920 108 920z"/><path class="st11" d="M122.8 920c-2.5 0-4.4-1.9-4.4-4.4 0-2.4 2-4.4 4.4-4.4 2.4 0 4.4 2 4.4 4.4C127.2 918.1 125.3 920 122.8 920z"/><path class="st11" d="M137.5 890.6c-2.5 0-4.4-1.9-4.4-4.4 0-2.4 2-4.5 4.4-4.5 2.4 0 4.4 2 4.4 4.4C141.9 888.7 140 890.6 137.5 890.6z"/><path class="st11" d="M122.8 890.6c-2.5 0-4.4-1.9-4.4-4.4 0-2.4 2-4.4 4.4-4.4 2.4 0 4.4 2 4.5 4.4C127.2 888.7 125.3 890.6 122.8 890.6z"/><path class="st11" d="M108 890.6c-2.5 0-4.4-2-4.3-4.5 0-2.4 2.1-4.4 4.5-4.4 2.4 0.1 4.4 2.1 4.3 4.5C112.5 888.8 110.5 890.6 108 890.6z"/><path class="st11" d="M130.2 927.4c-2.5 0-4.4-1.9-4.4-4.4 0-2.5 2-4.5 4.4-4.4 2.4 0 4.4 2 4.4 4.4C134.6 925.4 132.7 927.4 130.2 927.4z"/><path class="st11" d="M115.4 868.5c-2.5 0-4.4-1.9-4.4-4.4 0-2.4 2-4.4 4.4-4.4 2.4 0 4.4 2 4.4 4.4C119.8 866.7 117.9 868.5 115.4 868.5z"/><path class="st11" d="M130.1 868.5c-2.5 0-4.4-1.9-4.4-4.4 0-2.4 2-4.4 4.4-4.4 2.4 0 4.4 2 4.4 4.4C134.5 866.7 132.6 868.6 130.1 868.5z"/><path class="st11" d="M144.8 868.5c-2.5 0-4.4-1.9-4.4-4.4 0-2.4 2.1-4.4 4.5-4.4 2.4 0 4.4 2.1 4.4 4.5C149.2 866.7 147.3 868.6 144.8 868.5z"/><path class="st11" d="M115.3 927.4c-2.5 0-4.4-2-4.3-4.5 0-2.4 2-4.3 4.4-4.3 2.5 0 4.5 2 4.4 4.5C119.8 925.6 117.9 927.4 115.3 927.4z"/><path class="st11" d="M100.7 927.4c-2.5 0-4.4-1.9-4.4-4.4 0-2.4 2-4.4 4.4-4.4 2.4 0 4.4 2 4.4 4.5C105.1 925.5 103.2 927.4 100.7 927.4z"/><path class="st11" d="M108 875.9c-2.5 0-4.4-2-4.3-4.5 0-2.4 2.1-4.4 4.5-4.4 2.4 0.1 4.4 2.1 4.3 4.5C112.5 874.1 110.5 875.9 108 875.9z"/><path class="st11" d="M122.8 875.9c-2.5 0-4.4-1.9-4.4-4.4 0-2.4 2-4.4 4.4-4.4 2.4 0 4.4 2 4.5 4.4C127.2 874 125.3 875.9 122.8 875.9z"/><path class="st11" d="M137.4 875.9c-2.5 0-4.4-2-4.3-4.5 0-2.4 2.1-4.4 4.5-4.4 2.4 0.1 4.4 2.1 4.3 4.5C141.9 874.1 139.9 875.9 137.4 875.9z"/><path class="st11" d="M144.9 927.4c-2.5 0-4.4-1.9-4.4-4.4 0-2.4 2-4.4 4.4-4.5 2.4 0 4.4 2 4.4 4.4C149.3 925.5 147.4 927.4 144.9 927.4z"/><path class="st11" d="M100.6 883.3c-2.4 0-4.3-1.9-4.3-4.4 0-2.5 2-4.5 4.4-4.4 2.4 0 4.4 2.1 4.4 4.5C105.1 881.4 103.2 883.3 100.6 883.3z"/><path class="st11" d="M115.3 883.3c-2.5 0-4.4-2-4.3-4.5 0-2.4 2-4.3 4.4-4.3 2.5 0 4.5 2 4.4 4.5C119.8 881.4 117.9 883.3 115.3 883.3z"/><path class="st11" d="M130.2 883.3c-2.5 0-4.4-1.9-4.4-4.4 0-2.5 2-4.5 4.5-4.4 2.4 0 4.3 2 4.4 4.4C134.6 881.3 132.7 883.2 130.2 883.3z"/><path class="st11" d="M144.8 883.3c-2.5 0-4.4-2-4.3-4.5 0-2.4 2-4.3 4.4-4.4 2.5 0 4.5 2 4.4 4.5C149.2 881.4 147.3 883.3 144.8 883.3z"/><path class="st11" d="M137.5 861.2c-2.5 0-4.4-1.9-4.4-4.4 0-2.4 2-4.4 4.4-4.4 2.4 0 4.4 2 4.4 4.5C141.9 859.3 140 861.2 137.5 861.2z"/><path class="st11" d="M137.5 920c-2.5 0-4.4-1.9-4.4-4.4 0-2.4 2-4.4 4.4-4.4 2.4 0 4.4 2 4.4 4.4C141.9 918.1 140 920 137.5 920z"/><path class="st11" d="M122.8 861.2c-2.5 0-4.4-1.9-4.4-4.4 0-2.4 2-4.4 4.4-4.4 2.4 0 4.4 2 4.4 4.4C127.2 859.3 125.3 861.2 122.8 861.2z"/><path class="st11" d="M166.9 920c-2.5 0-4.4-1.9-4.3-4.4 0-2.4 2-4.4 4.4-4.4 2.4 0 4.5 2 4.5 4.5C171.4 918.1 169.4 920 166.9 920z"/><path class="st11" d="M159.6 912.7c-2.5 0-4.4-1.8-4.4-4.4 0-2.5 2-4.5 4.4-4.4 2.4 0 4.4 2 4.4 4.4C164.1 910.7 162.1 912.7 159.6 912.7z"/><path class="st11" d="M159.6 927.4c-2.5 0-4.4-1.8-4.4-4.4 0-2.5 2-4.5 4.4-4.4 2.4 0 4.4 2 4.4 4.4C164.1 925.4 162.1 927.4 159.6 927.4z"/><path class="st11" d="M162.6 900.8c0.1-2.4 2.1-4.3 4.4-4.3 2.4 0 4.5 2.1 4.4 4.5 -0.1 2.5-2.1 4.4-4.7 4.3C164.3 905.2 162.5 903.3 162.6 900.8z"/><path class="st11" d="M159.6 898c-2.5 0-4.4-1.9-4.3-4.5 0-2.4 2-4.4 4.4-4.4 2.4 0 4.5 2.1 4.5 4.5C164 896.1 162.1 898 159.6 898z"/><path class="st11" d="M159.6 868.5c-2.5 0-4.3-1.9-4.3-4.4 0-2.5 2-4.5 4.4-4.5 2.4 0 4.5 2.1 4.4 4.5C164 866.7 162.1 868.6 159.6 868.5z"/><path class="st11" d="M166.9 875.9c-2.5 0-4.3-1.9-4.3-4.4 0-2.5 2-4.5 4.4-4.4 2.4 0 4.5 2.1 4.4 4.5C171.4 874 169.4 875.9 166.9 875.9z"/><path class="st11" d="M159.6 883.3c-2.5 0-4.4-1.9-4.4-4.4 0-2.4 1.9-4.4 4.3-4.4 2.4 0 4.5 2 4.5 4.4C164.1 881.3 162.1 883.3 159.6 883.3z"/><path class="st11" d="M166.9 890.6c-2.5 0-4.3-1.9-4.3-4.4 0-2.5 2-4.5 4.4-4.5 2.4 0 4.5 2.1 4.4 4.5C171.4 888.7 169.4 890.6 166.9 890.6z"/><path class="st11" d="M152.2 861.2c-1.9 0-3.6-1.2-4.2-3 -0.6-1.8 0-3.9 1.6-5 0.4-0.3 1.2-0.4 1.6-0.3 1.5 0.6 3 1.2 4.4 2 0.4 0.2 0.8 0.8 0.9 1.3C157.1 858.9 155 861.2 152.2 861.2z"/><path class="st11" d="M174.3 883.4c-2.4-0.2-4.2-1.8-4.4-4.1 -0.2-2.4 1.4-4.5 3.7-4.8 0.3 0 1 0.3 1.1 0.6 0.8 2.1 1.6 4.2 2.3 6.3 0.2 0.6 0.1 1.1-0.6 1.4C175.8 883 175.1 883.2 174.3 883.4z"/><path class="st11" d="M148 929.2c0.8-2.2 2.5-3.3 4.4-3.2 1.9 0.1 3.5 1.3 3.9 3.2 -1.4 0-2.8 0-4.1 0C150.9 929.2 149.5 929.2 148 929.2z"/><path class="st11" d="M103.9 929.1c0.8-2.1 2.5-3.3 4.5-3.2 1.9 0.2 3.4 1.4 3.7 3.2C109.4 929.1 106.7 929.1 103.9 929.1z"/><path class="st11" d="M126.9 929.2c-2.6 0-5 0-7.5 0 -0.2 0-0.5-0.1-0.7-0.1 0.6-2 2.3-3.2 4.3-3.1C124.9 926 126.5 927.3 126.9 929.2z"/><path class="st11" d="M133.3 929.2c0.7-2.1 2.4-3.3 4.4-3.2 1.9 0.1 3.5 1.4 3.9 3.1 -0.2 0-0.4 0.1-0.6 0.1C138.5 929.2 136 929.2 133.3 929.2z"/><path class="st11" d="M171.1 929.1c-2.8 0-5.5 0-8.2 0 0.4-1.8 2-3.1 3.9-3.2C168.7 925.8 170.5 927 171.1 929.1z"/><path class="st11" d="M140.6 850.3c2.7 0.5 5.2 1.1 7.8 1.6 -0.9 1.6-2.4 2.3-4.3 2C142.4 853.6 141.1 852.3 140.6 850.3z"/><path class="st11" d="M100.8 868.5c1.4-1.8 2.7-3.3 4-5C105.7 865.8 103.7 868.4 100.8 868.5z"/><path class="st11" d="M107.4 861.1c1.1-0.9 1.9-1.6 2.8-2.3 0.7-0.5 1.4-1 2.1-1.5C112.3 859.8 110.2 861.4 107.4 861.1z"/><path class="st11" d="M177.8 884.3c0.2 1.7 0.4 3.1 0.6 4.8C177.2 887.7 177 886.1 177.8 884.3z"/><path class="st3" d="M93.3 991.9c0 23.6 19.1 42.6 42.6 42.6 23.6 0 42.6-19.1 42.6-42.6v-49.7H93.3V991.9z"/><path class="st12" d="M136 1046.9c-30.2 0-54.9-24.3-54.9-54.2V932h4.3v60.7c0 27.5 22.7 49.9 50.6 49.9 27.9 0 50.6-22.4 50.6-49.9V932h4.3v60.7C190.8 1022.5 166.2 1046.9 136 1046.9z"/><rect x="93.3" y="928.9" class="st13" width="85.3" height="13.3"/><rect x="93.3" y="928.9" class="st12" width="85.3" height="13.3"/><path class="st12" d="M88 927.8h-6.7c-2.1 0-3.8 2.1-3.8 4.7v7.1c0 2.6 1.7 4.7 3.8 4.7H88V927.8z"/><rect x="87.6" y="934.1" class="st12" width="6.9" height="4.2"/><path class="st12" d="M184 927.8h6.7c2.1 0 3.8 2.1 3.8 4.7v7.1c0 2.6-1.7 4.7-3.8 4.7H184V927.8z"/><rect x="177.4" y="934.1" class="st12" width="6.9" height="4.2"/><rect x="133.1" y="1046" class="st12" width="5.7" height="70"/><path class="st10" d="M186 1132.6l-5-11.6c-1.5-3.5-5.1-6.1-8.1-6.1H99c-3 0-6.6 2.6-8.1 6.1l-5 11.6H186z"/><rect x="88" y="927.9" class="st10" width="3.2" height="16.6"/><rect x="180.8" y="927.9" class="st10" width="3.2" height="16.6"/><rect x="85.9" y="1132.6" class="st12" width="100.1" height="6.3"/><path class="st4" d="M161.2 942.2c-3.1 29.2-14.8 69.3-55 80.2 7.7 7.5 18.2 12.1 29.7 12.1 23.6 0 42.6-19.1 42.6-42.6v-49.7H161.2z"/><polygon class="st14" points="1152.3 65.5 639.6 65.5 639.6 255.5 744.6 255.5 744.6 145.2 1117.2 145.2 1117.2 255.5 1152.3 255.5 "/><rect x="744.6" y="145.2" class="st12" width="372.6" height="110.4"/><rect x="744.6" y="145.2" class="st15" width="19.8" height="110.4"/><rect x="766.6" y="145.2" class="st15" width="19.8" height="110.4"/><rect x="788.7" y="145.2" class="st15" width="19.8" height="110.4"/><rect x="810.7" y="145.2" class="st15" width="19.8" height="110.4"/><rect x="832.8" y="145.2" class="st15" width="19.8" height="110.4"/><rect x="854.9" y="145.2" class="st15" width="19.8" height="110.4"/><rect x="876.9" y="145.2" class="st15" width="19.8" height="110.4"/><rect x="899" y="145.2" class="st15" width="19.8" height="110.4"/><rect x="921" y="145.2" class="st15" width="19.8" height="110.4"/><rect x="943.1" y="145.2" class="st15" width="19.8" height="110.4"/><rect x="965.1" y="145.2" class="st15" width="19.8" height="110.4"/><rect x="987.2" y="145.2" class="st15" width="19.8" height="110.4"/><rect x="1009.2" y="145.2" class="st15" width="19.8" height="110.4"/><rect x="1031.3" y="145.2" class="st15" width="19.8" height="110.4"/><rect x="1053.3" y="145.2" class="st15" width="19.8" height="110.4"/><rect x="1075.4" y="145.2" class="st15" width="19.8" height="110.4"/><rect x="1097.4" y="145.2" class="st15" width="19.8" height="110.4"/><rect x="744.6" y="145.2" class="st16" width="372.6" height="7.8"/><rect x="758.8" y="145.2" class="st12" width="13.5" height="68.4"/><rect x="780.8" y="145.2" class="st12" width="13.5" height="68.4"/><rect x="802.9" y="145.2" class="st12" width="13.5" height="68.4"/><rect x="847" y="145.2" class="st12" width="13.5" height="68.4"/><rect x="869" y="145.2" class="st12" width="13.5" height="68.4"/><rect x="913.1" y="145.2" class="st12" width="13.5" height="68.4"/><rect x="935.2" y="145.2" class="st12" width="13.5" height="68.4"/><rect x="957.3" y="145.2" class="st12" width="13.5" height="68.4"/><rect x="1001.4" y="145.2" class="st12" width="13.5" height="68.4"/><rect x="1023.4" y="145.2" class="st12" width="13.5" height="68.4"/><rect x="1067.5" y="145.2" class="st12" width="13.5" height="68.4"/><rect x="1089.6" y="145.2" class="st12" width="13.5" height="68.4"/><circle class="st12" cx="671.1" cy="92.2" r="9.1"/><circle class="st12" cx="706.9" cy="92.2" r="9.1"/><circle class="st12" cx="671.1" cy="122.4" r="9.1"/><circle class="st12" cx="706.9" cy="122.4" r="9.1"/><rect x="754.4" y="74" class="st12" width="5.4" height="56.7"/><rect x="750.6" y="79.8" class="st12" width="12.8" height="7.2"/><rect x="780.7" y="74" class="st12" width="5.4" height="56.7"/><rect x="777" y="103" class="st12" width="12.8" height="7.2"/><rect x="809" y="74" class="st12" width="5.4" height="56.7"/><rect x="805.3" y="89.7" class="st12" width="12.8" height="7.2"/><rect x="835.7" y="74" class="st12" width="5.4" height="56.7"/><rect x="832" y="107.1" class="st12" width="12.8" height="7.2"/><circle class="st12" cx="869.6" cy="96.3" r="8.7"/><rect x="868.9" y="82.9" class="st12" width="1.3" height="2.9"/><rect x="868.9" y="106.8" class="st12" width="1.3" height="2.9"/><rect x="865.8" y="83.3" transform="matrix(0.9659 -0.2588 0.2588 0.9659 7.5699 227.0962)" class="st12" width="1.3" height="2.9"/><rect x="872" y="106.4" transform="matrix(0.9659 -0.2587 0.2587 0.9659 1.798 229.4687)" class="st12" width="1.3" height="2.9"/><rect x="862.9" y="84.5" transform="matrix(0.866 -0.5 0.5 0.866 72.7136 443.3304)" class="st12" width="1.3" height="2.9"/><rect x="874.9" y="105.2" transform="matrix(0.866 -0.5 0.5 0.866 63.9291 452.027)" class="st12" width="1.3" height="2.9"/><rect x="860.4" y="86.4" transform="matrix(0.7071 -0.7071 0.7071 0.7071 190.0638 634.6313)" class="st12" width="1.3" height="2.9"/><rect x="877.4" y="103.3" transform="matrix(0.7072 -0.707 0.707 0.7072 182.9969 651.4754)" class="st12" width="1.3" height="2.9"/><rect x="858.5" y="88.9" transform="matrix(0.5 -0.866 0.866 0.5 351.3669 789.2903)" class="st12" width="1.3" height="2.9"/><rect x="879.3" y="100.9" transform="matrix(0.5 -0.866 0.866 0.5 351.3278 813.1887)" class="st12" width="1.3" height="2.9"/><rect x="857.3" y="91.8" transform="matrix(0.2587 -0.9659 0.9659 0.2587 545.9245 897.9081)" class="st12" width="1.3" height="2.9"/><rect x="880.5" y="98" transform="matrix(0.2588 -0.9659 0.9659 0.2588 557.0135 924.7993)" class="st12" width="1.3" height="2.9"/><rect x="856.1" y="95.7" class="st12" width="2.9" height="1.3"/><rect x="880.1" y="95.7" class="st12" width="2.9" height="1.3"/><rect x="857.3" y="98" transform="matrix(-0.2587 -0.9659 0.9659 -0.2587 983.9486 953.9597)" class="st12" width="1.3" height="2.9"/><rect x="880.5" y="91.8" transform="matrix(-0.2588 -0.9659 0.9659 -0.2588 1019.0865 968.4791)" class="st12" width="1.3" height="2.9"/><rect x="858.5" y="100.9" transform="matrix(-0.4999 -0.8661 0.8661 -0.4999 1200.1166 897.6083)" class="st12" width="1.3" height="2.9"/><rect x="879.3" y="88.9" transform="matrix(-0.5 -0.866 0.866 -0.5 1241.665 897.5621)" class="st12" width="1.3" height="2.9"/><rect x="860.4" y="103.3" transform="matrix(-0.7072 -0.707 0.707 -0.7072 1395.9528 787.7491)" class="st12" width="1.3" height="2.9"/><rect x="877.4" y="86.4" transform="matrix(-0.7071 -0.7071 0.7071 -0.7071 1436.725 770.8878)" class="st12" width="1.3" height="2.9"/><rect x="862.9" y="105.2" transform="matrix(-0.866 -0.5 0.5 -0.866 1558.0889 630.9285)" class="st12" width="1.3" height="2.9"/><rect x="874.9" y="84.5" transform="matrix(-0.866 -0.5 0.5 -0.866 1590.8131 598.1898)" class="st12" width="1.3" height="2.9"/><rect x="865.8" y="106.4" transform="matrix(-0.9659 -0.2588 0.2588 -0.9659 1675.469 436.4001)" class="st12" width="1.3" height="2.9"/><rect x="872" y="83.3" transform="matrix(-0.9659 -0.2588 0.2588 -0.9659 1693.6316 392.551)" class="st12" width="1.3" height="2.9"/><rect x="893.5" y="78.9" class="st3" width="15.9" height="9.9"/><rect x="914.7" y="78.9" class="st3" width="15.9" height="9.9"/><rect x="935.8" y="78.9" class="st3" width="15.9" height="9.9"/><rect x="957" y="78.9" class="st3" width="15.9" height="9.9"/><rect x="978.2" y="78.9" class="st3" width="15.9" height="9.9"/><rect x="999.4" y="78.9" class="st3" width="15.9" height="9.9"/><rect x="893.5" y="91.8" class="st8" width="15.9" height="2.3"/><rect x="914.7" y="91.8" class="st8" width="15.9" height="2.3"/><rect x="935.8" y="91.8" class="st8" width="15.9" height="2.3"/><rect x="957" y="91.8" class="st8" width="15.9" height="2.3"/><rect x="978.2" y="91.8" class="st8" width="15.9" height="2.3"/><rect x="999.4" y="91.8" class="st8" width="15.9" height="2.3"/><rect x="893.5" y="112.4" class="st8" width="15.9" height="2.3"/><rect x="914.7" y="112.4" class="st8" width="15.9" height="2.3"/><rect x="935.8" y="112.4" class="st8" width="15.9" height="2.3"/><rect x="957" y="112.4" class="st8" width="15.9" height="2.3"/><rect x="978.2" y="112.4" class="st8" width="15.9" height="2.3"/><rect x="999.4" y="112.4" class="st8" width="15.9" height="2.3"/><rect x="893.5" y="100.2" class="st3" width="15.9" height="9.9"/><rect x="914.7" y="100.2" class="st3" width="15.9" height="9.9"/><rect x="935.8" y="100.2" class="st3" width="15.9" height="9.9"/><rect x="957" y="100.2" class="st3" width="15.9" height="9.9"/><rect x="978.2" y="100.2" class="st3" width="15.9" height="9.9"/><rect x="999.4" y="100.2" class="st3" width="15.9" height="9.9"/><rect x="1027.1" y="79.5" class="st12" width="23.7" height="6.2"/><rect x="1054.7" y="79.5" class="st12" width="23.7" height="6.2"/><rect x="1082.3" y="79.5" class="st12" width="23.7" height="6.2"/><rect x="1109.9" y="79.5" class="st12" width="23.7" height="6.2"/><circle class="st12" cx="1038.7" cy="104.6" r="8"/><circle class="st17" cx="1038.7" cy="104.6" r="4.8"/><circle class="st12" cx="1066.9" cy="104.6" r="8"/><circle class="st17" cx="1066.9" cy="104.6" r="4.8"/><circle class="st12" cx="1094.5" cy="104.6" r="8"/><circle class="st17" cx="1094.5" cy="104.6" r="4.8"/><circle class="st12" cx="1122.1" cy="104.6" r="8"/><circle class="st17" cx="1122.1" cy="104.6" r="4.8"/><circle class="st12" cx="1038.7" cy="127.4" r="8"/><circle class="st17" cx="1038.7" cy="127.4" r="4.8"/><circle class="st12" cx="1066.9" cy="127.4" r="8"/><circle class="st17" cx="1066.9" cy="127.4" r="4.8"/><circle class="st12" cx="1094.5" cy="127.4" r="8"/><circle class="st17" cx="1094.5" cy="127.4" r="4.8"/><circle class="st12" cx="1122.1" cy="127.4" r="8"/><circle class="st17" cx="1122.1" cy="127.4" r="4.8"/><rect x="742.5" y="73.8" class="st15" width="4.9" height="2.3"/><rect x="742.5" y="82.9" class="st15" width="4.9" height="2.3"/><rect x="742.5" y="92" class="st15" width="4.9" height="2.3"/><rect x="742.5" y="101.1" class="st15" width="4.9" height="2.3"/><rect x="742.5" y="110.2" class="st15" width="4.9" height="2.3"/><rect x="742.5" y="119.3" class="st15" width="4.9" height="2.3"/><rect x="742.5" y="128.4" class="st15" width="4.9" height="2.3"/><rect x="768.7" y="73.8" class="st15" width="4.9" height="2.3"/><rect x="768.7" y="82.9" class="st15" width="4.9" height="2.3"/><rect x="768.7" y="92" class="st15" width="4.9" height="2.3"/><rect x="768.7" y="101.1" class="st15" width="4.9" height="2.3"/><rect x="768.7" y="110.2" class="st15" width="4.9" height="2.3"/><rect x="768.7" y="119.3" class="st15" width="4.9" height="2.3"/><rect x="768.7" y="128.4" class="st15" width="4.9" height="2.3"/><rect x="796.8" y="73.8" class="st15" width="4.9" height="2.3"/><rect x="796.8" y="82.9" class="st15" width="4.9" height="2.3"/><rect x="796.8" y="92" class="st15" width="4.9" height="2.3"/><rect x="796.8" y="101.1" class="st15" width="4.9" height="2.3"/><rect x="796.8" y="110.2" class="st15" width="4.9" height="2.3"/><rect x="796.8" y="119.3" class="st15" width="4.9" height="2.3"/><rect x="796.8" y="128.4" class="st15" width="4.9" height="2.3"/><rect x="823.6" y="73.8" class="st15" width="4.9" height="2.3"/><rect x="823.6" y="82.9" class="st15" width="4.9" height="2.3"/><rect x="823.6" y="92" class="st15" width="4.9" height="2.3"/><rect x="823.6" y="101.1" class="st15" width="4.9" height="2.3"/><rect x="823.6" y="110.2" class="st15" width="4.9" height="2.3"/><rect x="823.6" y="119.3" class="st15" width="4.9" height="2.3"/><rect x="823.6" y="128.4" class="st15" width="4.9" height="2.3"/><rect x="664.7" y="151.8" class="st12" width="21.6" height="64.8"/><rect x="667.3" y="151.8" class="st3" width="19" height="62.5"/><rect x="664.7" y="184" class="st12" width="21.6" height="1.7"/><rect x="696.3" y="151.8" class="st12" width="21.6" height="64.8"/><rect x="698.9" y="151.8" class="st3" width="19" height="62.5"/><rect x="696.3" y="184" class="st12" width="21.6" height="1.7"/><rect x="639.6" y="235.1" class="st18" width="104.9" height="20.5"/><rect x="1117.2" y="235.1" class="st18" width="35.1" height="20.5"/><path class="st12" d="M705.3 434.2c0.4-2-1.1-3.7-3.4-3.7h-27.6c-2.3 0-3.8 1.7-3.4 3.7l1.7 7.7c0.3 1.6 2.2 2.8 4.1 2.8h22.8c1.9 0 3.7-1.2 4.1-2.8L705.3 434.2z"/><path class="st12" d="M859.7 434.2c0.4-2-1.1-3.7-3.4-3.7h-27.6c-2.3 0-3.8 1.7-3.4 3.7l1.7 7.7c0.3 1.6 2.2 2.8 4.1 2.8H854c1.9 0 3.7-1.2 4.1-2.8L859.7 434.2z"/><path class="st7" d="M898.3 323.6c0-4-5.3-7.3-11.9-7.3h-240c-6.6 0-11.9 3.3-11.9 7.3v104.4c0 4 5.3 7.3 11.9 7.3h240c6.6 0 11.9-3.3 11.9-7.3V323.6z"/><rect x="649.3" y="331.1" class="st19" width="234.1" height="89.2"/><path class="st7" d="M886.3 316.2h-240c-6.6 0-11.9 3.3-11.9 7.3v104.4c0 4 5.3 7.3 11.9 7.3h240c6.6 0 11.9-3.3 11.9-7.3V323.6C898.3 319.5 892.9 316.2 886.3 316.2zM883.4 420.3H649.3v-89.2h234.1V420.3z"/><path class="st19" d="M883.4 331.1h-7.9c-34.3 31.5-108.3 83.7-225.3 89.2h233.3V331.1z"/><path class="st12" d="M651.8 335.9v-2.2h3.5v-20h-9c-8.1 0-14.5 4.3-14.5 9.9v12.3H651.8z"/><path class="st12" d="M881.5 335.9v-2.2h-3.5v-20h9c8.1 0 14.5 4.3 14.5 9.9v12.3H881.5z"/><path class="st12" d="M651.8 415.5v2.2h3.5v20h-9c-8.1 0-14.5-4.3-14.5-9.9v-12.3H651.8z"/><path class="st12" d="M881.5 415.5v2.2h-3.5v20h9c8.1 0 14.5-4.3 14.5-9.9v-12.3H881.5z"/><path class="st7" d="M939.3 454.3c0-5.3-7-9.6-15.7-9.6H608.8c-8.7 0-15.7 4.3-15.7 9.6v298.8c0 5.3 7 9.6 15.7 9.6h314.8c8.7 0 15.7-4.3 15.7-9.6V454.3z"/><rect x="612.7" y="464.3" class="st19" width="307.1" height="279"/><path class="st7" d="M923.7 444.8H608.8c-8.7 0-15.7 4.3-15.7 9.6v298.8c0 5.3 7 9.6 15.7 9.6h314.8c8.7 0 15.7-4.3 15.7-9.6V454.3C939.3 449 932.3 444.8 923.7 444.8zM919.8 743.2H612.7v-279h307.1V743.2z"/><circle class="st20" cx="681.8" cy="378.6" r="15.9"/><circle class="st12" cx="681.8" cy="378.6" r="9.4"/><circle class="st7" cx="727.8" cy="362" r="10.4"/><rect x="727.3" y="347.9" class="st12" width="1.1" height="2.9"/><rect x="727.3" y="373.2" class="st12" width="1.1" height="2.9"/><rect x="721" y="349.6" transform="matrix(0.866 -0.5001 0.5001 0.866 -78.8395 407.8297)" class="st12" width="1.1" height="2.9"/><rect x="733.6" y="371.5" transform="matrix(0.866 -0.5 0.5 0.866 -88.1275 417.0203)" class="st12" width="1.1" height="2.9"/><rect x="716.3" y="354.2" transform="matrix(0.5 -0.866 0.866 0.5 50.409 798.6193)" class="st12" width="1.1" height="2.9"/><rect x="738.3" y="366.9" transform="matrix(0.5 -0.866 0.866 0.5 50.4447 824.0323)" class="st12" width="1.1" height="2.9"/><rect x="713.7" y="361.4" class="st12" width="2.9" height="1.1"/><rect x="739.1" y="361.4" class="st12" width="2.9" height="1.1"/><rect x="733.6" y="361.4" class="st12" width="4.2" height="1.1"/><rect x="716.3" y="366.9" transform="matrix(-0.5 -0.866 0.866 -0.5 756.3275 1173.3126)" class="st12" width="1.1" height="2.9"/><rect x="738.3" y="354.2" transform="matrix(-0.4999 -0.8661 0.8661 -0.4999 800.1487 1173.3195)" class="st12" width="1.1" height="2.9"/><rect x="721" y="371.5" transform="matrix(-0.866 -0.5001 0.5001 -0.866 1159.7996 1056.7556)" class="st12" width="1.1" height="2.9"/><rect x="733.6" y="349.6" transform="matrix(-0.866 -0.5 0.5 -0.866 1194.5178 1022.0641)" class="st12" width="1.1" height="2.9"/><circle class="st7" cx="771" cy="362" r="10.4"/><rect x="770.5" y="347.9" class="st12" width="1.1" height="2.9"/><rect x="770.5" y="373.2" class="st12" width="1.1" height="2.9"/><rect x="764.2" y="349.6" transform="matrix(0.866 -0.5001 0.5001 0.866 -73.047 429.4697)" class="st12" width="1.1" height="2.9"/><rect x="776.8" y="371.5" transform="matrix(0.866 -0.5 0.5 0.866 -82.341 438.6175)" class="st12" width="1.1" height="2.9"/><rect x="759.5" y="354.2" transform="matrix(0.5 -0.866 0.866 0.5 72.0448 836.0836)" class="st12" width="1.1" height="2.9"/><rect x="781.5" y="366.9" transform="matrix(0.5001 -0.866 0.866 0.5001 71.9669 861.3309)" class="st12" width="1.1" height="2.9"/><rect x="756.9" y="361.4" class="st12" width="2.9" height="1.1"/><rect x="782.3" y="361.4" class="st12" width="2.9" height="1.1"/><rect x="759.5" y="366.9" transform="matrix(-0.5 -0.866 0.866 -0.5 821.0587 1210.7273)" class="st12" width="1.1" height="2.9"/><rect x="781.5" y="354.2" transform="matrix(-0.5001 -0.866 0.866 -0.5001 865.0779 1210.7186)" class="st12" width="1.1" height="2.9"/><rect x="764.2" y="371.5" transform="matrix(-0.866 -0.5001 0.5001 -0.866 1240.3743 1078.379)" class="st12" width="1.1" height="2.9"/><rect x="776.8" y="349.6" transform="matrix(-0.866 -0.5 0.5 -0.866 1275.1267 1043.6613)" class="st12" width="1.1" height="2.9"/><circle class="st7" cx="817.2" cy="362" r="10.4"/><rect x="816.7" y="347.9" class="st12" width="1.1" height="2.9"/><rect x="816.7" y="373.2" class="st12" width="1.1" height="2.9"/><rect x="810.3" y="349.6" transform="matrix(0.866 -0.5 0.5 0.866 -66.8666 452.4843)" class="st12" width="1.1" height="2.9"/><rect x="823" y="371.5" transform="matrix(0.8661 -0.4999 0.4999 0.8661 -76.159 461.6652)" class="st12" width="1.1" height="2.9"/><rect x="805.7" y="354.2" transform="matrix(0.5 -0.866 0.866 0.5 95.1373 876.0789)" class="st12" width="1.1" height="2.9"/><rect x="827.7" y="366.9" transform="matrix(0.4999 -0.8661 0.8661 0.4999 95.1802 901.4973)" class="st12" width="1.1" height="2.9"/><rect x="803.1" y="361.4" class="st12" width="2.9" height="1.1"/><rect x="828.4" y="361.4" class="st12" width="2.9" height="1.1"/><rect x="805.7" y="366.9" transform="matrix(-0.5 -0.866 0.866 -0.5 890.329 1250.7225)" class="st12" width="1.1" height="2.9"/><rect x="827.7" y="354.2" transform="matrix(-0.4999 -0.8661 0.8661 -0.4999 934.1393 1250.7366)" class="st12" width="1.1" height="2.9"/><rect x="810.3" y="371.5" transform="matrix(-0.866 -0.5 0.5 -0.866 1326.614 1101.4269)" class="st12" width="1.1" height="2.9"/><rect x="823" y="349.6" transform="matrix(-0.8661 -0.4999 0.4999 -0.8661 1361.3363 1066.7255)" class="st12" width="1.1" height="2.9"/><rect x="714.8" y="339.4" class="st20" width="116.8" height="5.2"/><rect x="714.8" y="381.5" class="st20" width="26.7" height="3.9"/><rect x="757.3" y="381.5" class="st20" width="26.7" height="3.9"/><rect x="803.8" y="381.5" class="st20" width="26.7" height="3.9"/><rect x="848.3" y="363.8" class="st12" width="21.4" height="28.2"/><circle class="st7" cx="728" cy="398.5" r="8.3"/><circle class="st12" cx="728" cy="398.5" r="3.6"/><circle class="st7" cx="771" cy="398.5" r="8.3"/><circle class="st12" cx="771" cy="398.5" r="3.6"/><circle class="st7" cx="817.3" cy="398.5" r="8.3"/><circle class="st12" cx="817.3" cy="398.5" r="3.6"/><path class="st21" d="M919.8 471.2c-57.7 66.3-188.9 208.9-303.4 272h303.4V471.2z"/><rect x="627.5" y="477.7" class="st22" width="277.6" height="244.9"/><path class="st12" d="M905.6 483.3L905.6 483.3c0-1.9 0-3.8 0-5.6 -0.9 0-1.7 0.1-2.6 0.1 -1 0-2.1 0-3.1 0 -3.6 0-7.1 0-10.7 0 -1.9 0-3.8 0-5.7 0 -2.8 0-5.6 0-8.4 0 -1.9 0-3.8 0-5.7 0 -2.8 0-5.6 0-8.4 0 -1.9 0-3.8 0-5.7 0 -2.8 0-5.6 0-8.4 0 -1.9 0-3.8 0-5.7 0 -2.8 0-5.6 0-8.4 0 -1.9 0-3.8 0-5.7 0 -2.8 0-5.6 0-8.4 0 -1.9 0-3.8 0-5.7 0 -2.8 0-5.6 0-8.4 0 -1.9 0-3.8 0-5.7 0 -2.8 0-5.6 0-8.4 0 -1.9 0-3.8 0-5.7 0 -2.8 0-5.6 0-8.4 0 -1.9 0-3.8 0-5.7 0 -2.8 0-5.6 0-8.4 0 -1.9 0-3.8 0-5.7 0 -2.8 0-5.6 0-8.4 0 -1.9 0-3.8 0-5.7 0 -2.8 0-5.6 0-8.4 0 -1.9 0-3.8 0-5.7 0 -2.8 0-5.6 0-8.4 0 -1.9 0-3.8 0-5.7 0 -2.8 0-5.6 0-8.4 0 -1.9 0-3.8 0-5.7 0 -2.8 0-5.6 0-8.4 0 -1.9 0-3.8 0-5.7 0 -2.8 0-5.6 0-8.4 0 -1.9 0-3.8 0-5.7 0 -2.8 0-5.6 0-8.4 0 -1.9 0-3.8 0-5.7 0 -2.8 0-5.6 0-8.4 0 -1.9 0-3.8 0-5.7 0 -3.6 0-7.2 0-10.8 0 -1 0-2.1 0-3.1 0 -0.9 0-1.7-0.1-2.6-0.1 0 1.9 0 3.8 0 5.6l0 0c0 0.1 0 0.1 0 0.2 0 2.8 0 5.5 0 8.3l0 0c0 1.9 0 3.8 0 5.6l0 0c0 0.1 0 0.1 0 0.2 0 2.8 0 5.5 0 8.3l0 0c0 1.9 0 3.8 0 5.6l0 0c0 0.1 0 0.1 0 0.2 0 2.8 0 5.5 0 8.3l0 0c0 1.9 0 3.8 0 5.6l0 0c0 0.1 0 0.1 0 0.2 0 2.8 0 5.5 0 8.3l0 0c0 1.9 0 3.8 0 5.6l0 0c0 0.1 0 0.1 0 0.2 0 2.8 0 5.5 0 8.3l0 0c0 1.9 0 3.8 0 5.6l0 0c0 0.1 0 0.1 0 0.2 0 2.8 0 5.5 0 8.3l0 0c0 1.9 0 3.8 0 5.6l0 0c0 0.1 0 0.1 0 0.2 0 2.8 0 5.5 0 8.3l0 0c0 1.9 0 3.8 0 5.6l0 0c0 0.1 0 0.1 0 0.2 0 2.8 0 5.5 0 8.3l0 0c0 1.9 0 3.8 0 5.6l0 0c0 0.1 0 0.1 0 0.2 0 2.8 0 5.5 0 8.3l0 0c0 1.9 0 3.8 0 5.6l0 0c0 0.1 0 0.1 0 0.2 0 2.8 0 5.5 0 8.3l0 0c0 1.9 0 3.8 0 5.6l0 0c0 0.1 0 0.1 0 0.2 0 2.8 0 5.5 0 8.3l0 0c0 1.9 0 3.8 0 5.6l0 0c0 0.1 0 0.1 0 0.2 0 2.8 0 5.5 0 8.3l0 0c0 1.9 0 3.8 0 5.6l0 0c0 0.1 0 0.1 0 0.2 0 2.8 0 5.5 0 8.3l0 0c0 1.9 0 3.8 0 5.6l0 0c0 0.1 0 0.1 0 0.2 0 2.8 0 5.5 0 8.3l0 0c0 1.9 0 3.8 0 5.6l0 0c0 0.1 0 0.1 0 0.2 0 2.8 0 5.5 0 8.3l0 0c0 1.9 0 3.8 0 5.6l0 0c0 0.1 0 0.1 0 0.2 0 2.8 0 5.5 0 8.3l0 0c0 1.9 0 3.8 0 5.6l0 0c0 0.1 0 0.1 0 0.2 0 2.8 0 5.5 0 8.3l0 0c0 1.9 0 3.8 0 5.6l0 0c0 0.1 0 0.1 0 0.2 1 0 2 0 3 0 0.9 0 1.8 0 2.6 0 3.6 0 7.2 0 10.8 0 1.9 0 3.8 0 5.7 0 2.8 0 5.6 0 8.4 0 1.9 0 3.8 0 5.7 0 2.8 0 5.6 0 8.4 0 1.9 0 3.8 0 5.7 0 2.8 0 5.6 0 8.4 0 1.9 0 3.8 0 5.7 0 2.8 0 5.6 0 8.4 0 1.9 0 3.8 0 5.7 0 2.8 0 5.6 0 8.4 0 1.9 0 3.8 0 5.7 0 2.8 0 5.6 0 8.4 0 1.9 0 3.8 0 5.7 0 2.8 0 5.6 0 8.4 0 1.9 0 3.8 0 5.7 0 2.8 0 5.6 0 8.4 0 1.9 0 3.8 0 5.7 0 2.8 0 5.6 0 8.4 0 1.9 0 3.8 0 5.7 0 2.8 0 5.6 0 8.4 0 1.9 0 3.8 0 5.7 0 2.8 0 5.6 0 8.4 0 1.9 0 3.8 0 5.7 0 2.8 0 5.6 0 8.4 0 1.9 0 3.8 0 5.7 0 2.8 0 5.6 0 8.4 0 1.9 0 3.8 0 5.7 0 2.8 0 5.6 0 8.4 0 1.9 0 3.8 0 5.7 0 2.8 0 5.6 0 8.4 0 1.9 0 3.8 0 5.7 0 2.8 0 5.6 0 8.4 0 1.9 0 3.8 0 5.7 0 2.8 0 5.6 0 8.4 0 1.9 0 3.8 0 5.7 0 3.6 0 7.1 0 10.7 0 0.9 0 1.8 0 2.6 0 1 0 2 0 3 0 0-0.1 0-0.1 0-0.2h0c0-1.9 0-3.8 0-5.6h0c0-2.8 0-5.5 0-8.3 0-0.1 0-0.1 0-0.2h0c0-1.9 0-3.8 0-5.6h0c0-2.8 0-5.5 0-8.3 0-0.1 0-0.1 0-0.2h0c0-1.9 0-3.8 0-5.6h0c0-2.8 0-5.5 0-8.3 0-0.1 0-0.1 0-0.2h0c0-1.9 0-3.8 0-5.6h0c0-2.8 0-5.5 0-8.3 0-0.1 0-0.1 0-0.2h0c0-1.9 0-3.8 0-5.6h0c0-2.8 0-5.5 0-8.3 0-0.1 0-0.1 0-0.2h0c0-1.9 0-3.8 0-5.6h0c0-2.8 0-5.5 0-8.3 0-0.1 0-0.1 0-0.2h0c0-1.9 0-3.8 0-5.6h0c0-2.8 0-5.5 0-8.3 0-0.1 0-0.1 0-0.2h0c0-1.9 0-3.8 0-5.6h0c0-2.8 0-5.5 0-8.3 0-0.1 0-0.1 0-0.2h0c0-1.9 0-3.8 0-5.6h0c0-2.8 0-5.5 0-8.3 0-0.1 0-0.1 0-0.2h0c0-1.9 0-3.8 0-5.6h0c0-2.8 0-5.5 0-8.3 0-0.1 0-0.1 0-0.2h0c0-1.9 0-3.8 0-5.6h0c0-2.8 0-5.5 0-8.3 0-0.1 0-0.1 0-0.2h0c0-1.9 0-3.8 0-5.6h0c0-2.8 0-5.5 0-8.3 0-0.1 0-0.1 0-0.2h0c0-1.9 0-3.8 0-5.6h0c0-2.8 0-5.5 0-8.3 0-0.1 0-0.1 0-0.2h0c0-1.9 0-3.8 0-5.6h0c0-2.8 0-5.5 0-8.3 0-0.1 0-0.1 0-0.2h0c0-1.9 0-3.8 0-5.6h0c0-2.8 0-5.5 0-8.3 0-0.1 0-0.1 0-0.2h0c0-1.9 0-3.8 0-5.6h0c0-2.8 0-5.5 0-8.3 0-0.1 0-0.1 0-0.2h0c0-1.9 0-3.8 0-5.6h0c0-2.8 0-5.5 0-8.3C905.6 483.4 905.6 483.4 905.6 483.3zM644.4 717c-3.6 0-7.2 0-10.8 0 0-2.8 0-5.6 0-8.4 3.6 0 7.2 0 10.8 0C644.4 711.4 644.4 714.2 644.4 717zM644.4 702.9c-3.6 0-7.2 0-10.8 0 0-2.8 0-5.6 0-8.4 3.6 0 7.2 0 10.8 0C644.4 697.3 644.4 700.1 644.4 702.9zM644.4 688.8c-3.6 0-7.2 0-10.8 0 0-2.8 0-5.6 0-8.4 3.6 0 7.2 0 10.8 0C644.4 683.2 644.4 686 644.4 688.8zM644.4 674.8c-3.6 0-7.2 0-10.8 0 0-2.8 0-5.6 0-8.4 3.6 0 7.2 0 10.8 0C644.4 669.2 644.4 672 644.4 674.8zM644.4 660.7c-3.6 0-7.2 0-10.8 0 0-2.8 0-5.6 0-8.4 3.6 0 7.2 0 10.8 0C644.4 655.1 644.4 657.9 644.4 660.7zM644.4 646.6c-3.6 0-7.2 0-10.8 0 0-2.8 0-5.6 0-8.4 3.6 0 7.2 0 10.8 0C644.4 641 644.4 643.8 644.4 646.6zM644.4 632.6c-3.6 0-7.2 0-10.8 0 0-2.8 0-5.6 0-8.4 3.6 0 7.2 0 10.8 0C644.4 627 644.4 629.8 644.4 632.6zM644.4 618.5c-3.6 0-7.2 0-10.8 0 0-2.8 0-5.6 0-8.4 3.6 0 7.2 0 10.8 0C644.4 612.9 644.4 615.7 644.4 618.5zM644.4 604.4c-3.6 0-7.2 0-10.8 0 0-2.8 0-5.6 0-8.4 3.6 0 7.2 0 10.8 0C644.4 598.8 644.4 601.6 644.4 604.4zM644.4 590.4c-3.6 0-7.2 0-10.8 0 0-2.8 0-5.6 0-8.4 3.6 0 7.2 0 10.8 0C644.4 584.8 644.4 587.6 644.4 590.4zM644.4 576.3c-3.6 0-7.2 0-10.8 0 0-2.8 0-5.6 0-8.4 3.6 0 7.2 0 10.8 0C644.4 570.7 644.4 573.5 644.4 576.3zM644.4 562.2c-3.6 0-7.2 0-10.8 0 0-2.8 0-5.6 0-8.4 3.6 0 7.2 0 10.8 0C644.4 556.6 644.4 559.4 644.4 562.2zM644.4 548.1c-3.6 0-7.2 0-10.8 0 0-2.8 0-5.6 0-8.4 3.6 0 7.2 0 10.8 0C644.4 542.5 644.4 545.3 644.4 548.1zM644.4 534.1c-3.6 0-7.2 0-10.8 0 0-2.8 0-5.6 0-8.4 3.6 0 7.2 0 10.8 0C644.4 528.5 644.4 531.3 644.4 534.1zM644.4 520c-3.6 0-7.2 0-10.8 0 0-2.8 0-5.6 0-8.4 3.6 0 7.2 0 10.8 0C644.4 514.4 644.4 517.2 644.4 520zM644.4 505.9c-3.6 0-7.2 0-10.8 0 0-2.8 0-5.6 0-8.4 3.6 0 7.2 0 10.8 0C644.4 500.3 644.4 503.1 644.4 505.9zM644.4 491.9c-3.6 0-7.2 0-10.8 0 0-2.8 0-5.6 0-8.4 3.6 0 7.2 0 10.8 0C644.4 486.3 644.4 489.1 644.4 491.9zM899.9 483.5c0 2.8 0 5.6 0 8.4 -3.6 0-7.1 0-10.7 0 0-2.8 0-5.6 0-8.4C892.8 483.5 896.4 483.5 899.9 483.5zM899.9 505.9c-3.6 0-7.1 0-10.7 0 0-2.8 0-5.6 0-8.4 3.6 0 7.1 0 10.7 0C899.9 500.3 899.9 503.1 899.9 505.9zM899.9 520c-3.6 0-7.1 0-10.7 0 0-2.8 0-5.6 0-8.4 3.6 0 7.1 0 10.7 0C899.9 514.4 899.9 517.2 899.9 520zM899.9 534.1c-3.6 0-7.1 0-10.7 0 0-2.8 0-5.6 0-8.4 3.6 0 7.1 0 10.7 0C899.9 528.5 899.9 531.3 899.9 534.1zM899.9 548.1c-3.6 0-7.1 0-10.7 0 0-2.8 0-5.6 0-8.4 3.6 0 7.1 0 10.7 0C899.9 542.5 899.9 545.3 899.9 548.1zM899.9 562.2c-3.6 0-7.1 0-10.7 0 0-2.8 0-5.6 0-8.4 3.6 0 7.1 0 10.7 0C899.9 556.6 899.9 559.4 899.9 562.2zM899.9 576.3c-3.6 0-7.1 0-10.7 0 0-2.8 0-5.6 0-8.4 3.6 0 7.1 0 10.7 0C899.9 570.7 899.9 573.5 899.9 576.3zM899.9 590.4c-3.6 0-7.1 0-10.7 0 0-2.8 0-5.6 0-8.4 3.6 0 7.1 0 10.7 0l0 0C899.9 584.8 899.9 587.6 899.9 590.4zM899.9 604.4c-3.6 0-7.1 0-10.7 0 0-2.8 0-5.6 0-8.4 3.6 0 7.1 0 10.7 0C899.9 598.8 899.9 601.6 899.9 604.4zM899.9 618.5c-3.6 0-7.1 0-10.7 0 0-2.8 0-5.6 0-8.4 3.6 0 7.1 0 10.7 0C899.9 612.9 899.9 615.7 899.9 618.5zM899.9 632.6c-3.6 0-7.1 0-10.7 0 0-2.8 0-5.6 0-8.4 3.6 0 7.1 0 10.7 0C899.9 627 899.9 629.8 899.9 632.6zM899.9 646.6c-3.6 0-7.1 0-10.7 0 0-2.8 0-5.6 0-8.4 3.6 0 7.1 0 10.7 0C899.9 641 899.9 643.8 899.9 646.6zM899.9 660.7c-3.6 0-7.1 0-10.7 0 0-2.8 0-5.6 0-8.4 3.6 0 7.1 0 10.7 0C899.9 655.1 899.9 657.9 899.9 660.7zM899.9 674.8c-3.6 0-7.1 0-10.7 0 0-2.8 0-5.6 0-8.4 3.6 0 7.1 0 10.7 0C899.9 669.2 899.9 672 899.9 674.8zM899.9 688.8c-3.6 0-7.1 0-10.7 0 0-2.8 0-5.6 0-8.4 3.6 0 7.1 0 10.7 0C899.9 683.2 899.9 686 899.9 688.8zM899.9 702.9c-3.6 0-7.1 0-10.7 0 0-2.8 0-5.6 0-8.4 3.6 0 7.1 0 10.7 0C899.9 697.3 899.9 700.1 899.9 702.9zM664.1 694.5c2.8 0 5.6 0 8.4 0 0 2.8 0 5.6 0 8.4 -2.8 0-5.6 0-8.4 0C664.1 700.1 664.1 697.3 664.1 694.5zM664.1 680.4c2.8 0 5.6 0 8.4 0 0 2.8 0 5.6 0 8.4 -2.8 0-5.6 0-8.4 0C664.1 686 664.1 683.2 664.1 680.4zM664.1 666.4c2.8 0 5.6 0 8.4 0 0 2.8 0 5.6 0 8.4 -2.8 0-5.6 0-8.4 0C664.1 672 664.1 669.2 664.1 666.4zM664.1 652.3c2.8 0 5.6 0 8.4 0 0 2.8 0 5.6 0 8.4 -2.8 0-5.6 0-8.4 0C664.1 657.9 664.1 655.1 664.1 652.3zM664.1 638.2c2.8 0 5.6 0 8.4 0 0 2.8 0 5.6 0 8.4 -2.8 0-5.6 0-8.4 0C664.1 643.8 664.1 641 664.1 638.2zM664.1 624.2c2.8 0 5.6 0 8.4 0 0 2.8 0 5.6 0 8.4 -2.8 0-5.6 0-8.4 0C664.1 629.8 664.1 627 664.1 624.2zM664.1 610.1c2.8 0 5.6 0 8.4 0 0 2.8 0 5.6 0 8.4 -2.8 0-5.6 0-8.4 0C664.1 615.7 664.1 612.9 664.1 610.1zM664.1 596c2.8 0 5.6 0 8.4 0 0 2.8 0 5.6 0 8.4 -2.8 0-5.6 0-8.4 0C664.1 601.6 664.1 598.8 664.1 596zM664.1 582c2.8 0 5.6 0 8.4 0 0 2.8 0 5.6 0 8.4 -2.8 0-5.6 0-8.4 0C664.1 587.6 664.1 584.8 664.1 582zM664.1 567.9c2.8 0 5.6 0 8.4 0 0 2.8 0 5.6 0 8.4 -2.8 0-5.6 0-8.4 0C664.1 573.5 664.1 570.7 664.1 567.9zM664.1 553.8c2.8 0 5.6 0 8.4 0 0 2.8 0 5.6 0 8.4 -2.8 0-5.6 0-8.4 0C664.1 559.4 664.1 556.6 664.1 553.8zM664.1 539.7c2.8 0 5.6 0 8.4 0 0 2.8 0 5.6 0 8.4 -2.8 0-5.6 0-8.4 0C664.1 545.3 664.1 542.5 664.1 539.7zM664.1 525.7c2.8 0 5.6 0 8.4 0 0 2.8 0 5.6 0 8.4 -2.8 0-5.6 0-8.4 0C664.1 531.3 664.1 528.5 664.1 525.7zM664.1 511.6c2.8 0 5.6 0 8.4 0 0 2.8 0 5.6 0 8.4 -2.8 0-5.6 0-8.4 0C664.1 517.2 664.1 514.4 664.1 511.6zM664.1 497.5c2.8 0 5.6 0 8.4 0 0 2.8 0 5.6 0 8.4 -2.8 0-5.6 0-8.4 0C664.1 503.1 664.1 500.3 664.1 497.5zM883.6 505.9c-2.8 0-5.6 0-8.4 0 0-2.8 0-5.6 0-8.4 2.8 0 5.6 0 8.4 0C883.6 500.3 883.6 503.1 883.6 505.9zM883.6 520c-2.8 0-5.6 0-8.4 0 0-2.8 0-5.6 0-8.4 2.8 0 5.6 0 8.4 0C883.6 514.4 883.6 517.2 883.6 520zM883.6 534.1c-2.8 0-5.6 0-8.4 0 0-2.8 0-5.6 0-8.4 2.8 0 5.6 0 8.4 0C883.6 528.5 883.6 531.3 883.6 534.1zM883.6 548.1c-2.8 0-5.6 0-8.4 0 0-2.8 0-5.6 0-8.4 2.8 0 5.6 0 8.4 0C883.6 542.5 883.6 545.3 883.6 548.1zM883.6 562.2c-2.8 0-5.6 0-8.4 0 0-2.8 0-5.6 0-8.4 2.8 0 5.6 0 8.4 0C883.6 556.6 883.6 559.4 883.6 562.2zM883.6 576.3c-2.8 0-5.6 0-8.4 0 0-2.8 0-5.6 0-8.4 2.8 0 5.6 0 8.4 0C883.6 570.7 883.6 573.5 883.6 576.3zM883.6 590.4c-2.8 0-5.6 0-8.4 0 0-2.8 0-5.6 0-8.4 2.8 0 5.6 0 8.4 0C883.6 584.8 883.6 587.6 883.6 590.4zM883.6 604.4c-2.8 0-5.6 0-8.4 0 0-2.8 0-5.6 0-8.4 2.8 0 5.6 0 8.4 0C883.6 598.8 883.6 601.6 883.6 604.4zM883.6 618.5c-2.8 0-5.6 0-8.4 0 0-2.8 0-5.6 0-8.4 2.8 0 5.6 0 8.4 0C883.6 612.9 883.6 615.7 883.6 618.5zM883.6 632.6c-2.8 0-5.6 0-8.4 0 0-2.8 0-5.6 0-8.4 2.8 0 5.6 0 8.4 0C883.6 627 883.6 629.8 883.6 632.6zM883.6 646.6c-2.8 0-5.6 0-8.4 0 0-2.8 0-5.6 0-8.4 2.8 0 5.6 0 8.4 0C883.6 641 883.6 643.8 883.6 646.6zM883.6 660.7c-2.8 0-5.6 0-8.4 0 0-2.8 0-5.6 0-8.4 2.8 0 5.6 0 8.4 0C883.6 655.1 883.6 657.9 883.6 660.7zM883.6 674.8c-2.8 0-5.6 0-8.4 0 0-2.8 0-5.6 0-8.4 2.8 0 5.6 0 8.4 0C883.6 669.2 883.6 672 883.6 674.8zM883.6 688.8c-2.8 0-5.6 0-8.4 0 0-2.8 0-5.6 0-8.4 2.8 0 5.6 0 8.4 0C883.6 683.2 883.6 686 883.6 688.8zM678.2 680.4c2.8 0 5.6 0 8.4 0 0 2.8 0 5.6 0 8.4 -2.8 0-5.6 0-8.4 0C678.2 686 678.2 683.2 678.2 680.4zM678.2 666.4c2.8 0 5.6 0 8.4 0 0 2.8 0 5.6 0 8.4 -2.8 0-5.6 0-8.4 0C678.2 672 678.2 669.2 678.2 666.4zM678.2 652.3c2.8 0 5.6 0 8.4 0 0 2.8 0 5.6 0 8.4 -2.8 0-5.6 0-8.4 0C678.2 657.9 678.2 655.1 678.2 652.3zM678.2 638.2c2.8 0 5.6 0 8.4 0 0 2.8 0 5.6 0 8.4 -2.8 0-5.6 0-8.4 0C678.2 643.8 678.2 641 678.2 638.2zM678.2 624.2c2.8 0 5.6 0 8.4 0 0 2.8 0 5.6 0 8.4 -2.8 0-5.6 0-8.4 0C678.2 629.8 678.2 627 678.2 624.2zM678.2 610.1c2.8 0 5.6 0 8.4 0 0 2.8 0 5.6 0 8.4 -2.8 0-5.6 0-8.4 0C678.2 615.7 678.2 612.9 678.2 610.1zM678.2 596c2.8 0 5.6 0 8.4 0 0 2.8 0 5.6 0 8.4 -2.8 0-5.6 0-8.4 0C678.2 601.6 678.2 598.8 678.2 596zM678.2 582c2.8 0 5.6 0 8.4 0 0 2.8 0 5.6 0 8.4 -2.8 0-5.6 0-8.4 0C678.2 587.6 678.2 584.8 678.2 582zM678.2 567.9c2.8 0 5.6 0 8.4 0 0 2.8 0 5.6 0 8.4 -2.8 0-5.6 0-8.4 0C678.2 573.5 678.2 570.7 678.2 567.9zM678.2 553.8c2.8 0 5.6 0 8.4 0 0 2.8 0 5.6 0 8.4 -2.8 0-5.6 0-8.4 0C678.2 559.4 678.2 556.6 678.2 553.8zM678.2 539.7c2.8 0 5.6 0 8.4 0 0 2.8 0 5.6 0 8.4 -2.8 0-5.6 0-8.4 0C678.2 545.3 678.2 542.5 678.2 539.7zM678.2 525.7c2.8 0 5.6 0 8.4 0 0 2.8 0 5.6 0 8.4 -2.8 0-5.6 0-8.4 0C678.2 531.3 678.2 528.5 678.2 525.7zM678.2 511.6c2.8 0 5.6 0 8.4 0 0 2.8 0 5.6 0 8.4 -2.8 0-5.6 0-8.4 0C678.2 517.2 678.2 514.4 678.2 511.6zM869.5 520c-2.8 0-5.6 0-8.4 0 0-2.8 0-5.6 0-8.4 2.8 0 5.6 0 8.4 0C869.5 514.4 869.5 517.2 869.5 520zM869.5 534.1c-2.8 0-5.6 0-8.4 0 0-2.8 0-5.6 0-8.4 2.8 0 5.6 0 8.4 0C869.5 528.5 869.5 531.3 869.5 534.1zM869.5 548.1c-2.8 0-5.6 0-8.4 0 0-2.8 0-5.6 0-8.4 2.8 0 5.6 0 8.4 0C869.5 542.5 869.5 545.3 869.5 548.1zM869.5 562.2c-2.8 0-5.6 0-8.4 0 0-2.8 0-5.6 0-8.4 2.8 0 5.6 0 8.4 0C869.5 556.6 869.5 559.4 869.5 562.2zM869.5 576.3c-2.8 0-5.6 0-8.4 0 0-2.8 0-5.6 0-8.4 2.8 0 5.6 0 8.4 0C869.5 570.7 869.5 573.5 869.5 576.3zM869.5 590.4c-2.8 0-5.6 0-8.4 0 0-2.8 0-5.6 0-8.4 2.8 0 5.6 0 8.4 0C869.5 584.8 869.5 587.6 869.5 590.4zM869.5 604.4c-2.8 0-5.6 0-8.4 0 0-2.8 0-5.6 0-8.4 2.8 0 5.6 0 8.4 0C869.5 598.8 869.5 601.6 869.5 604.4zM869.5 618.5c-2.8 0-5.6 0-8.4 0 0-2.8 0-5.6 0-8.4 2.8 0 5.6 0 8.4 0C869.5 612.9 869.5 615.7 869.5 618.5zM869.5 632.6c-2.8 0-5.6 0-8.4 0 0-2.8 0-5.6 0-8.4 2.8 0 5.6 0 8.4 0C869.5 627 869.5 629.8 869.5 632.6zM869.5 646.6c-2.8 0-5.6 0-8.4 0 0-2.8 0-5.6 0-8.4 2.8 0 5.6 0 8.4 0C869.5 641 869.5 643.8 869.5 646.6zM869.5 660.7c-2.8 0-5.6 0-8.4 0 0-2.8 0-5.6 0-8.4 2.8 0 5.6 0 8.4 0C869.5 655.1 869.5 657.9 869.5 660.7zM869.5 674.8c-2.8 0-5.6 0-8.4 0 0-2.8 0-5.6 0-8.4 2.8 0 5.6 0 8.4 0C869.5 669.2 869.5 672 869.5 674.8zM692.3 666.4c2.8 0 5.6 0 8.4 0 0 2.8 0 5.6 0 8.4 -2.8 0-5.6 0-8.4 0C692.3 672 692.3 669.2 692.3 666.4zM692.3 652.3c2.8 0 5.6 0 8.4 0 0 2.8 0 5.6 0 8.4 -2.8 0-5.6 0-8.4 0C692.3 657.9 692.3 655.1 692.3 652.3zM692.3 638.2c2.8 0 5.6 0 8.4 0 0 2.8 0 5.6 0 8.4 -2.8 0-5.6 0-8.4 0C692.3 643.8 692.3 641 692.3 638.2zM692.3 624.2c2.8 0 5.6 0 8.4 0 0 2.8 0 5.6 0 8.4 -2.8 0-5.6 0-8.4 0C692.3 629.8 692.3 627 692.3 624.2zM692.3 610.1c2.8 0 5.6 0 8.4 0 0 2.8 0 5.6 0 8.4 -2.8 0-5.6 0-8.4 0C692.3 615.7 692.3 612.9 692.3 610.1zM692.3 596c2.8 0 5.6 0 8.4 0 0 2.8 0 5.6 0 8.4 -2.8 0-5.6 0-8.4 0C692.3 601.6 692.3 598.8 692.3 596zM692.3 582c2.8 0 5.6 0 8.4 0 0 2.8 0 5.6 0 8.4 -2.8 0-5.6 0-8.4 0C692.3 587.6 692.3 584.8 692.3 582zM692.3 567.9c2.8 0 5.6 0 8.4 0 0 2.8 0 5.6 0 8.4 -2.8 0-5.6 0-8.4 0C692.3 573.5 692.3 570.7 692.3 567.9zM692.3 553.8c2.8 0 5.6 0 8.4 0 0 2.8 0 5.6 0 8.4 -2.8 0-5.6 0-8.4 0C692.3 559.4 692.3 556.6 692.3 553.8zM692.3 539.7c2.8 0 5.6 0 8.4 0 0 2.8 0 5.6 0 8.4 -2.8 0-5.6 0-8.4 0C692.3 545.3 692.3 542.5 692.3 539.7zM692.3 525.7c2.8 0 5.6 0 8.4 0 0 2.8 0 5.6 0 8.4 -2.8 0-5.6 0-8.4 0C692.3 531.3 692.3 528.5 692.3 525.7zM855.4 534.1c-2.8 0-5.6 0-8.4 0 0-2.8 0-5.6 0-8.4 2.8 0 5.6 0 8.4 0C855.4 528.5 855.4 531.3 855.4 534.1zM855.4 548.1c-2.8 0-5.6 0-8.4 0 0-2.8 0-5.6 0-8.4 2.8 0 5.6 0 8.4 0C855.4 542.5 855.4 545.3 855.4 548.1zM855.4 562.2c-2.8 0-5.6 0-8.4 0 0-2.8 0-5.6 0-8.4 2.8 0 5.6 0 8.4 0C855.4 556.6 855.4 559.4 855.4 562.2zM855.4 576.3c-2.8 0-5.6 0-8.4 0 0-2.8 0-5.6 0-8.4 2.8 0 5.6 0 8.4 0C855.4 570.7 855.4 573.5 855.4 576.3zM855.4 590.4c-2.8 0-5.6 0-8.4 0 0-2.8 0-5.6 0-8.4 2.8 0 5.6 0 8.4 0C855.4 584.8 855.4 587.6 855.4 590.4zM855.4 604.4c-2.8 0-5.6 0-8.4 0 0-2.8 0-5.6 0-8.4 2.8 0 5.6 0 8.4 0C855.4 598.8 855.4 601.6 855.4 604.4zM855.4 618.5c-2.8 0-5.6 0-8.4 0 0-2.8 0-5.6 0-8.4 2.8 0 5.6 0 8.4 0C855.4 612.9 855.4 615.7 855.4 618.5zM855.4 632.6c-2.8 0-5.6 0-8.4 0 0-2.8 0-5.6 0-8.4 2.8 0 5.6 0 8.4 0C855.4 627 855.4 629.8 855.4 632.6zM855.4 646.6c-2.8 0-5.6 0-8.4 0 0-2.8 0-5.6 0-8.4 2.8 0 5.6 0 8.4 0C855.4 641 855.4 643.8 855.4 646.6zM855.4 660.7c-2.8 0-5.6 0-8.4 0 0-2.8 0-5.6 0-8.4 2.8 0 5.6 0 8.4 0C855.4 655.1 855.4 657.9 855.4 660.7zM706.3 652.3c2.8 0 5.6 0 8.4 0 0 2.8 0 5.6 0 8.4 -2.8 0-5.6 0-8.4 0C706.3 657.9 706.3 655.1 706.3 652.3zM706.3 638.2c2.8 0 5.6 0 8.4 0 0 2.8 0 5.6 0 8.4 -2.8 0-5.6 0-8.4 0C706.3 643.8 706.3 641 706.3 638.2zM706.3 624.2c2.8 0 5.6 0 8.4 0 0 2.8 0 5.6 0 8.4 -2.8 0-5.6 0-8.4 0C706.3 629.8 706.3 627 706.3 624.2zM706.3 610.1c2.8 0 5.6 0 8.4 0 0 2.8 0 5.6 0 8.4 -2.8 0-5.6 0-8.4 0C706.3 615.7 706.3 612.9 706.3 610.1zM706.3 596c2.8 0 5.6 0 8.4 0 0 2.8 0 5.6 0 8.4 -2.8 0-5.6 0-8.4 0C706.3 601.6 706.3 598.8 706.3 596zM706.3 582c2.8 0 5.6 0 8.4 0 0 2.8 0 5.6 0 8.4 -2.8 0-5.6 0-8.4 0C706.3 587.6 706.3 584.8 706.3 582zM706.3 567.9c2.8 0 5.6 0 8.4 0 0 2.8 0 5.6 0 8.4 -2.8 0-5.6 0-8.4 0C706.3 573.5 706.3 570.7 706.3 567.9zM706.3 553.8c2.8 0 5.6 0 8.4 0 0 2.8 0 5.6 0 8.4 -2.8 0-5.6 0-8.4 0C706.3 559.4 706.3 556.6 706.3 553.8zM706.3 539.7c2.8 0 5.6 0 8.4 0 0 2.8 0 5.6 0 8.4 -2.8 0-5.6 0-8.4 0C706.3 545.3 706.3 542.5 706.3 539.7zM841.4 548.1c-2.8 0-5.6 0-8.4 0 0-2.8 0-5.6 0-8.4 2.8 0 5.6 0 8.4 0C841.4 542.5 841.4 545.3 841.4 548.1zM841.4 562.2c-2.8 0-5.6 0-8.4 0 0-2.8 0-5.6 0-8.4 2.8 0 5.6 0 8.4 0C841.4 556.6 841.4 559.4 841.4 562.2zM841.4 576.3c-2.8 0-5.6 0-8.4 0 0-2.8 0-5.6 0-8.4 2.8 0 5.6 0 8.4 0C841.4 570.7 841.4 573.5 841.4 576.3zM841.4 590.4c-2.8 0-5.6 0-8.4 0 0-2.8 0-5.6 0-8.4 2.8 0 5.6 0 8.4 0C841.4 584.8 841.4 587.6 841.4 590.4zM841.4 604.4c-2.8 0-5.6 0-8.4 0 0-2.8 0-5.6 0-8.4 2.8 0 5.6 0 8.4 0C841.4 598.8 841.4 601.6 841.4 604.4zM841.4 618.5c-2.8 0-5.6 0-8.4 0 0-2.8 0-5.6 0-8.4 2.8 0 5.6 0 8.4 0C841.4 612.9 841.4 615.7 841.4 618.5zM841.4 632.6c-2.8 0-5.6 0-8.4 0 0-2.8 0-5.6 0-8.4 2.8 0 5.6 0 8.4 0C841.4 627 841.4 629.8 841.4 632.6zM841.4 646.6c-2.8 0-5.6 0-8.4 0 0-2.8 0-5.6 0-8.4 2.8 0 5.6 0 8.4 0C841.4 641 841.4 643.8 841.4 646.6zM720.4 638.2c2.8 0 5.6 0 8.4 0 0 2.8 0 5.6 0 8.4 -2.8 0-5.6 0-8.4 0C720.4 643.8 720.4 641 720.4 638.2zM720.4 624.2c2.8 0 5.6 0 8.4 0 0 2.8 0 5.6 0 8.4 -2.8 0-5.6 0-8.4 0C720.4 629.8 720.4 627 720.4 624.2zM720.4 610.1c2.8 0 5.6 0 8.4 0 0 2.8 0 5.6 0 8.4 -2.8 0-5.6 0-8.4 0C720.4 615.7 720.4 612.9 720.4 610.1zM720.4 596c2.8 0 5.6 0 8.4 0 0 2.8 0 5.6 0 8.4 -2.8 0-5.6 0-8.4 0C720.4 601.6 720.4 598.8 720.4 596zM720.4 582c2.8 0 5.6 0 8.4 0 0 2.8 0 5.6 0 8.4 -2.8 0-5.6 0-8.4 0C720.4 587.6 720.4 584.8 720.4 582zM720.4 567.9c2.8 0 5.6 0 8.4 0 0 2.8 0 5.6 0 8.4 -2.8 0-5.6 0-8.4 0C720.4 573.5 720.4 570.7 720.4 567.9zM720.4 553.8c2.8 0 5.6 0 8.4 0 0 2.8 0 5.6 0 8.4 -2.8 0-5.6 0-8.4 0C720.4 559.4 720.4 556.6 720.4 553.8zM827.3 562.2c-2.8 0-5.6 0-8.4 0 0-2.8 0-5.6 0-8.4 2.8 0 5.6 0 8.4 0C827.3 556.6 827.3 559.4 827.3 562.2zM827.3 576.3c-2.8 0-5.6 0-8.4 0 0-2.8 0-5.6 0-8.4 2.8 0 5.6 0 8.4 0C827.3 570.7 827.3 573.5 827.3 576.3zM827.3 590.4c-2.8 0-5.6 0-8.4 0 0-2.8 0-5.6 0-8.4 2.8 0 5.6 0 8.4 0C827.3 584.8 827.3 587.6 827.3 590.4zM827.3 604.4c-2.8 0-5.6 0-8.4 0 0-2.8 0-5.6 0-8.4 2.8 0 5.6 0 8.4 0C827.3 598.8 827.3 601.6 827.3 604.4zM827.3 618.5c-2.8 0-5.6 0-8.4 0 0-2.8 0-5.6 0-8.4 2.8 0 5.6 0 8.4 0C827.3 612.9 827.3 615.7 827.3 618.5zM827.3 632.6c-2.8 0-5.6 0-8.4 0 0-2.8 0-5.6 0-8.4 2.8 0 5.6 0 8.4 0C827.3 627 827.3 629.8 827.3 632.6zM734.5 624.2c2.8 0 5.6 0 8.4 0 0 2.8 0 5.6 0 8.4 -2.8 0-5.6 0-8.4 0C734.5 629.8 734.5 627 734.5 624.2zM734.5 610.1c2.8 0 5.6 0 8.4 0 0 2.8 0 5.6 0 8.4 -2.8 0-5.6 0-8.4 0C734.5 615.7 734.5 612.9 734.5 610.1zM734.5 596c2.8 0 5.6 0 8.4 0 0 2.8 0 5.6 0 8.4 -2.8 0-5.6 0-8.4 0C734.5 601.6 734.5 598.8 734.5 596zM734.5 582c2.8 0 5.6 0 8.4 0 0 2.8 0 5.6 0 8.4 -2.8 0-5.6 0-8.4 0C734.5 587.6 734.5 584.8 734.5 582zM734.5 567.9c2.8 0 5.6 0 8.4 0 0 2.8 0 5.6 0 8.4 -2.8 0-5.6 0-8.4 0C734.5 573.5 734.5 570.7 734.5 567.9zM813.2 576.3c-2.8 0-5.6 0-8.4 0 0-2.8 0-5.6 0-8.4 2.8 0 5.6 0 8.4 0C813.2 570.7 813.2 573.5 813.2 576.3zM813.2 590.4c-2.8 0-5.6 0-8.4 0 0-2.8 0-5.6 0-8.4 2.8 0 5.6 0 8.4 0C813.2 584.8 813.2 587.6 813.2 590.4zM813.2 604.4c-2.8 0-5.6 0-8.4 0 0-2.8 0-5.6 0-8.4 2.8 0 5.6 0 8.4 0C813.2 598.8 813.2 601.6 813.2 604.4zM813.2 618.5c-2.8 0-5.6 0-8.4 0 0-2.8 0-5.6 0-8.4 2.8 0 5.6 0 8.4 0C813.2 612.9 813.2 615.7 813.2 618.5zM748.5 610.1c2.8 0 5.6 0 8.4 0 0 2.8 0 5.6 0 8.4 -2.8 0-5.6 0-8.4 0C748.5 615.7 748.5 612.9 748.5 610.1zM748.5 596c2.8 0 5.6 0 8.4 0 0 2.8 0 5.6 0 8.4 -2.8 0-5.6 0-8.4 0C748.5 601.6 748.5 598.8 748.5 596zM748.5 582c2.8 0 5.6 0 8.4 0 0 2.8 0 5.6 0 8.4 -2.8 0-5.6 0-8.4 0C748.5 587.6 748.5 584.8 748.5 582zM799.2 590.4c-2.8 0-5.6 0-8.4 0 0-2.8 0-5.6 0-8.4 2.8 0 5.6 0 8.4 0C799.2 584.8 799.2 587.6 799.2 590.4zM799.2 604.4c-2.8 0-5.6 0-8.4 0 0-2.8 0-5.6 0-8.4 2.8 0 5.6 0 8.4 0C799.2 598.8 799.2 601.6 799.2 604.4zM762.6 596c2.8 0 5.6 0 8.4 0 0 2.8 0 5.6 0 8.4 -2.8 0-5.6 0-8.4 0C762.6 601.6 762.6 598.8 762.6 596zM776.7 596c2.8 0 5.6 0 8.4 0 0 2.8 0 5.6 0 8.4 -2.8 0-5.6 0-8.4 0C776.7 601.6 776.7 598.8 776.7 596zM785.1 590.4c-2.8 0-5.6 0-8.4 0 0-2.8 0-5.6 0-8.4 2.8 0 5.6 0 8.4 0C785.1 584.8 785.1 587.6 785.1 590.4zM771 590.4c-2.8 0-5.6 0-8.4 0 0-2.8 0-5.6 0-8.4 2.8 0 5.6 0 8.4 0C771 584.8 771 587.6 771 590.4zM762.6 610.1c2.8 0 5.6 0 8.4 0 0 2.8 0 5.6 0 8.4 -2.8 0-5.6 0-8.4 0C762.6 615.7 762.6 612.9 762.6 610.1zM776.7 610.1c2.8 0 5.6 0 8.4 0 0 2.8 0 5.6 0 8.4 -2.8 0-5.6 0-8.4 0C776.7 615.7 776.7 612.9 776.7 610.1zM790.8 610.1c2.8 0 5.6 0 8.4 0 0 2.8 0 5.6 0 8.4 -2.8 0-5.6 0-8.4 0C790.8 615.7 790.8 612.9 790.8 610.1zM799.2 576.3c-2.8 0-5.6 0-8.4 0 0-2.8 0-5.6 0-8.4 2.8 0 5.6 0 8.4 0C799.2 570.7 799.2 573.5 799.2 576.3zM785.1 576.3c-2.8 0-5.6 0-8.4 0 0-2.8 0-5.6 0-8.4 2.8 0 5.6 0 8.4 0C785.1 570.7 785.1 573.5 785.1 576.3zM771 576.3c-2.8 0-5.6 0-8.4 0 0-2.8 0-5.6 0-8.4 2.8 0 5.6 0 8.4 0C771 570.7 771 573.5 771 576.3zM756.9 576.3c-2.8 0-5.6 0-8.4 0 0-2.8 0-5.6 0-8.4 2.8 0 5.6 0 8.4 0C756.9 570.7 756.9 573.5 756.9 576.3zM748.5 624.2c2.8 0 5.6 0 8.4 0 0 2.8 0 5.6 0 8.4 -2.8 0-5.6 0-8.4 0C748.5 629.8 748.5 627 748.5 624.2zM762.6 624.2c2.8 0 5.6 0 8.4 0 0 2.8 0 5.6 0 8.4 -2.8 0-5.6 0-8.4 0C762.6 629.8 762.6 627 762.6 624.2zM776.7 624.2c2.8 0 5.6 0 8.4 0 0 2.8 0 5.6 0 8.4 -2.8 0-5.6 0-8.4 0C776.7 629.8 776.7 627 776.7 624.2zM790.8 624.2c2.8 0 5.6 0 8.4 0 0 2.8 0 5.6 0 8.4 -2.8 0-5.6 0-8.4 0C790.8 629.8 790.8 627 790.8 624.2zM804.8 624.2c2.8 0 5.6 0 8.4 0 0 2.8 0 5.6 0 8.4 -2.8 0-5.6 0-8.4 0C804.8 629.8 804.8 627 804.8 624.2zM813.2 562.2c-2.8 0-5.6 0-8.4 0 0-2.8 0-5.6 0-8.4 2.8 0 5.6 0 8.4 0C813.2 556.6 813.2 559.4 813.2 562.2zM799.2 562.2c-2.8 0-5.6 0-8.4 0 0-2.8 0-5.6 0-8.4 2.8 0 5.6 0 8.4 0C799.2 556.6 799.2 559.4 799.2 562.2zM785.1 562.2c-2.8 0-5.6 0-8.4 0 0-2.8 0-5.6 0-8.4 2.8 0 5.6 0 8.4 0C785.1 556.6 785.1 559.4 785.1 562.2zM771 562.2c-2.8 0-5.6 0-8.4 0 0-2.8 0-5.6 0-8.4 2.8 0 5.6 0 8.4 0C771 556.6 771 559.4 771 562.2zM756.9 562.2c-2.8 0-5.6 0-8.4 0 0-2.8 0-5.6 0-8.4 2.8 0 5.6 0 8.4 0C756.9 556.6 756.9 559.4 756.9 562.2zM742.9 562.2c-2.8 0-5.6 0-8.4 0 0-2.8 0-5.6 0-8.4 2.8 0 5.6 0 8.4 0C742.9 556.6 742.9 559.4 742.9 562.2zM734.5 638.2c2.8 0 5.6 0 8.4 0 0 2.8 0 5.6 0 8.4 -2.8 0-5.6 0-8.4 0C734.5 643.8 734.5 641 734.5 638.2zM748.5 638.2c2.8 0 5.6 0 8.4 0 0 2.8 0 5.6 0 8.4 -2.8 0-5.6 0-8.4 0C748.5 643.8 748.5 641 748.5 638.2zM762.6 638.2c2.8 0 5.6 0 8.4 0 0 2.8 0 5.6 0 8.4 -2.8 0-5.6 0-8.4 0C762.6 643.8 762.6 641 762.6 638.2zM776.7 638.2c2.8 0 5.6 0 8.4 0 0 2.8 0 5.6 0 8.4 -2.8 0-5.6 0-8.4 0C776.7 643.8 776.7 641 776.7 638.2zM790.8 638.2c2.8 0 5.6 0 8.4 0 0 2.8 0 5.6 0 8.4 -2.8 0-5.6 0-8.4 0C790.8 643.8 790.8 641 790.8 638.2zM804.8 638.2c2.8 0 5.6 0 8.4 0 0 2.8 0 5.6 0 8.4 -2.8 0-5.6 0-8.4 0C804.8 643.8 804.8 641 804.8 638.2zM818.9 638.2c2.8 0 5.6 0 8.4 0 0 2.8 0 5.6 0 8.4 -2.8 0-5.6 0-8.4 0C818.9 643.8 818.9 641 818.9 638.2zM827.3 548.1c-2.8 0-5.6 0-8.4 0 0-2.8 0-5.6 0-8.4 2.8 0 5.6 0 8.4 0C827.3 542.5 827.3 545.3 827.3 548.1zM813.2 548.1c-2.8 0-5.6 0-8.4 0 0-2.8 0-5.6 0-8.4 2.8 0 5.6 0 8.4 0C813.2 542.5 813.2 545.3 813.2 548.1zM799.2 548.1c-2.8 0-5.6 0-8.4 0 0-2.8 0-5.6 0-8.4 2.8 0 5.6 0 8.4 0C799.2 542.5 799.2 545.3 799.2 548.1zM785.1 548.1c-2.8 0-5.6 0-8.4 0 0-2.8 0-5.6 0-8.4 2.8 0 5.6 0 8.4 0C785.1 542.5 785.1 545.3 785.1 548.1zM771 548.1c-2.8 0-5.6 0-8.4 0 0-2.8 0-5.6 0-8.4 2.8 0 5.6 0 8.4 0C771 542.5 771 545.3 771 548.1zM756.9 548.1c-2.8 0-5.6 0-8.4 0 0-2.8 0-5.6 0-8.4 2.8 0 5.6 0 8.4 0C756.9 542.5 756.9 545.3 756.9 548.1zM742.9 548.1c-2.8 0-5.6 0-8.4 0 0-2.8 0-5.6 0-8.4 2.8 0 5.6 0 8.4 0C742.9 542.5 742.9 545.3 742.9 548.1zM728.8 548.1c-2.8 0-5.6 0-8.4 0 0-2.8 0-5.6 0-8.4 2.8 0 5.6 0 8.4 0C728.8 542.5 728.8 545.3 728.8 548.1zM720.4 652.3c2.8 0 5.6 0 8.4 0 0 2.8 0 5.6 0 8.4 -2.8 0-5.6 0-8.4 0C720.4 657.9 720.4 655.1 720.4 652.3zM734.5 652.3c2.8 0 5.6 0 8.4 0 0 2.8 0 5.6 0 8.4 -2.8 0-5.6 0-8.4 0C734.5 657.9 734.5 655.1 734.5 652.3zM748.5 652.3c2.8 0 5.6 0 8.4 0 0 2.8 0 5.6 0 8.4 -2.8 0-5.6 0-8.4 0C748.5 657.9 748.5 655.1 748.5 652.3zM762.6 652.3c2.8 0 5.6 0 8.4 0 0 2.8 0 5.6 0 8.4 -2.8 0-5.6 0-8.4 0C762.6 657.9 762.6 655.1 762.6 652.3zM776.7 652.3c2.8 0 5.6 0 8.4 0 0 2.8 0 5.6 0 8.4 -2.8 0-5.6 0-8.4 0C776.7 657.9 776.7 655.1 776.7 652.3zM790.8 652.3c2.8 0 5.6 0 8.4 0 0 2.8 0 5.6 0 8.4 -2.8 0-5.6 0-8.4 0C790.8 657.9 790.8 655.1 790.8 652.3zM804.8 652.3c2.8 0 5.6 0 8.4 0 0 2.8 0 5.6 0 8.4 -2.8 0-5.6 0-8.4 0C804.8 657.9 804.8 655.1 804.8 652.3zM818.9 652.3c2.8 0 5.6 0 8.4 0 0 2.8 0 5.6 0 8.4 -2.8 0-5.6 0-8.4 0C818.9 657.9 818.9 655.1 818.9 652.3zM833 652.3c2.8 0 5.6 0 8.4 0 0 2.8 0 5.6 0 8.4 -2.8 0-5.6 0-8.4 0C833 657.9 833 655.1 833 652.3zM841.4 534.1c-2.8 0-5.6 0-8.4 0 0-2.8 0-5.6 0-8.4 2.8 0 5.6 0 8.4 0C841.4 528.5 841.4 531.3 841.4 534.1zM827.3 534.1c-2.8 0-5.6 0-8.4 0 0-2.8 0-5.6 0-8.4 2.8 0 5.6 0 8.4 0C827.3 528.5 827.3 531.3 827.3 534.1zM813.2 534.1c-2.8 0-5.6 0-8.4 0 0-2.8 0-5.6 0-8.4 2.8 0 5.6 0 8.4 0C813.2 528.5 813.2 531.3 813.2 534.1zM799.2 534.1c-2.8 0-5.6 0-8.4 0 0-2.8 0-5.6 0-8.4 2.8 0 5.6 0 8.4 0C799.2 528.5 799.2 531.3 799.2 534.1zM785.1 534.1c-2.8 0-5.6 0-8.4 0 0-2.8 0-5.6 0-8.4 2.8 0 5.6 0 8.4 0C785.1 528.5 785.1 531.3 785.1 534.1zM771 534.1c-2.8 0-5.6 0-8.4 0 0-2.8 0-5.6 0-8.4 2.8 0 5.6 0 8.4 0C771 528.5 771 531.3 771 534.1zM756.9 534.1c-2.8 0-5.6 0-8.4 0 0-2.8 0-5.6 0-8.4 2.8 0 5.6 0 8.4 0C756.9 528.5 756.9 531.3 756.9 534.1zM742.9 534.1c-2.8 0-5.6 0-8.4 0 0-2.8 0-5.6 0-8.4 2.8 0 5.6 0 8.4 0C742.9 528.5 742.9 531.3 742.9 534.1zM728.8 534.1c-2.8 0-5.6 0-8.4 0 0-2.8 0-5.6 0-8.4 2.8 0 5.6 0 8.4 0C728.8 528.5 728.8 531.3 728.8 534.1zM714.7 534.1c-2.8 0-5.6 0-8.4 0 0-2.8 0-5.6 0-8.4 2.8 0 5.6 0 8.4 0C714.7 528.5 714.7 531.3 714.7 534.1zM706.3 666.4c2.8 0 5.6 0 8.4 0 0 2.8 0 5.6 0 8.4 -2.8 0-5.6 0-8.4 0C706.3 672 706.3 669.2 706.3 666.4zM720.4 666.4c2.8 0 5.6 0 8.4 0 0 2.8 0 5.6 0 8.4 -2.8 0-5.6 0-8.4 0C720.4 672 720.4 669.2 720.4 666.4zM734.5 666.4c2.8 0 5.6 0 8.4 0 0 2.8 0 5.6 0 8.4 -2.8 0-5.6 0-8.4 0C734.5 672 734.5 669.2 734.5 666.4zM748.5 666.4c2.8 0 5.6 0 8.4 0 0 2.8 0 5.6 0 8.4 -2.8 0-5.6 0-8.4 0C748.5 672 748.5 669.2 748.5 666.4zM762.6 666.4c2.8 0 5.6 0 8.4 0 0 2.8 0 5.6 0 8.4 -2.8 0-5.6 0-8.4 0C762.6 672 762.6 669.2 762.6 666.4zM776.7 666.4c2.8 0 5.6 0 8.4 0 0 2.8 0 5.6 0 8.4 -2.8 0-5.6 0-8.4 0C776.7 672 776.7 669.2 776.7 666.4zM790.8 666.4c2.8 0 5.6 0 8.4 0 0 2.8 0 5.6 0 8.4 -2.8 0-5.6 0-8.4 0C790.8 672 790.8 669.2 790.8 666.4zM804.8 666.4c2.8 0 5.6 0 8.4 0 0 2.8 0 5.6 0 8.4 -2.8 0-5.6 0-8.4 0C804.8 672 804.8 669.2 804.8 666.4zM818.9 666.4c2.8 0 5.6 0 8.4 0 0 2.8 0 5.6 0 8.4 -2.8 0-5.6 0-8.4 0C818.9 672 818.9 669.2 818.9 666.4zM833 666.4c2.8 0 5.6 0 8.4 0 0 2.8 0 5.6 0 8.4 -2.8 0-5.6 0-8.4 0C833 672 833 669.2 833 666.4zM847 666.4c2.8 0 5.6 0 8.4 0 0 2.8 0 5.6 0 8.4 -2.8 0-5.6 0-8.4 0C847 672 847 669.2 847 666.4zM855.4 520c-2.8 0-5.6 0-8.4 0 0-2.8 0-5.6 0-8.4 2.8 0 5.6 0 8.4 0C855.4 514.4 855.4 517.2 855.4 520zM841.4 520c-2.8 0-5.6 0-8.4 0 0-2.8 0-5.6 0-8.4 2.8 0 5.6 0 8.4 0C841.4 514.4 841.4 517.2 841.4 520zM827.3 520c-2.8 0-5.6 0-8.4 0 0-2.8 0-5.6 0-8.4 2.8 0 5.6 0 8.4 0C827.3 514.4 827.3 517.2 827.3 520zM813.2 520c-2.8 0-5.6 0-8.4 0 0-2.8 0-5.6 0-8.4 2.8 0 5.6 0 8.4 0C813.2 514.4 813.2 517.2 813.2 520zM799.2 520c-2.8 0-5.6 0-8.4 0 0-2.8 0-5.6 0-8.4 2.8 0 5.6 0 8.4 0C799.2 514.4 799.2 517.2 799.2 520zM785.1 520c-2.8 0-5.6 0-8.4 0 0-2.8 0-5.6 0-8.4 2.8 0 5.6 0 8.4 0C785.1 514.4 785.1 517.2 785.1 520zM771 520c-2.8 0-5.6 0-8.4 0 0-2.8 0-5.6 0-8.4 2.8 0 5.6 0 8.4 0C771 514.4 771 517.2 771 520zM756.9 520c-2.8 0-5.6 0-8.4 0 0-2.8 0-5.6 0-8.4 2.8 0 5.6 0 8.4 0C756.9 514.4 756.9 517.2 756.9 520zM742.9 520c-2.8 0-5.6 0-8.4 0 0-2.8 0-5.6 0-8.4 2.8 0 5.6 0 8.4 0C742.9 514.4 742.9 517.2 742.9 520zM728.8 520c-2.8 0-5.6 0-8.4 0 0-2.8 0-5.6 0-8.4 2.8 0 5.6 0 8.4 0C728.8 514.4 728.8 517.2 728.8 520zM714.7 520c-2.8 0-5.6 0-8.4 0 0-2.8 0-5.6 0-8.4 2.8 0 5.6 0 8.4 0C714.7 514.4 714.7 517.2 714.7 520zM700.7 520c-2.8 0-5.6 0-8.4 0 0-2.8 0-5.6 0-8.4 2.8 0 5.6 0 8.4 0C700.7 514.4 700.7 517.2 700.7 520zM692.3 680.4c2.8 0 5.6 0 8.4 0 0 2.8 0 5.6 0 8.4 -2.8 0-5.6 0-8.4 0C692.3 686 692.3 683.2 692.3 680.4zM706.3 680.4c2.8 0 5.6 0 8.4 0 0 2.8 0 5.6 0 8.4 -2.8 0-5.6 0-8.4 0C706.3 686 706.3 683.2 706.3 680.4zM720.4 680.4c2.8 0 5.6 0 8.4 0 0 2.8 0 5.6 0 8.4 -2.8 0-5.6 0-8.4 0C720.4 686 720.4 683.2 720.4 680.4zM734.5 680.4c2.8 0 5.6 0 8.4 0 0 2.8 0 5.6 0 8.4 -2.8 0-5.6 0-8.4 0C734.5 686 734.5 683.2 734.5 680.4zM748.5 680.4c2.8 0 5.6 0 8.4 0 0 2.8 0 5.6 0 8.4 -2.8 0-5.6 0-8.4 0C748.5 686 748.5 683.2 748.5 680.4zM762.6 680.4c2.8 0 5.6 0 8.4 0 0 2.8 0 5.6 0 8.4 -2.8 0-5.6 0-8.4 0C762.6 686 762.6 683.2 762.6 680.4zM776.7 680.4c2.8 0 5.6 0 8.4 0 0 2.8 0 5.6 0 8.4 -2.8 0-5.6 0-8.4 0C776.7 686 776.7 683.2 776.7 680.4zM790.8 680.4c2.8 0 5.6 0 8.4 0 0 2.8 0 5.6 0 8.4 -2.8 0-5.6 0-8.4 0C790.8 686 790.8 683.2 790.8 680.4zM804.8 680.4c2.8 0 5.6 0 8.4 0 0 2.8 0 5.6 0 8.4 -2.8 0-5.6 0-8.4 0C804.8 686 804.8 683.2 804.8 680.4zM818.9 680.4c2.8 0 5.6 0 8.4 0 0 2.8 0 5.6 0 8.4 -2.8 0-5.6 0-8.4 0C818.9 686 818.9 683.2 818.9 680.4zM833 680.4c2.8 0 5.6 0 8.4 0 0 2.8 0 5.6 0 8.4 -2.8 0-5.6 0-8.4 0C833 686 833 683.2 833 680.4zM847 680.4c2.8 0 5.6 0 8.4 0 0 2.8 0 5.6 0 8.4 -2.8 0-5.6 0-8.4 0C847 686 847 683.2 847 680.4zM861.1 680.4c2.8 0 5.6 0 8.4 0 0 2.8 0 5.6 0 8.4 -2.8 0-5.6 0-8.4 0C861.1 686 861.1 683.2 861.1 680.4zM869.5 505.9c-2.8 0-5.6 0-8.4 0 0-2.8 0-5.6 0-8.4 2.8 0 5.6 0 8.4 0C869.5 500.3 869.5 503.1 869.5 505.9zM855.4 505.9c-2.8 0-5.6 0-8.4 0 0-2.8 0-5.6 0-8.4 2.8 0 5.6 0 8.4 0C855.4 500.3 855.4 503.1 855.4 505.9zM841.4 505.9c-2.8 0-5.6 0-8.4 0 0-2.8 0-5.6 0-8.4 2.8 0 5.6 0 8.4 0C841.4 500.3 841.4 503.1 841.4 505.9zM827.3 505.9c-2.8 0-5.6 0-8.4 0 0-2.8 0-5.6 0-8.4 2.8 0 5.6 0 8.4 0C827.3 500.3 827.3 503.1 827.3 505.9zM813.2 505.9c-2.8 0-5.6 0-8.4 0 0-2.8 0-5.6 0-8.4 2.8 0 5.6 0 8.4 0C813.2 500.3 813.2 503.1 813.2 505.9zM799.2 505.9c-2.8 0-5.6 0-8.4 0 0-2.8 0-5.6 0-8.4 2.8 0 5.6 0 8.4 0C799.2 500.3 799.2 503.1 799.2 505.9zM785.1 505.9c-2.8 0-5.6 0-8.4 0 0-2.8 0-5.6 0-8.4 2.8 0 5.6 0 8.4 0C785.1 500.3 785.1 503.1 785.1 505.9zM771 505.9c-2.8 0-5.6 0-8.4 0 0-2.8 0-5.6 0-8.4 2.8 0 5.6 0 8.4 0C771 500.3 771 503.1 771 505.9zM756.9 505.9c-2.8 0-5.6 0-8.4 0 0-2.8 0-5.6 0-8.4 2.8 0 5.6 0 8.4 0C756.9 500.3 756.9 503.1 756.9 505.9zM742.9 505.9c-2.8 0-5.6 0-8.4 0 0-2.8 0-5.6 0-8.4 2.8 0 5.6 0 8.4 0C742.9 500.3 742.9 503.1 742.9 505.9zM728.8 505.9c-2.8 0-5.6 0-8.4 0 0-2.8 0-5.6 0-8.4 2.8 0 5.6 0 8.4 0C728.8 500.3 728.8 503.1 728.8 505.9zM714.7 505.9c-2.8 0-5.6 0-8.4 0 0-2.8 0-5.6 0-8.4 2.8 0 5.6 0 8.4 0C714.7 500.3 714.7 503.1 714.7 505.9zM700.7 505.9c-2.8 0-5.6 0-8.4 0 0-2.8 0-5.6 0-8.4 2.8 0 5.6 0 8.4 0C700.7 500.3 700.7 503.1 700.7 505.9zM686.6 505.9c-2.8 0-5.6 0-8.4 0 0-2.8 0-5.6 0-8.4 2.8 0 5.6 0 8.4 0C686.6 500.3 686.6 503.1 686.6 505.9zM678.2 694.5c2.8 0 5.6 0 8.4 0 0 2.8 0 5.6 0 8.4 -2.8 0-5.6 0-8.4 0C678.2 700.1 678.2 697.3 678.2 694.5zM692.3 694.5c2.8 0 5.6 0 8.4 0 0 2.8 0 5.6 0 8.4 -2.8 0-5.6 0-8.4 0C692.3 700.1 692.3 697.3 692.3 694.5zM706.3 694.5c2.8 0 5.6 0 8.4 0 0 2.8 0 5.6 0 8.4 -2.8 0-5.6 0-8.4 0C706.3 700.1 706.3 697.3 706.3 694.5zM720.4 694.5c2.8 0 5.6 0 8.4 0 0 2.8 0 5.6 0 8.4 -2.8 0-5.6 0-8.4 0C720.4 700.1 720.4 697.3 720.4 694.5zM734.5 694.5c2.8 0 5.6 0 8.4 0 0 2.8 0 5.6 0 8.4 -2.8 0-5.6 0-8.4 0C734.5 700.1 734.5 697.3 734.5 694.5zM748.5 694.5c2.8 0 5.6 0 8.4 0 0 2.8 0 5.6 0 8.4 -2.8 0-5.6 0-8.4 0C748.5 700.1 748.5 697.3 748.5 694.5zM762.6 694.5c2.8 0 5.6 0 8.4 0 0 2.8 0 5.6 0 8.4 -2.8 0-5.6 0-8.4 0C762.6 700.1 762.6 697.3 762.6 694.5zM776.7 694.5c2.8 0 5.6 0 8.4 0 0 2.8 0 5.6 0 8.4 -2.8 0-5.6 0-8.4 0C776.7 700.1 776.7 697.3 776.7 694.5zM790.8 694.5c2.8 0 5.6 0 8.4 0 0 2.8 0 5.6 0 8.4 -2.8 0-5.6 0-8.4 0C790.8 700.1 790.8 697.3 790.8 694.5zM804.8 694.5c2.8 0 5.6 0 8.4 0 0 2.8 0 5.6 0 8.4 -2.8 0-5.6 0-8.4 0C804.8 700.1 804.8 697.3 804.8 694.5zM818.9 694.5c2.8 0 5.6 0 8.4 0 0 2.8 0 5.6 0 8.4 -2.8 0-5.6 0-8.4 0C818.9 700.1 818.9 697.3 818.9 694.5zM833 694.5c2.8 0 5.6 0 8.4 0 0 2.8 0 5.6 0 8.4 -2.8 0-5.6 0-8.4 0C833 700.1 833 697.3 833 694.5zM847 694.5c2.8 0 5.6 0 8.4 0 0 2.8 0 5.6 0 8.4 -2.8 0-5.6 0-8.4 0C847 700.1 847 697.3 847 694.5zM861.1 694.5c2.8 0 5.6 0 8.4 0 0 2.8 0 5.6 0 8.4 -2.8 0-5.6 0-8.4 0C861.1 700.1 861.1 697.3 861.1 694.5zM875.2 694.5c2.8 0 5.6 0 8.4 0 0 2.8 0 5.6 0 8.4 -2.8 0-5.6 0-8.4 0C875.2 700.1 875.2 697.3 875.2 694.5zM883.6 483.5c0 2.8 0 5.6 0 8.4 -2.8 0-5.6 0-8.4 0 0-2.8 0-5.6 0-8.4C878 483.5 880.8 483.5 883.6 483.5zM869.5 483.5c0 2.8 0 5.6 0 8.4 -2.8 0-5.6 0-8.4 0 0-2.8 0-5.6 0-8.4C863.9 483.5 866.7 483.5 869.5 483.5zM855.4 483.5c0 2.8 0 5.6 0 8.4 -2.8 0-5.6 0-8.4 0 0-2.8 0-5.6 0-8.4C849.8 483.5 852.6 483.5 855.4 483.5zM841.4 483.5c0 2.8 0 5.6 0 8.4 -2.8 0-5.6 0-8.4 0 0-2.8 0-5.6 0-8.4C835.8 483.5 838.6 483.5 841.4 483.5zM827.3 483.5c0 2.8 0 5.6 0 8.4 -2.8 0-5.6 0-8.4 0 0-2.8 0-5.6 0-8.4C821.7 483.5 824.5 483.5 827.3 483.5zM813.2 483.5c0 2.8 0 5.6 0 8.4 -2.8 0-5.6 0-8.4 0 0-2.8 0-5.6 0-8.4C807.6 483.5 810.4 483.5 813.2 483.5zM799.2 483.5c0 2.8 0 5.6 0 8.4 -2.8 0-5.6 0-8.4 0 0-2.8 0-5.6 0-8.4C793.6 483.5 796.4 483.5 799.2 483.5zM785.1 483.5c0 2.8 0 5.6 0 8.4 -2.8 0-5.6 0-8.4 0 0-2.8 0-5.6 0-8.4C779.5 483.5 782.3 483.5 785.1 483.5zM771 483.5c0 2.8 0 5.6 0 8.4 -2.8 0-5.6 0-8.4 0 0-2.8 0-5.6 0-8.4C765.4 483.5 768.2 483.5 771 483.5zM756.9 483.5c0 2.8 0 5.6 0 8.4 -2.8 0-5.6 0-8.4 0 0-2.8 0-5.6 0-8.4C751.3 483.5 754.1 483.5 756.9 483.5zM742.9 483.5c0 2.8 0 5.6 0 8.4 -2.8 0-5.6 0-8.4 0 0-2.8 0-5.6 0-8.4C737.3 483.5 740.1 483.5 742.9 483.5zM728.8 483.5c0 2.8 0 5.6 0 8.4 -2.8 0-5.6 0-8.4 0 0-2.8 0-5.6 0-8.4C723.2 483.5 726 483.5 728.8 483.5zM714.7 483.5c0 2.8 0 5.6 0 8.4 -2.8 0-5.6 0-8.4 0 0-2.8 0-5.6 0-8.4C709.1 483.5 711.9 483.5 714.7 483.5zM700.7 483.5c0 2.8 0 5.6 0 8.4 -2.8 0-5.6 0-8.4 0 0-2.8 0-5.6 0-8.4C695.1 483.5 697.9 483.5 700.7 483.5zM686.6 483.5c0 2.8 0 5.6 0 8.4 -2.8 0-5.6 0-8.4 0 0-2.8 0-5.6 0-8.4C681 483.5 683.8 483.5 686.6 483.5zM672.5 483.5c0 2.8 0 5.6 0 8.4 -2.8 0-5.6 0-8.4 0 0-2.8 0-5.6 0-8.4C666.9 483.5 669.7 483.5 672.5 483.5zM650.1 483.5c2.8 0 5.6 0 8.4 0 0 2.8 0 5.6 0 8.4 -2.8 0-5.6 0-8.4 0C650.1 489.1 650.1 486.3 650.1 483.5zM650.1 497.5c2.8 0 5.6 0 8.4 0 0 2.8 0 5.6 0 8.4 -2.8 0-5.6 0-8.4 0C650.1 503.1 650.1 500.3 650.1 497.5zM650.1 511.6c2.8 0 5.6 0 8.4 0 0 2.8 0 5.6 0 8.4 -2.8 0-5.6 0-8.4 0C650.1 517.2 650.1 514.4 650.1 511.6zM650.1 525.7c2.8 0 5.6 0 8.4 0 0 2.8 0 5.6 0 8.4 -2.8 0-5.6 0-8.4 0C650.1 531.3 650.1 528.5 650.1 525.7zM650.1 539.7c2.8 0 5.6 0 8.4 0 0 2.8 0 5.6 0 8.4 -2.8 0-5.6 0-8.4 0C650.1 545.3 650.1 542.5 650.1 539.7zM650.1 553.8c2.8 0 5.6 0 8.4 0 0 2.8 0 5.6 0 8.4 -2.8 0-5.6 0-8.4 0C650.1 559.4 650.1 556.6 650.1 553.8zM650.1 567.9c2.8 0 5.6 0 8.4 0 0 2.8 0 5.6 0 8.4 -2.8 0-5.6 0-8.4 0C650.1 573.5 650.1 570.7 650.1 567.9zM650.1 582c2.8 0 5.6 0 8.4 0 0 2.8 0 5.6 0 8.4 -2.8 0-5.6 0-8.4 0C650.1 587.6 650.1 584.8 650.1 582zM650.1 596c2.8 0 5.6 0 8.4 0 0 2.8 0 5.6 0 8.4 -2.8 0-5.6 0-8.4 0C650.1 601.6 650.1 598.8 650.1 596zM650.1 610.1c2.8 0 5.6 0 8.4 0 0 2.8 0 5.6 0 8.4 -2.8 0-5.6 0-8.4 0C650.1 615.7 650.1 612.9 650.1 610.1zM650.1 624.2c2.8 0 5.6 0 8.4 0 0 2.8 0 5.6 0 8.4 -2.8 0-5.6 0-8.4 0C650.1 629.8 650.1 627 650.1 624.2zM650.1 638.2c2.8 0 5.6 0 8.4 0 0 2.8 0 5.6 0 8.4 -2.8 0-5.6 0-8.4 0C650.1 643.8 650.1 641 650.1 638.2zM650.1 652.3c2.8 0 5.6 0 8.4 0 0 2.8 0 5.6 0 8.4 -2.8 0-5.6 0-8.4 0C650.1 657.9 650.1 655.1 650.1 652.3zM650.1 666.4c2.8 0 5.6 0 8.4 0 0 2.8 0 5.6 0 8.4 -2.8 0-5.6 0-8.4 0C650.1 672 650.1 669.2 650.1 666.4zM650.1 680.4c2.8 0 5.6 0 8.4 0 0 2.8 0 5.6 0 8.4 -2.8 0-5.6 0-8.4 0C650.1 686 650.1 683.2 650.1 680.4zM650.1 694.5c2.8 0 5.6 0 8.4 0 0 2.8 0 5.6 0 8.4 -2.8 0-5.6 0-8.4 0C650.1 700.1 650.1 697.3 650.1 694.5zM650.1 717c0-2.8 0-5.6 0-8.4 2.8 0 5.6 0 8.4 0 0 2.8 0 5.6 0 8.4C655.7 717 652.9 717 650.1 717zM664.1 717c0-2.8 0-5.6 0-8.4 2.8 0 5.6 0 8.4 0 0 2.8 0 5.6 0 8.4C669.7 717 666.9 717 664.1 717zM678.2 717c0-2.8 0-5.6 0-8.4 2.8 0 5.6 0 8.4 0 0 2.8 0 5.6 0 8.4C683.8 717 681 717 678.2 717zM692.3 717c0-2.8 0-5.6 0-8.4 2.8 0 5.6 0 8.4 0 0 2.8 0 5.6 0 8.4C697.9 717 695.1 717 692.3 717zM706.3 717c0-2.8 0-5.6 0-8.4 2.8 0 5.6 0 8.4 0 0 2.8 0 5.6 0 8.4C711.9 717 709.1 717 706.3 717zM720.4 717c0-2.8 0-5.6 0-8.4 2.8 0 5.6 0 8.4 0 0 2.8 0 5.6 0 8.4C726 717 723.2 717 720.4 717zM734.5 717c0-2.8 0-5.6 0-8.4 2.8 0 5.6 0 8.4 0 0 2.8 0 5.6 0 8.4C740.1 717 737.3 717 734.5 717zM748.5 717c0-2.8 0-5.6 0-8.4 2.8 0 5.6 0 8.4 0 0 2.8 0 5.6 0 8.4C754.1 717 751.3 717 748.5 717zM762.6 717c0-2.8 0-5.6 0-8.4 2.8 0 5.6 0 8.4 0 0 2.8 0 5.6 0 8.4C768.2 717 765.4 717 762.6 717zM776.7 717c0-2.8 0-5.6 0-8.4 2.8 0 5.6 0 8.4 0 0 2.8 0 5.6 0 8.4C782.3 717 779.5 717 776.7 717zM790.8 717c0-2.8 0-5.6 0-8.4 2.8 0 5.6 0 8.4 0 0 2.8 0 5.6 0 8.4C796.4 717 793.6 717 790.8 717zM804.8 717c0-2.8 0-5.6 0-8.4 2.8 0 5.6 0 8.4 0 0 2.8 0 5.6 0 8.4C810.4 717 807.6 717 804.8 717zM818.9 717c0-2.8 0-5.6 0-8.4 2.8 0 5.6 0 8.4 0 0 2.8 0 5.6 0 8.4C824.5 717 821.7 717 818.9 717zM833 717c0-2.8 0-5.6 0-8.4 2.8 0 5.6 0 8.4 0 0 2.8 0 5.6 0 8.4C838.6 717 835.8 717 833 717zM847 717c0-2.8 0-5.6 0-8.4 2.8 0 5.6 0 8.4 0 0 2.8 0 5.6 0 8.4C852.6 717 849.8 717 847 717zM861.1 717c0-2.8 0-5.6 0-8.4 2.8 0 5.6 0 8.4 0 0 2.8 0 5.6 0 8.4C866.7 717 863.9 717 861.1 717zM875.2 717c0-2.8 0-5.6 0-8.4 2.8 0 5.6 0 8.4 0 0 2.8 0 5.6 0 8.4C880.8 717 878 717 875.2 717zM889.2 717c0-2.8 0-5.6 0-8.4 3.6 0 7.1 0 10.7 0 0 2.8 0 5.6 0 8.4C896.4 717 892.8 717 889.2 717z"/><path class="st12" d="M616 470.5v-2.9h4.7v-26.2h-11.8c-10.7 0-19 5.7-19 12.9v16.2H616z"/><path class="st12" d="M917.2 470.5v-2.9h-4.7v-26.2h11.8c10.7 0 19 5.7 19 12.9v16.2H917.2z"/><path class="st12" d="M616 736.9v2.9h4.7V766h-11.8c-10.7 0-19-5.7-19-12.9v-16.2H616z"/><path class="st12" d="M917.2 736.9v2.9h-4.7V766h11.8c10.7 0 19-5.7 19-12.9v-16.2H917.2z"/><rect x="775.7" y="361.4" class="st12" width="4.2" height="1.1"/><rect x="821.6" y="361.4" class="st12" width="4.2" height="1.1"/><path class="st23" d="M651 1081.7c11.2-3 18.8-10.7 17.1-17.1 -1.7-6.5-12.2-9.3-23.4-6.3 -8.1 2.2-14.3 6.8-16.5 11.6l-269.3 68.8c-6 1.5-6.8 5.6-5.6 10.2 1.2 4.5 3.9 7.7 9.9 6l267.7-75C635.2 1083 642.9 1083.9 651 1081.7z"/><path class="st23" d="M653.3 1137.8c11.2 3 18.8 10.7 17.1 17.1 -1.7 6.5-12.2 9.3-23.4 6.3 -8.1-2.2-14.3-6.8-16.5-11.6l-269.3-68.8c-6-1.5-6.8-5.6-5.6-10.2 1.2-4.5 3.9-7.7 9.9-6l267.7 75C637.5 1136.5 645.2 1135.6 653.3 1137.8z"/><path class="st24" d="M656.8 851.4H514.7 376.4c-6.6 0-12 2.8-12 6.3v155.3c0 3.5 5.4 6.3 12 6.3h138.3 142.1c6.6 0 12-2.8 12-6.3V857.6C668.8 854.2 663.5 851.4 656.8 851.4z"/><path class="st25" d="M656.8 851.4H514.7 376.4c-6.6 0-12 0.7-12 1.6v23c15.9 3.3 295 15.6 304.4 15.9v-39C668.8 852.1 663.5 851.4 656.8 851.4z"/><path class="st26" d="M375.9 851.4h-5.6 -5.4c-0.3 0-0.5 2.8-0.5 6.3v155.3c0 3.5 0.2 6.3 0.5 6.3h5.4 5.6c0.3 0 0.5-2.8 0.5-6.3V857.6C376.4 854.2 376.2 851.4 375.9 851.4z"/><path class="st26" d="M656.8 851.4H514.7v167.8h142.1c6.6 0 12-2.8 12-6.3V857.6C668.8 854.2 663.5 851.4 656.8 851.4z"/><path class="st27" d="M664.7 850.8H512.2 369.1c-6.6 0-12 2.3-12 5.2v14h155.1 164.5v-14C676.7 853.2 671.4 850.8 664.7 850.8z"/><rect x="357" y="869.8" class="st28" width="319.8" height="6.3"/><rect x="357" y="995.9" class="st28" width="319.8" height="6.3"/><path class="st27" d="M664.7 1021.4H512.2 369.1c-6.6 0-12-2.3-12-5.2v-14h155.1 164.5v14C676.7 1019.1 671.4 1021.4 664.7 1021.4z"/><rect x="397.2" y="876.1" class="st27" width="6.2" height="51.7"/><rect x="397.2" y="936.3" class="st27" width="6.2" height="59.8"/><rect x="399.9" y="876.1" class="st29" width="3.4" height="51.7"/><rect x="399.9" y="936.3" class="st29" width="3.4" height="59.8"/><rect x="395.8" y="936.3" class="st28" width="8.9" height="27.4"/><rect x="395.8" y="900.4" class="st28" width="8.9" height="16.5"/><circle class="st28" cx="400.2" cy="931.1" r="20"/><circle class="st27" cx="400.2" cy="931.1" r="11.5"/><path class="st29" d="M400.2 911.1c-0.1 0-0.2 0-0.3 0v40c0.1 0 0.2 0 0.3 0 11.1 0 20-9 20-20C420.3 920.1 411.3 911.1 400.2 911.1z"/><rect x="512.6" y="876.1" class="st27" width="6.2" height="51.7"/><rect x="512.6" y="936.3" class="st27" width="6.2" height="59.8"/><rect x="515.4" y="876.1" class="st29" width="3.4" height="51.7"/><rect x="515.4" y="936.3" class="st29" width="3.4" height="59.8"/><rect x="511.3" y="936.3" class="st28" width="8.9" height="27.4"/><rect x="511.3" y="900.4" class="st28" width="8.9" height="16.5"/><circle class="st28" cx="515.7" cy="931.1" r="20"/><circle class="st27" cx="515.7" cy="931.1" r="11.5"/><path class="st29" d="M515.7 911.1c-0.1 0-0.2 0-0.3 0v40c0.1 0 0.2 0 0.3 0 11.1 0 20-9 20-20C535.7 920.1 526.8 911.1 515.7 911.1z"/><rect x="628.1" y="876.1" class="st27" width="6.2" height="51.7"/><rect x="628.1" y="936.3" class="st27" width="6.2" height="59.8"/><rect x="630.9" y="876.1" class="st29" width="3.4" height="51.7"/><rect x="630.9" y="936.3" class="st29" width="3.4" height="59.8"/><rect x="626.8" y="936.3" class="st28" width="8.9" height="27.4"/><rect x="626.8" y="900.4" class="st28" width="8.9" height="16.5"/><circle class="st28" cx="631.2" cy="931.1" r="20"/><circle class="st27" cx="631.2" cy="931.1" r="11.5"/><path class="st29" d="M631.2 911.1c-0.1 0-0.2 0-0.3 0v40c0.1 0 0.2 0 0.3 0 11.1 0 20-9 20-20C651.2 920.1 642.3 911.1 631.2 911.1z"/><path class="st30" d="M676.7 856.1c0-2.9-5.4-5.2-12-5.2H515.2V870h161.5V856.1z"/><path class="st30" d="M664.7 1021.4c6.6 0 12-2.3 12-5.2v-14H515.2v19.2H664.7z"/><rect x="517.6" y="850.8" class="st31" width="21.6" height="19.2"/><rect x="508.1" y="850.8" class="st32" width="9.5" height="19.2"/><rect x="394.1" y="850.8" class="st31" width="26.4" height="19.2"/><rect x="382.5" y="850.8" class="st32" width="11.6" height="19.2"/><rect x="632" y="850.8" class="st31" width="21.6" height="19.2"/><rect x="622.5" y="850.8" class="st32" width="9.5" height="19.2"/><rect x="517.6" y="1002.2" class="st31" width="21.6" height="19.2"/><rect x="508.1" y="1002.2" class="st32" width="9.5" height="19.2"/><rect x="394.1" y="1002.2" class="st31" width="26.4" height="19.2"/><rect x="382.5" y="1002.2" class="st32" width="11.6" height="19.2"/><rect x="632" y="1002.2" class="st31" width="21.6" height="19.2"/><rect x="622.5" y="1002.2" class="st32" width="9.5" height="19.2"/><path class="st33" d="M1006.5 472.4c-0.4-3.6-3.9-6.2-7.8-5.7l0 0c-3.9 0.5-6.6 3.8-6.2 7.4l1.1 8.9c0.4 3.6 3.9 6.2 7.8 5.7l0 0c3.9-0.5 6.6-3.8 6.2-7.4L1006.5 472.4z"/><path class="st25" d="M1036.7 439.2c-0.6-4.6-3.3-8-6.2-7.6l-14.9 1.8c-2.8 0.3-4.7 4.3-4.1 8.9l8.3 67.8c0.6 4.6 3.3 8 6.2 7.6l14.9-1.8c2.8-0.3 4.7-4.3 4.1-8.9L1036.7 439.2z"/><path class="st30" d="M1011.5 440.2l-11.4 1.4c-3 0.4-5.1 3.1-4.7 6l7.5 61.2c0.4 3 3.1 5.1 6 4.7l11.4-1.4L1011.5 440.2z"/><polygon class="st30" points="1020.3 512.2 1011.5 440.2 1000.2 441.6 "/><path class="st30" d="M995.6 480.9c-1.4 0-3.1-0.4-4.6-1.4 -5.4-3.7-7.5-13.7-6.3-30.6 0.8-10.5 8.9-39.6 9.6-41.9 0.3-1.7 3.9-18.5 15.4-35.3 11-16.1 31.7-34.9 67.5-33.3l-0.1 4.9 0-2.4 -0.1 2.4c-26.9-1.2-48.1 9.2-63.1 31 -11.3 16.4-14.7 33.5-14.7 33.6l-0.1 0.2c-0.1 0.3-8.7 30.7-9.4 41 -1.5 20.1 2.4 25 4.1 26.2 1.5 1 2.9 0.4 2.9 0.4l2.1 4.5C998.1 480.6 996.9 480.9 995.6 480.9z"/><path class="st33" d="M995.6 482.4c-1.6 0-3.5-0.4-5.4-1.7 -5.9-4.1-8.1-14.5-6.9-31.9 0.8-10.9 9.3-41 9.7-42.3l7.6 2.1c-0.1 0.3-8.7 30.6-9.4 40.7 -1.4 19.6 2.3 24 3.4 24.8 0.7 0.5 1.4 0.4 1.6 0.3 -0.1 0-0.1 0.1-0.1 0.1l3.3 7.1C999.1 481.8 997.6 482.4 995.6 482.4z"/><path class="st33" d="M1138.6 472.4c0.4-3.6 3.9-6.2 7.8-5.7l0 0c3.9 0.5 6.6 3.8 6.2 7.4l-1.1 8.9c-0.4 3.6-3.9 6.2-7.8 5.7l0 0c-3.9-0.5-6.6-3.8-6.2-7.4L1138.6 472.4z"/><path class="st25" d="M1108.4 439.2c0.6-4.6 3.3-8 6.2-7.6l14.9 1.8c2.8 0.3 4.7 4.3 4.1 8.9l-8.3 67.8c-0.6 4.6-3.3 8-6.2 7.6l-14.9-1.8c-2.8-0.3-4.7-4.3-4.1-8.9L1108.4 439.2z"/><path class="st30" d="M1133.6 440.2l11.4 1.4c3 0.4 5.1 3.1 4.7 6l-7.5 61.2c-0.4 3-3.1 5.1-6 4.7l-11.4-1.4L1133.6 440.2z"/><polygon class="st30" points="1124.8 512.2 1133.6 440.2 1145 441.6 "/><path class="st30" d="M1149.5 480.9c-1.3 0-2.4-0.3-3.1-0.6l2.1-4.5c0.1 0 1.5 0.6 3-0.4 1.7-1.2 5.5-6.2 4.1-26.2 -0.7-10.2-9.4-40.7-9.4-41l-0.1-0.2c0-0.2-3.4-17.2-14.7-33.6 -15-21.8-36.2-32.2-63.1-31l-0.1-2.4 0 2.4h0l-0.1-4.9c35.8-1.6 56.5 17.2 67.5 33.3 11.5 16.7 15 33.6 15.4 35.3 0.6 2.3 8.8 31.3 9.6 41.9 1.2 16.9-0.8 26.9-6.3 30.6C1152.6 480.6 1150.9 480.9 1149.5 480.9z"/><path class="st33" d="M1149.6 482.4c-2.1 0-3.6-0.7-3.8-0.8l3.3-7.1c0 0 0 0-0.1-0.1 0.3 0.1 0.9 0.3 1.6-0.3 1.2-0.9 4.8-5.2 3.4-24.8 -0.7-10.1-9.3-40.4-9.4-40.7l7.6-2.1c0.4 1.3 8.9 31.4 9.7 42.3 1.3 17.4-1 27.9-6.9 31.9C1153 482 1151.1 482.4 1149.6 482.4z"/><path class="st33" d="M1128.3 371.9c-1.7 0-3.4-0.7-4.5-2.1 -12.3-14.7-28.4-22.5-47.7-23.5h-7.1c-18.9 0.9-34.6 8.4-46.8 22.3 -2.1 2.5-5.9 2.7-8.3 0.6 -2.5-2.1-2.7-5.9-0.6-8.3 14.1-16.1 32.2-25 53.7-26.3 0.2 0 0.5-0.1 0.7-0.1 1.4-0.1 2.7-0.1 4.1-0.1 1.8 0 3.6 0 5.5 0.1 0.3 0 0.6 0.1 0.9 0.1 21.9 1.5 40.6 10.9 54.6 27.5 2.1 2.5 1.8 6.2-0.7 8.3C1131 371.5 1129.7 371.9 1128.3 371.9z"/><path class="st33" d="M1120.9 359.2c-3.6-2.8-7.8-3.7-10.2-2.5 -0.3-2.6-2.9-5.6-6.8-7.4 -3.9-1.8-7.8-2-10-0.6 0-0.2 0.1-0.3 0.1-0.5 0.2-3.1-4.2-5.9-9.7-6.1 -4.5-0.2-8.3 1.3-9.7 3.6 -1.2-2.4-5.2-4-9.9-3.7 -5.5 0.3-9.8 3.2-9.6 6.3 0 0.1 0 0.2 0.1 0.3 0-0.2-0.1-0.3-0.2-0.5 -1.3-2.8-6.5-3.2-11.4-0.9 -4.2 2-6.9 5.3-6.9 8 -2.3-1.4-6.6-0.5-10.4 2.4 -4.4 3.4-6.3 8.1-4.4 10.6 1.9 2.5 7 1.8 11.3-1.6 3.3-2.6 2.9-7.2 5.1-8.5 2.2-1.3 6.2 1.3 10.1-0.6 4.5-2.1 4.1-5.7 6.8-6.4 2.8-0.6 5.1 2.5 10.2 2.1 4.3-0.3 6.5-4.4 9.1-4.3 2.6 0.1 4.8 4.2 9.3 4.4 3.5 0.2 6.8-2.2 8.9-1.1 2.4 1.4 2 5.2 6.4 7.3 3.8 1.8 7.6-0.5 9.8 0.8 2.2 1.2 2 5.5 5.1 7.9 4.4 3.4 9.4 4.1 11.3 1.6C1127.3 367.3 1125.3 362.6 1120.9 359.2z"/><path class="st1" d="M1125 910.6c0-14-9.2-25.4-20.6-25.4H834.6c-11.4 0-20.6 11.4-20.6 25.4V1137c0 14 9.2 25.4 20.6 25.4h269.8c11.4 0 20.6-11.4 20.6-25.4V910.6z"/><path class="st34" d="M814.3 1141.1c1.6 12.1 10.1 21.3 20.4 21.3h269.8c11.4 0 20.6-11.4 20.6-25.4V943.2C1093.9 999 1011 1102.8 814.3 1141.1z"/><path class="st8" d="M1105.4 1030.9c0-7.6-6.4-13.8-14.4-13.8H844.7c-7.9 0-14.4 6.2-14.4 13.8v94.8c0 7.6 6.4 13.8 14.4 13.8H1091c7.9 0 14.4-6.2 14.4-13.8V1030.9z"/><rect x="839" y="1069.7" class="st3" width="16.6" height="12.5"/><rect x="862.7" y="1069.7" class="st3" width="16.6" height="12.5"/><rect x="886.5" y="1069.7" class="st3" width="16.6" height="12.5"/><rect x="910.3" y="1069.7" class="st3" width="16.6" height="12.5"/><rect x="934" y="1069.7" class="st3" width="16.6" height="12.5"/><circle class="st3" cx="860.3" cy="1103.1" r="11.1"/><circle class="st35" cx="860.3" cy="1103.1" r="6.7"/><circle class="st3" cx="894.1" cy="1103.1" r="11.1"/><circle class="st35" cx="894.1" cy="1103.1" r="6.7"/><circle class="st3" cx="929.6" cy="1103.1" r="11.1"/><circle class="st35" cx="929.6" cy="1103.1" r="6.7"/><rect x="982.7" y="1069.7" class="st3" width="16.6" height="12.5"/><rect x="1006.5" y="1069.7" class="st3" width="16.6" height="12.5"/><rect x="1030.3" y="1069.7" class="st3" width="16.6" height="12.5"/><rect x="1054" y="1069.7" class="st3" width="16.6" height="12.5"/><rect x="1077.8" y="1069.7" class="st3" width="16.6" height="12.5"/><circle class="st3" cx="1004.1" cy="1103.1" r="11.1"/><circle class="st35" cx="1004.1" cy="1103.1" r="6.7"/><circle class="st3" cx="1037.8" cy="1103.1" r="11.1"/><circle class="st35" cx="1037.8" cy="1103.1" r="6.7"/><circle class="st3" cx="1073.3" cy="1103.1" r="11.1"/><circle class="st35" cx="1073.3" cy="1103.1" r="6.7"/><rect x="907.7" y="1017.1" class="st12" width="111" height="25.4"/><rect x="830.3" y="1049.2" class="st12" width="274.9" height="12.5"/><rect x="931.8" y="1024.3" class="st8" width="59.1" height="11.4"/><circle class="st12" cx="849.8" cy="1033.4" r="7.7"/><circle class="st12" cx="874.7" cy="1033.4" r="7.7"/><circle class="st12" cx="1074.1" cy="1031.9" r="9.8"/><circle class="st36" cx="876.8" cy="906.8" r="61.8"/><circle class="st8" cx="876.8" cy="906.8" r="13.2"/><path class="st8" d="M876.8 819c-48.5 0-87.8 39.3-87.8 87.8 0 48.5 39.3 87.8 87.8 87.8 48.5 0 87.8-39.3 87.8-87.8C964.6 858.3 925.3 819 876.8 819zM859.1 848.8c0-9.8 7.9-17.7 17.7-17.7 9.8 0 17.7 7.9 17.7 17.7V870c-5.4-2.6-11.4-4-17.7-4 -6.3 0-12.4 1.4-17.7 4V848.8zM835.4 951.2c-8.5 4.9-19.3 2-24.2-6.5 -4.9-8.5-2-19.3 6.5-24.2l18.4-10.6c1 12.7 7.7 23.9 17.7 30.7L835.4 951.2zM876.8 935.9c-16 0-29-13-29-29 0-16 13-29 29-29 16 0 29 13 29 29C905.8 922.9 892.8 935.9 876.8 935.9zM918.2 951.2l-18.4-10.6c10-6.8 16.8-17.9 17.7-30.7l18.4 10.6c8.5 4.9 11.4 15.7 6.5 24.2C937.5 953.2 926.7 956.1 918.2 951.2z"/><path class="st37" d="M876.8 990.6c-46.2 0-83.7-37.6-83.7-83.7 0-46.2 37.6-83.7 83.7-83.7s83.7 37.6 83.7 83.7C960.5 953 923 990.6 876.8 990.6zM876.8 827.4c-43.8 0-79.5 35.7-79.5 79.5 0 43.8 35.7 79.5 79.5 79.5 43.8 0 79.5-35.7 79.5-79.5C956.3 863 920.6 827.4 876.8 827.4z"/><circle class="st36" cx="1062.3" cy="906.8" r="61.8"/><circle class="st8" cx="1062.3" cy="906.8" r="13.2"/><path class="st8" d="M1062.3 819c-48.5 0-87.8 39.3-87.8 87.8 0 48.5 39.3 87.8 87.8 87.8 48.5 0 87.8-39.3 87.8-87.8C1150.1 858.3 1110.8 819 1062.3 819zM1044.5 848.8c0-9.8 7.9-17.7 17.7-17.7 9.8 0 17.7 7.9 17.7 17.7V870c-5.4-2.6-11.4-4-17.7-4s-12.4 1.4-17.7 4V848.8zM1020.8 951.2c-8.5 4.9-19.3 2-24.2-6.5 -4.9-8.5-2-19.3 6.5-24.2l18.4-10.6c1 12.7 7.7 23.9 17.7 30.7L1020.8 951.2zM1062.3 935.9c-16 0-29-13-29-29 0-16 13-29 29-29 16 0 29 13 29 29C1091.3 922.9 1078.3 935.9 1062.3 935.9zM1103.7 951.2l-18.4-10.6c10-6.8 16.8-17.9 17.7-30.7l18.4 10.6c8.5 4.9 11.4 15.7 6.5 24.2C1123 953.2 1112.1 956.1 1103.7 951.2z"/><path class="st37" d="M1062.3 990.6c-46.2 0-83.7-37.6-83.7-83.7 0-46.2 37.6-83.7 83.7-83.7 46.2 0 83.7 37.6 83.7 83.7C1146 953 1108.4 990.6 1062.3 990.6zM1062.3 827.4c-43.8 0-79.5 35.7-79.5 79.5 0 43.8 35.7 79.5 79.5 79.5 43.8 0 79.5-35.7 79.5-79.5C1141.7 863 1106.1 827.4 1062.3 827.4z"/><path class="st3" d="M1133.3 563c0-5.2-4.2-9.3-9.3-9.3h-104c-5.2 0-9.3 4.2-9.3 9.3v169.5c0 5.2 4.2 9.3 9.3 9.3h104c5.2 0 9.3-4.2 9.3-9.3V563z"/><rect x="1021.1" y="568.5" class="st14" width="101.5" height="138"/><circle class="st12" cx="1071.9" cy="724.7" r="12.4"/><path class="st8" d="M1093.7 652.6c0-0.1 0-0.1 0-0.2v-49.2c0-0.8-0.4-1.5-1-1.9 -0.6-0.5-1.4-0.6-2.1-0.4l-31.1 8.3c-1.1 0.3-1.8 1.2-1.8 2.4v13.2c-0.1 0.4-0.1 0.8 0 1.2 0 0 0 0 0 0v31.8c-1.3-0.5-2.7-0.8-4.3-0.8 -2.6 0-5.4 0.7-8 2.1 -6.7 3.5-10.1 10-7.6 14.8 1.4 2.8 4.5 4.4 8.4 4.4h0c2.6 0 5.4-0.7 8-2.1 5.6-2.9 8.9-7.9 8.4-12.3 0 0 0 0 0-0.1v-36.6l26.2-7v27.3c-1.2-0.5-2.6-0.7-4.2-0.7 -2.6 0-5.4 0.7-8 2.1 -6.7 3.5-10.1 10-7.6 14.8 1.4 2.8 4.5 4.4 8.4 4.4h0c2.6 0 5.4-0.7 8-2.1C1091.5 662.7 1094.8 657.2 1093.7 652.6zM1088.9 606.3v8.7l-26.2 7v-8.7L1088.9 606.3z"/><polygon class="st38" points="1122.7 568.5 1021.1 706.5 1122.7 706.5 "/></svg>